<svg width="23" height="23" viewBox="0 0 23 23" fill="none" xmlns="http://www.w3.org/2000/svg">
<path d="M14.9392 12.5327C16.203 11.7716 17.1828 10.6175 17.7285 9.2469C18.2742 7.87626 18.3559 6.36457 17.9609 4.94312C17.566 3.52168 16.7163 2.26875 15.5418 1.37604C14.3672 0.483329 12.9326 0 11.4573 0C9.982 0 8.54733 0.483329 7.37279 1.37604C6.19826 2.26875 5.34853 3.52168 4.95361 4.94312C4.5587 6.36457 4.64035 7.87626 5.18608 9.2469C5.7318 10.6175 6.71155 11.7716 7.97541 12.5327C5.93956 13.1679 4.11853 14.3527 2.71285 15.9566C1.30717 17.5604 0.371378 19.5211 0.00853246 21.6227C-0.0209677 21.8166 0.0266855 22.0144 0.141276 22.1736C0.255867 22.3328 0.428274 22.4408 0.621537 22.4744C0.814799 22.508 1.01353 22.4645 1.17514 22.3533C1.33674 22.2421 1.44835 22.072 1.48603 21.8795C1.8993 19.5352 3.12537 17.4114 4.9489 15.8812C6.77243 14.3511 9.0768 13.5123 11.4573 13.5123C13.8378 13.5123 16.1421 14.3511 17.9657 15.8812C19.7892 17.4114 21.0153 19.5352 21.4285 21.8795C21.4586 22.0537 21.5492 22.2117 21.6843 22.3256C21.8195 22.4394 21.9905 22.5019 22.1673 22.502C22.2107 22.502 22.2539 22.4983 22.2967 22.4908C22.3938 22.474 22.4868 22.4382 22.5701 22.3855C22.6534 22.3328 22.7256 22.2641 22.7823 22.1835C22.8391 22.1029 22.8794 22.0118 22.901 21.9156C22.9225 21.8193 22.9249 21.7198 22.9079 21.6227C22.5449 19.5209 21.6088 17.56 20.2028 15.9562C18.7968 14.3523 16.9754 13.1676 14.9392 12.5327ZM6.20728 6.75203C6.20728 5.71367 6.51519 4.69864 7.09207 3.83528C7.66894 2.97192 8.48888 2.29902 9.44819 1.90166C10.4075 1.5043 11.4631 1.40033 12.4815 1.6029C13.4999 1.80548 14.4354 2.30549 15.1696 3.03971C15.9038 3.77394 16.4038 4.7094 16.6064 5.7278C16.809 6.7462 16.705 7.8018 16.3077 8.76111C15.9103 9.72043 15.2374 10.5404 14.374 11.1172C13.5107 11.6941 12.4956 12.002 11.4573 12.002C10.0649 12.002 8.72954 11.4489 7.74497 10.4643C6.76041 9.47977 6.20728 8.14441 6.20728 6.75203Z" fill="#122241"/>
</svg>
