<svg width="129" height="41" viewBox="0 0 129 41" fill="none" xmlns="http://www.w3.org/2000/svg">
<path d="M40.6663 6.14799H39.4594C39.388 5.80085 39.2631 5.49589 39.0847 5.2331C38.9095 4.97031 38.6954 4.74969 38.4423 4.57125C38.1925 4.38957 37.9151 4.25331 37.6102 4.16247C37.3052 4.07163 36.9872 4.02621 36.6563 4.02621C36.0529 4.02621 35.5062 4.17869 35.0163 4.48366C34.5297 4.78862 34.142 5.23796 33.8532 5.83167C33.5677 6.42538 33.425 7.15373 33.425 8.01672C33.425 8.87971 33.5677 9.60806 33.8532 10.2018C34.142 10.7955 34.5297 11.2448 35.0163 11.5498C35.5062 11.8548 36.0529 12.0072 36.6563 12.0072C36.9872 12.0072 37.3052 11.9618 37.6102 11.871C37.9151 11.7801 38.1925 11.6455 38.4423 11.4671C38.6954 11.2854 38.9095 11.0631 39.0847 10.8004C39.2631 10.5343 39.388 10.2293 39.4594 9.88545H40.6663C40.5755 10.3948 40.41 10.8506 40.1699 11.2529C39.9298 11.6552 39.6314 11.9975 39.2745 12.2798C38.9176 12.5588 38.5169 12.7713 38.0725 12.9173C37.6312 13.0633 37.1592 13.1363 36.6563 13.1363C35.8063 13.1363 35.0504 12.9286 34.3885 12.5134C33.7267 12.0981 33.206 11.5076 32.8264 10.742C32.4468 9.97629 32.257 9.06788 32.257 8.01672C32.257 6.96556 32.4468 6.05715 32.8264 5.29149C33.206 4.52583 33.7267 3.93537 34.3885 3.52009C35.0504 3.10482 35.8063 2.89718 36.6563 2.89718C37.1592 2.89718 37.6312 2.97018 38.0725 3.11618C38.5169 3.26217 38.9176 3.4763 39.2745 3.75855C39.6314 4.03756 39.9298 4.37822 40.1699 4.78051C40.41 5.17956 40.5755 5.63539 40.6663 6.14799ZM42.6165 13V3.03345H43.8234V7.47168H49.1376V3.03345H50.3445V13H49.1376V8.5423H43.8234V13H42.6165ZM53.9676 3.03345V13H52.7607V3.03345H53.9676ZM64.4074 6.14799H63.2005C63.1292 5.80085 63.0043 5.49589 62.8258 5.2331C62.6506 4.97031 62.4365 4.74969 62.1835 4.57125C61.9336 4.38957 61.6562 4.25331 61.3513 4.16247C61.0463 4.07163 60.7284 4.02621 60.3975 4.02621C59.794 4.02621 59.2473 4.17869 58.7574 4.48366C58.2708 4.78862 57.8831 5.23796 57.5944 5.83167C57.3089 6.42538 57.1661 7.15373 57.1661 8.01672C57.1661 8.87971 57.3089 9.60806 57.5944 10.2018C57.8831 10.7955 58.2708 11.2448 58.7574 11.5498C59.2473 11.8548 59.794 12.0072 60.3975 12.0072C60.7284 12.0072 61.0463 11.9618 61.3513 11.871C61.6562 11.7801 61.9336 11.6455 62.1835 11.4671C62.4365 11.2854 62.6506 11.0631 62.8258 10.8004C63.0043 10.5343 63.1292 10.2293 63.2005 9.88545H64.4074C64.3166 10.3948 64.1511 10.8506 63.9111 11.2529C63.671 11.6552 63.3725 11.9975 63.0156 12.2798C62.6587 12.5588 62.2581 12.7713 61.8136 12.9173C61.3724 13.0633 60.9003 13.1363 60.3975 13.1363C59.5474 13.1363 58.7915 12.9286 58.1297 12.5134C57.4678 12.0981 56.9471 11.5076 56.5675 10.742C56.1879 9.97629 55.9982 9.06788 55.9982 8.01672C55.9982 6.96556 56.1879 6.05715 56.5675 5.29149C56.9471 4.52583 57.4678 3.93537 58.1297 3.52009C58.7915 3.10482 59.5474 2.89718 60.3975 2.89718C60.9003 2.89718 61.3724 2.97018 61.8136 3.11618C62.2581 3.26217 62.6587 3.4763 63.0156 3.75855C63.3725 4.03756 63.671 4.37822 63.9111 4.78051C64.1511 5.17956 64.3166 5.63539 64.4074 6.14799ZM66.7665 13H65.5012L69.1608 3.03345H70.4066L74.0662 13H72.8009L69.8226 4.61019H69.7447L66.7665 13ZM67.2336 9.10681H72.3337V10.1774H67.2336V9.10681ZM81.9633 6.14799C81.8562 5.82032 81.7151 5.52671 81.5399 5.26716C81.3679 5.00437 81.1619 4.78051 80.9218 4.59559C80.685 4.41066 80.4157 4.26953 80.114 4.1722C79.8123 4.07487 79.4814 4.02621 79.1212 4.02621C78.5308 4.02621 77.9938 4.17869 77.5104 4.48366C77.027 4.78862 76.6426 5.23796 76.3571 5.83167C76.0716 6.42538 75.9288 7.15373 75.9288 8.01672C75.9288 8.87971 76.0732 9.60806 76.3619 10.2018C76.6507 10.7955 77.0416 11.2448 77.5348 11.5498C78.0279 11.8548 78.5827 12.0072 79.1991 12.0072C79.7701 12.0072 80.273 11.8856 80.7077 11.6423C81.1457 11.3957 81.4863 11.0485 81.7297 10.6008C81.9762 10.1499 82.0995 9.61942 82.0995 9.00949L82.4694 9.08735H79.4716V8.01672H83.2675V9.08735C83.2675 9.90816 83.0923 10.6219 82.7419 11.2286C82.3948 11.8353 81.9146 12.3057 81.3014 12.6399C80.6915 12.9708 79.9907 13.1363 79.1991 13.1363C78.3166 13.1363 77.5413 12.9286 76.8729 12.5134C76.2078 12.0981 75.6887 11.5076 75.3156 10.742C74.9458 9.97629 74.7609 9.06788 74.7609 8.01672C74.7609 7.22835 74.8663 6.51947 75.0772 5.89007C75.2913 5.25743 75.593 4.71887 75.9824 4.2744C76.3717 3.82993 76.8324 3.48927 77.3644 3.25244C77.8965 3.0156 78.4821 2.89718 79.1212 2.89718C79.6468 2.89718 80.1367 2.97667 80.5909 3.13564C81.0484 3.29137 81.4555 3.5136 81.8124 3.80235C82.1725 4.08785 82.4726 4.43013 82.7127 4.82918C82.9528 5.22498 83.1182 5.66459 83.2091 6.14799H81.9633ZM93.7438 8.01672C93.7438 9.06788 93.554 9.97629 93.1744 10.742C92.7948 11.5076 92.2741 12.0981 91.6123 12.5134C90.9504 12.9286 90.1945 13.1363 89.3445 13.1363C88.4945 13.1363 87.7386 12.9286 87.0767 12.5134C86.4149 12.0981 85.8942 11.5076 85.5146 10.742C85.135 9.97629 84.9452 9.06788 84.9452 8.01672C84.9452 6.96556 85.135 6.05715 85.5146 5.29149C85.8942 4.52583 86.4149 3.93537 87.0767 3.52009C87.7386 3.10482 88.4945 2.89718 89.3445 2.89718C90.1945 2.89718 90.9504 3.10482 91.6123 3.52009C92.2741 3.93537 92.7948 4.52583 93.1744 5.29149C93.554 6.05715 93.7438 6.96556 93.7438 8.01672ZM92.5758 8.01672C92.5758 7.15373 92.4315 6.42538 92.1427 5.83167C91.8572 5.23796 91.4695 4.78862 90.9796 4.48366C90.493 4.17869 89.9479 4.02621 89.3445 4.02621C88.7411 4.02621 88.1944 4.17869 87.7045 4.48366C87.2178 4.78862 86.8302 5.23796 86.5414 5.83167C86.2559 6.42538 86.1132 7.15373 86.1132 8.01672C86.1132 8.87971 86.2559 9.60806 86.5414 10.2018C86.8302 10.7955 87.2178 11.2448 87.7045 11.5498C88.1944 11.8548 88.7411 12.0072 89.3445 12.0072C89.9479 12.0072 90.493 11.8548 90.9796 11.5498C91.4695 11.2448 91.8572 10.7955 92.1427 10.2018C92.4315 9.60806 92.5758 8.87971 92.5758 8.01672Z" fill="#14254D"/>
<path d="M32.6463 26.543V16.5764H36.0139C36.7958 16.5764 37.435 16.7175 37.9313 16.9998C38.431 17.2788 38.8008 17.6568 39.0409 18.1337C39.281 18.6106 39.401 19.1427 39.401 19.7299C39.401 20.3171 39.281 20.8508 39.0409 21.331C38.8041 21.8111 38.4375 22.194 37.9411 22.4795C37.4447 22.7617 36.8088 22.9028 36.0334 22.9028H33.6196V21.8322H35.9945C36.5298 21.8322 36.9597 21.7398 37.2841 21.5548C37.6085 21.3699 37.8437 21.1201 37.9897 20.8054C38.139 20.4874 38.2136 20.1289 38.2136 19.7299C38.2136 19.3308 38.139 18.974 37.9897 18.6593C37.8437 18.3446 37.6069 18.098 37.2792 17.9196C36.9516 17.7379 36.5168 17.647 35.975 17.647H33.8532V26.543H32.6463ZM40.7369 26.543H39.4716L43.1312 16.5764H44.377L48.0366 26.543H46.7713L43.793 18.1532H43.7152L40.7369 26.543ZM41.204 22.6498H46.3041V23.7204H41.204V22.6498ZM55.0395 19.0681C54.9811 18.5749 54.7442 18.1921 54.3289 17.9196C53.9137 17.647 53.4043 17.5108 52.8009 17.5108C52.3596 17.5108 51.9736 17.5822 51.6427 17.7249C51.315 17.8677 51.0587 18.0639 50.8737 18.3137C50.6921 18.5636 50.6012 18.8474 50.6012 19.1654C50.6012 19.4314 50.6645 19.6601 50.791 19.8516C50.9208 20.0397 51.0863 20.1971 51.2874 20.3236C51.4885 20.4469 51.6994 20.5491 51.92 20.6302C52.1407 20.7081 52.3434 20.7713 52.5284 20.82L53.5406 21.0925C53.8001 21.1606 54.0889 21.2547 54.4068 21.3748C54.728 21.4948 55.0346 21.6586 55.3266 21.8663C55.6218 22.0707 55.8651 22.3335 56.0566 22.6546C56.248 22.9758 56.3437 23.37 56.3437 23.8372C56.3437 24.3758 56.2025 24.8624 55.9203 25.2971C55.6413 25.7319 55.2325 26.0774 54.6939 26.3337C54.1586 26.59 53.5081 26.7182 52.7425 26.7182C52.0287 26.7182 51.4107 26.603 50.8883 26.3726C50.3693 26.1423 49.9605 25.8211 49.662 25.4091C49.3668 24.997 49.1997 24.5185 49.1607 23.9735H50.4066C50.439 24.3498 50.5655 24.6613 50.7862 24.9078C51.01 25.1512 51.2923 25.3328 51.6329 25.4529C51.9768 25.5697 52.3467 25.6281 52.7425 25.6281C53.2032 25.6281 53.6168 25.5535 53.9834 25.4042C54.35 25.2517 54.6404 25.0408 54.8545 24.7716C55.0687 24.499 55.1757 24.1811 55.1757 23.8177C55.1757 23.4868 55.0833 23.2175 54.8983 23.0099C54.7134 22.8023 54.4701 22.6336 54.1684 22.5038C53.8666 22.374 53.5406 22.2605 53.1902 22.1631L51.9638 21.8127C51.1852 21.5889 50.5688 21.2693 50.1146 20.8541C49.6604 20.4388 49.4333 19.8954 49.4333 19.2238C49.4333 18.6658 49.5841 18.1791 49.8859 17.7638C50.1908 17.3453 50.5996 17.0209 51.1122 16.7905C51.6281 16.5569 52.2039 16.4402 52.8398 16.4402C53.4822 16.4402 54.0532 16.5553 54.5528 16.7857C55.0524 17.0128 55.4482 17.3242 55.7402 17.72C56.0355 18.1158 56.1912 18.5652 56.2074 19.0681H55.0395ZM63.7784 19.0681C63.72 18.5749 63.4832 18.1921 63.0679 17.9196C62.6527 17.647 62.1433 17.5108 61.5399 17.5108C61.0986 17.5108 60.7126 17.5822 60.3816 17.7249C60.054 17.8677 59.7977 18.0639 59.6127 18.3137C59.431 18.5636 59.3402 18.8474 59.3402 19.1654C59.3402 19.4314 59.4035 19.6601 59.53 19.8516C59.6598 20.0397 59.8252 20.1971 60.0264 20.3236C60.2275 20.4469 60.4384 20.5491 60.659 20.6302C60.8796 20.7081 61.0824 20.7713 61.2673 20.82L62.2796 21.0925C62.5391 21.1606 62.8279 21.2547 63.1458 21.3748C63.467 21.4948 63.7736 21.6586 64.0656 21.8663C64.3608 22.0707 64.6041 22.3335 64.7955 22.6546C64.9869 22.9758 65.0827 23.37 65.0827 23.8372C65.0827 24.3758 64.9415 24.8624 64.6593 25.2971C64.3803 25.7319 63.9715 26.0774 63.4329 26.3337C62.8976 26.59 62.2471 26.7182 61.4815 26.7182C60.7677 26.7182 60.1497 26.603 59.6273 26.3726C59.1082 26.1423 58.6995 25.8211 58.401 25.4091C58.1057 24.997 57.9387 24.5185 57.8997 23.9735H59.1455C59.178 24.3498 59.3045 24.6613 59.5251 24.9078C59.749 25.1512 60.0312 25.3328 60.3719 25.4529C60.7158 25.5697 61.0857 25.6281 61.4815 25.6281C61.9422 25.6281 62.3558 25.5535 62.7224 25.4042C63.089 25.2517 63.3794 25.0408 63.5935 24.7716C63.8076 24.499 63.9147 24.1811 63.9147 23.8177C63.9147 23.4868 63.8222 23.2175 63.6373 23.0099C63.4524 22.8023 63.2091 22.6336 62.9073 22.5038C62.6056 22.374 62.2796 22.2605 61.9292 22.1631L60.7028 21.8127C59.9242 21.5889 59.3078 21.2693 58.8536 20.8541C58.3994 20.4388 58.1723 19.8954 58.1723 19.2238C58.1723 18.6658 58.3231 18.1791 58.6248 17.7638C58.9298 17.3453 59.3386 17.0209 59.8512 16.7905C60.367 16.5569 60.9429 16.4402 61.5788 16.4402C62.2212 16.4402 62.7922 16.5553 63.2918 16.7857C63.7914 17.0128 64.1872 17.3242 64.4792 17.72C64.7744 18.1158 64.9302 18.5652 64.9464 19.0681H63.7784ZM67.067 26.543V16.5764H70.4346C71.2165 16.5764 71.8556 16.7175 72.352 16.9998C72.8516 17.2788 73.2214 17.6568 73.4615 18.1337C73.7016 18.6106 73.8216 19.1427 73.8216 19.7299C73.8216 20.3171 73.7016 20.8508 73.4615 21.331C73.2247 21.8111 72.8581 22.194 72.3617 22.4795C71.8653 22.7617 71.2294 22.9028 70.454 22.9028H68.0403V21.8322H70.4151C70.9504 21.8322 71.3803 21.7398 71.7047 21.5548C72.0292 21.3699 72.2644 21.1201 72.4104 20.8054C72.5596 20.4874 72.6342 20.1289 72.6342 19.7299C72.6342 19.3308 72.5596 18.974 72.4104 18.6593C72.2644 18.3446 72.0275 18.098 71.6999 17.9196C71.3722 17.7379 70.9374 17.647 70.3956 17.647H68.2739V26.543H67.067ZM84.1751 21.5597C84.1751 22.6109 83.9853 23.5193 83.6057 24.2849C83.2261 25.0506 82.7054 25.641 82.0436 26.0563C81.3817 26.4716 80.6258 26.6792 79.7758 26.6792C78.9258 26.6792 78.1698 26.4716 77.508 26.0563C76.8462 25.641 76.3254 25.0506 75.9459 24.2849C75.5663 23.5193 75.3765 22.6109 75.3765 21.5597C75.3765 20.5085 75.5663 19.6001 75.9459 18.8345C76.3254 18.0688 76.8462 17.4783 77.508 17.0631C78.1698 16.6478 78.9258 16.4402 79.7758 16.4402C80.6258 16.4402 81.3817 16.6478 82.0436 17.0631C82.7054 17.4783 83.2261 18.0688 83.6057 18.8345C83.9853 19.6001 84.1751 20.5085 84.1751 21.5597ZM83.0071 21.5597C83.0071 20.6967 82.8628 19.9684 82.574 19.3746C82.2885 18.7809 81.9008 18.3316 81.4109 18.0266C80.9243 17.7217 80.3792 17.5692 79.7758 17.5692C79.1723 17.5692 78.6257 17.7217 78.1358 18.0266C77.6491 18.3316 77.2614 18.7809 76.9727 19.3746C76.6872 19.9684 76.5444 20.6967 76.5444 21.5597C76.5444 22.4227 76.6872 23.151 76.9727 23.7447C77.2614 24.3385 77.6491 24.7878 78.1358 25.0928C78.6257 25.3977 79.1723 25.5502 79.7758 25.5502C80.3792 25.5502 80.9243 25.3977 81.4109 25.0928C81.9008 24.7878 82.2885 24.3385 82.574 23.7447C82.8628 23.151 83.0071 22.4227 83.0071 21.5597ZM86.2044 26.543V16.5764H89.572C90.3506 16.5764 90.9898 16.7094 91.4894 16.9755C91.989 17.2383 92.3589 17.6 92.599 18.0607C92.839 18.5214 92.9591 19.0453 92.9591 19.6326C92.9591 20.2198 92.839 20.7405 92.599 21.1947C92.3589 21.6489 91.9906 22.0058 91.4943 22.2653C90.9979 22.5216 90.3636 22.6498 89.5915 22.6498H86.8662V21.5597H89.5525C90.0846 21.5597 90.5129 21.4818 90.8373 21.3261C91.165 21.1704 91.4018 20.9498 91.5478 20.6643C91.697 20.3755 91.7717 20.0316 91.7717 19.6326C91.7717 19.2335 91.697 18.8847 91.5478 18.5863C91.3986 18.2878 91.1601 18.0574 90.8324 17.8952C90.5047 17.7298 90.0716 17.647 89.5331 17.647H87.4113V26.543H86.2044ZM90.8957 22.0658L93.3484 26.543H91.9468L89.5331 22.0658H90.8957ZM94.4251 17.647V16.5764H101.9V17.647H98.766V26.543H97.5591V17.647H94.4251Z" fill="#14254D"/>
<path d="M27.8487 19.3252V24.3339C18.1215 27.0639 8.69533 31.2128 0 36.1355C0 36.1247 0 36.114 0 36.0925V35.1896C8.17941 28.9986 18.3258 23.2805 27.8487 19.3252Z" fill="#14254D"/>
<path d="M27.849 31.1699V36.0926C27.849 37.7908 26.4733 39.1666 24.775 39.1666H3.20331C11.114 35.6842 19.4009 32.9649 27.8383 31.1699H27.849Z" fill="#14254D"/>
<path d="M27.8487 12.2314V14.0372C17.7776 18.8954 8.34064 25.1508 0 32.6209V30.8152C8.34064 23.3344 17.7776 17.0897 27.8487 12.2314Z" fill="#14254D"/>
<path d="M27.8487 3.15994V12.2315C17.7776 17.0897 8.34064 23.3451 0 30.8152V3.15994C0 1.46171 1.37578 0.0859375 3.074 0.0859375H24.7855C26.4837 0.0859375 27.8595 1.46171 27.8595 3.15994H27.8487Z" fill="#14254D"/>
<path d="M27.8487 24.334V26.1397C18.1215 28.8697 8.69533 33.0186 0 37.952C0 37.9413 0 37.9198 0 37.909V36.1033C0 36.1141 0 36.1356 0 36.1463C8.69533 31.2236 18.1215 27.0748 27.8487 24.3447V24.334Z" fill="#14254D"/>
<path d="M27.8487 19.3252V24.3339C18.1215 27.0639 8.69533 31.2128 0 36.1355C0 36.1247 0 36.114 0 36.0925V35.1896C8.17941 28.9986 18.3258 23.2805 27.8487 19.3252Z" fill="#14254D"/>
<path d="M27.8481 36.0928V37.8985C27.8481 39.5967 26.4724 40.9725 24.7741 40.9725H3.06269C2.25657 40.9725 1.53644 40.6608 0.988281 40.1556C1.72991 39.8117 2.46079 39.4892 3.21317 39.156H24.7849C26.4831 39.156 27.8589 37.7803 27.8589 36.082L27.8481 36.0928Z" fill="#14254D"/>
<path d="M27.849 31.1699V36.0926C27.849 37.7908 26.4733 39.1666 24.775 39.1666H3.20331C11.114 35.6842 19.4009 32.9649 27.8383 31.1699H27.849Z" fill="#14254D"/>
<path d="M128.999 30.3745H31.2871V39.1558H128.999V30.3745Z" fill="#14254D"/>
<path d="M77.7733 39.1666H31.2871V30.3745H90.5422L77.7733 39.1666Z" fill="#14254D"/>
<path d="M36.8236 37.4147L36.2002 36.8343C35.7166 37.2104 35.1254 37.4147 34.4483 37.4147C33.2982 37.4147 32.4491 36.8128 32.4491 35.9744C32.4491 35.136 32.8038 34.8566 33.5992 34.4159C33.223 34.0182 33.0617 33.685 33.0617 33.3088C33.0617 32.5457 33.7066 32.019 34.6955 32.019C35.6843 32.019 36.2002 32.4812 36.2002 33.2228C36.2002 33.9645 35.8885 34.1579 35.1792 34.5449L36.1357 35.437C36.2432 35.2005 36.34 34.9318 36.3937 34.6201L37.3288 34.9103C37.2321 35.3617 37.0708 35.7594 36.8451 36.1034L37.4578 36.673L36.8236 37.4147ZM35.5016 36.2001L34.2333 35.0178C33.7496 35.2973 33.5777 35.5337 33.5777 35.8562C33.5777 36.1786 33.9324 36.5118 34.5128 36.5118C35.0932 36.5118 35.2114 36.4043 35.4908 36.2001H35.5016ZM34.1258 33.2981C34.1258 33.5023 34.2118 33.6528 34.5343 33.9645C35.0502 33.685 35.2114 33.4916 35.2114 33.2551C35.2114 33.0186 35.0287 32.8252 34.6955 32.8252C34.3623 32.8252 34.1258 33.0294 34.1258 33.3088V33.2981Z" fill="#14254D"/>
<path d="M45.3899 32.0942L43.122 37.3286H41.9289L39.6718 32.0942H40.9831L42.5738 35.8346L44.1861 32.0942H45.3899Z" fill="#14254D"/>
<path d="M45.6795 32.0941C45.6795 31.7287 45.9697 31.4385 46.3996 31.4385C46.8296 31.4385 47.1198 31.7072 47.1198 32.0619C47.1198 32.4166 46.8296 32.739 46.3996 32.739C45.9697 32.739 45.6795 32.4596 45.6795 32.0834V32.0941ZM45.8192 33.3087H46.9908V37.3285H45.8192V33.3087Z" fill="#14254D"/>
<path d="M47.6787 36.9523L48.0656 36.1139C48.4203 36.3504 48.9684 36.5009 49.4629 36.5009C49.9573 36.5009 50.2045 36.3611 50.2045 36.1354C50.2045 35.4798 47.7754 36.1462 47.7754 34.5447C47.7754 32.9432 48.4633 33.2441 49.6348 33.2441C50.8064 33.2441 50.8064 33.3731 51.1826 33.5988L50.7956 34.4264C50.398 34.2007 50.0003 34.1255 49.6348 34.1255C49.1082 34.1255 48.8825 34.2867 48.8825 34.5017C48.8825 35.1896 51.3116 34.5232 51.3116 36.1139C51.3116 37.7047 50.6129 37.393 49.4091 37.393C48.2053 37.393 48.0441 37.2102 47.6679 36.963L47.6787 36.9523Z" fill="#14254D"/>
<path d="M55.5998 35.0283V37.3285H54.5034V36.8233C54.2885 37.1887 53.8693 37.3822 53.2781 37.3822C52.3323 37.3822 51.7734 36.8555 51.7734 36.1677C51.7734 35.4798 52.2785 34.9639 53.5038 34.9639H54.4282C54.4282 34.4587 54.1272 34.1685 53.5038 34.1685C52.8804 34.1685 52.6332 34.3082 52.343 34.5447L51.9239 33.7278C52.3645 33.4161 53.0202 33.2441 53.6543 33.2441C54.8796 33.2441 55.589 33.8138 55.589 35.0283H55.5998ZM54.4389 36.0602V35.6517H53.6436C53.0954 35.6517 52.9234 35.856 52.9234 36.1247C52.9234 36.3934 53.1707 36.6083 53.5791 36.6083C53.9875 36.6083 54.2992 36.4256 54.4389 36.0602Z" fill="#14254D"/>
<path d="M62.9095 36.3613V37.3286H58.8574V32.0942H62.8127V33.0616H60.0612V34.2009H62.4903V35.1467H60.0612V36.3613H62.9095Z" fill="#14254D"/>
<path d="M66.2956 37.3284L65.4143 36.0924L64.5007 37.3284H63.2324L64.7801 35.297L63.2861 33.2979H64.5974L65.4465 34.4694L66.3171 33.2979H67.5639L66.0699 35.2648L67.6284 37.3177H66.3064L66.2956 37.3284Z" fill="#14254D"/>
<path d="M72.5727 35.3185C72.5727 36.5868 71.7021 37.393 70.5736 37.393C69.445 37.393 69.66 37.2317 69.359 36.9093V38.7902H68.1874V33.3194H69.3053V33.7815C69.5955 33.4269 70.0361 33.2549 70.5736 33.2549C71.7021 33.2549 72.5727 34.061 72.5727 35.3293V35.3185ZM71.3904 35.3185C71.3904 34.6199 70.9497 34.2007 70.3693 34.2007C69.7889 34.2007 69.3482 34.6199 69.3482 35.3185C69.3482 36.0172 69.7889 36.4364 70.3693 36.4364C70.9497 36.4364 71.3904 36.0172 71.3904 35.3185Z" fill="#14254D"/>
<path d="M77.2699 35.6517H74.2281C74.3356 36.1569 74.7656 36.4579 75.3782 36.4579C75.9909 36.4579 76.1091 36.3289 76.3885 36.0709L77.0119 36.7481C76.6358 37.178 76.0768 37.4037 75.3567 37.4037C73.9702 37.4037 73.0566 36.5331 73.0566 35.3293C73.0566 34.1255 73.9809 33.2549 75.2062 33.2549C76.4315 33.2549 77.3021 34.0503 77.3021 35.34C77.3021 36.6298 77.2914 35.555 77.2806 35.6517H77.2699ZM74.2066 34.9639H76.1843C76.0983 34.4587 75.7221 34.1255 75.1955 34.1255C74.6688 34.1255 74.2819 34.4479 74.1959 34.9639H74.2066Z" fill="#14254D"/>
<path d="M82.1705 31.7822V37.3283H81.0527V36.8662C80.7625 37.2208 80.3326 37.3928 79.7951 37.3928C78.6558 37.3928 77.7852 36.5867 77.7852 35.3184C77.7852 34.0501 78.6558 33.244 79.7951 33.244C80.9345 33.244 80.7087 33.4052 80.9989 33.7277V31.7715H82.1705V31.7822ZM81.0204 35.3184C81.0204 34.6198 80.569 34.2006 79.9994 34.2006C79.4297 34.2006 78.9675 34.6198 78.9675 35.3184C78.9675 36.017 79.419 36.4362 79.9994 36.4362C80.5798 36.4362 81.0204 36.017 81.0204 35.3184Z" fill="#14254D"/>
<path d="M83.1053 32.0941C83.1053 31.7287 83.3955 31.4385 83.8254 31.4385C84.2553 31.4385 84.5456 31.7072 84.5456 32.0619C84.5456 32.4166 84.2553 32.739 83.8254 32.739C83.3955 32.739 83.1053 32.4596 83.1053 32.0834V32.0941ZM83.245 33.3087H84.4166V37.3285H83.245V33.3087Z" fill="#14254D"/>
<path d="M88.0915 37.135C87.8551 37.3069 87.5004 37.3929 87.1457 37.3929C86.1998 37.3929 85.6409 36.9093 85.6409 35.9527V34.2974H85.0175V33.4053H85.6409V32.4272H86.8125V33.4053H87.8121V34.2974H86.8125V35.9312C86.8125 36.2751 86.9952 36.4578 87.3176 36.4578C87.6401 36.4578 87.6616 36.4041 87.7906 36.3074L88.1023 37.135H88.0915Z" fill="#14254D"/>
<path d="M92.5414 35.6517H89.4996C89.6071 36.1569 90.037 36.4579 90.6497 36.4579C91.2623 36.4579 91.3806 36.3289 91.66 36.0709L92.2834 36.7481C91.9072 37.178 91.3483 37.4037 90.6282 37.4037C89.2417 37.4037 88.3281 36.5331 88.3281 35.3293C88.3281 34.1255 89.2524 33.2549 90.4777 33.2549C91.703 33.2549 92.5736 34.0503 92.5736 35.34C92.5736 36.6298 92.5629 35.555 92.5521 35.6517H92.5414ZM89.4781 34.9639H91.4558C91.3698 34.4587 90.9936 34.1255 90.467 34.1255C89.9403 34.1255 89.5534 34.4479 89.4674 34.9639H89.4781Z" fill="#14254D"/>
<path d="M95.122 36.8126L95.5304 35.899C95.9711 36.2215 96.6268 36.4472 97.2609 36.4472C97.8951 36.4472 98.2712 36.2107 98.2712 35.8883C98.2712 34.9102 95.2295 35.5766 95.2295 33.6419C95.2295 31.7072 95.9496 32.0082 97.4329 32.0082C98.9161 32.0082 98.7657 32.1694 99.2493 32.4703L98.8732 33.3947C98.3895 33.1152 97.8843 32.9862 97.4221 32.9862C96.702 32.9862 96.4225 33.255 96.4225 33.5881C96.4225 34.5555 99.4643 33.8891 99.4643 35.813C99.4643 37.737 98.7442 37.436 97.2394 37.436C95.7347 37.436 95.5734 37.1888 95.1113 36.8341L95.122 36.8126Z" fill="#14254D"/>
<path d="M104.139 35.6517H101.097C101.205 36.1569 101.635 36.4579 102.247 36.4579C102.86 36.4579 102.978 36.3289 103.258 36.0709L103.881 36.7481C103.505 37.178 102.946 37.4037 102.226 37.4037C100.839 37.4037 99.9257 36.5331 99.9257 35.3293C99.9257 34.1255 100.85 33.2549 102.075 33.2549C103.301 33.2549 104.171 34.0503 104.171 35.34C104.171 36.6298 104.161 35.555 104.15 35.6517H104.139ZM101.087 34.9639H103.064C102.978 34.4587 102.602 34.1255 102.075 34.1255C101.549 34.1255 101.162 34.4479 101.076 34.9639H101.087Z" fill="#14254D"/>
<path d="M107.439 33.2441V34.319C107.342 34.319 107.267 34.3082 107.181 34.3082C106.536 34.3082 106.117 34.6629 106.117 35.426V37.3285H104.945V33.3086H106.063V33.8353C106.343 33.4484 106.826 33.2441 107.45 33.2441H107.439Z" fill="#14254D"/>
<path d="M112.277 33.3086L110.579 37.3284H109.375L107.687 33.3086H108.891L110.009 36.0494L111.159 33.3086H112.277Z" fill="#14254D"/>
<path d="M112.609 32.0941C112.609 31.7287 112.899 31.4385 113.329 31.4385C113.759 31.4385 114.05 31.7072 114.05 32.0619C114.05 32.4166 113.759 32.739 113.329 32.739C112.899 32.739 112.609 32.4596 112.609 32.0834V32.0941ZM112.749 33.3087H113.921V37.3285H112.749V33.3087Z" fill="#14254D"/>
<path d="M114.705 35.3186C114.705 34.104 115.64 33.2441 116.952 33.2441C118.263 33.2441 118.467 33.6096 118.757 34.2652L117.854 34.7489C117.639 34.3727 117.317 34.2007 116.952 34.2007C116.36 34.2007 115.898 34.6092 115.898 35.3186C115.898 36.0279 116.36 36.4364 116.952 36.4364C117.543 36.4364 117.639 36.2751 117.854 35.8882L118.757 36.3826C118.467 37.0275 117.801 37.4037 116.952 37.4037C115.64 37.4037 114.705 36.5439 114.705 35.3293V35.3186Z" fill="#14254D"/>
<path d="M123.293 35.6517H120.252C120.359 36.1569 120.789 36.4579 121.402 36.4579C122.014 36.4579 122.133 36.3289 122.412 36.0709L123.035 36.7481C122.659 37.178 122.1 37.4037 121.38 37.4037C119.994 37.4037 119.08 36.5331 119.08 35.3293C119.08 34.1255 120.004 33.2549 121.23 33.2549C122.455 33.2549 123.326 34.0503 123.326 35.34C123.326 36.6298 123.315 35.555 123.304 35.6517H123.293ZM120.23 34.9639H122.208C122.122 34.4587 121.746 34.1255 121.219 34.1255C120.692 34.1255 120.305 34.4479 120.219 34.9639H120.23Z" fill="#14254D"/>
<path d="M123.702 36.9523L124.089 36.1139C124.444 36.3504 124.992 36.5009 125.486 36.5009C125.981 36.5009 126.228 36.3611 126.228 36.1354C126.228 35.4798 123.799 36.1462 123.799 34.5447C123.799 32.9432 124.487 33.2441 125.658 33.2441C126.83 33.2441 126.83 33.3731 127.206 33.5988L126.819 34.4264C126.421 34.2007 126.024 34.1255 125.658 34.1255C125.132 34.1255 124.906 34.2867 124.906 34.5017C124.906 35.1896 127.335 34.5232 127.335 36.1139C127.335 37.7047 126.636 37.393 125.433 37.393C124.229 37.393 124.068 37.2102 123.691 36.963L123.702 36.9523Z" fill="#14254D"/>
</svg>
