<svg width="26" height="26" viewBox="0 0 26 26" fill="none" xmlns="http://www.w3.org/2000/svg">
<path d="M24.154 6.12774C25.1312 5.15059 25.7601 3.91291 25.973 2.54686C26.0824 1.8427 25.8565 1.15047 25.3522 0.646728C24.8485 0.142988 24.1551 -0.0823409 23.4531 0.0270736C22.0875 0.239944 20.8493 0.868265 19.8721 1.84541L16.8501 4.86731L15.0409 4.47352C15.3497 4.00499 15.2982 3.36692 14.8865 2.95472C14.4153 2.48457 13.6499 2.48402 13.1786 2.95472L12.2648 3.8685L10.1209 3.40159L10.2704 3.25209C10.7411 2.78139 10.7406 2.01495 10.2704 1.54479C9.81591 1.08872 9.02019 1.08818 8.56302 1.54479L7.31717 2.7906L2.87978 1.82429C2.53094 1.74791 2.17072 1.85408 1.91668 2.10703L1.02346 3.00022C0.788914 3.23476 0.680579 3.55813 0.727163 3.88691C0.773747 4.2157 0.967125 4.49627 1.258 4.65715L11.6793 10.4139L6.40391 16.1857L1.04621 16.4707L0.216365 17.2999C0.0386955 17.4781 -0.0360557 17.7322 0.0164866 17.9786C0.0695707 18.2251 0.241281 18.4255 0.476368 18.5149L5.54806 20.4518L7.48563 25.5239C7.57555 25.759 7.77597 25.9312 8.02243 25.9838C8.07443 25.9946 8.12697 26 8.17843 26C8.37235 26 8.55977 25.9236 8.70115 25.7828L9.52991 24.9541L9.81483 19.596L15.5869 14.3208L21.34 24.7379C21.5004 25.0288 21.781 25.2222 22.1097 25.2688C22.4385 25.3143 22.7619 25.207 22.9965 24.9725L23.8902 24.0793C24.1432 23.8263 24.2488 23.4667 24.173 23.1168L23.2083 18.6839L24.4557 17.437C24.6838 17.2089 24.8095 16.9056 24.8095 16.5828C24.8095 16.2599 24.6838 15.9566 24.4557 15.7286C23.9845 15.2584 23.2191 15.2579 22.7478 15.7286L22.5978 15.8786L22.1314 13.7348L23.0458 12.8204C23.2738 12.5924 23.3995 12.2891 23.3995 11.9662C23.3995 11.6434 23.2738 11.3401 23.0463 11.1126C22.6482 10.7145 21.9911 10.6641 21.5274 10.9604L21.1331 9.14855L24.1551 6.12666L24.154 6.12774Z" fill="white"/>
</svg>
