<svg width="172" height="60" viewBox="0 0 172 60" fill="none" xmlns="http://www.w3.org/2000/svg">
<g clip-path="url(#clip0_517_566)">
<path d="M54.3485 32.228C54.3485 42.7312 45.8371 51.2425 35.3339 51.2425H12.1937L14.7234 43.2986L24.3017 13.2134H35.3339C37.9434 13.2134 40.4289 13.7394 42.6897 14.6881C44.983 15.6515 47.0458 17.0494 48.7777 18.7812C52.2177 22.2212 54.3485 26.9763 54.3485 32.225V32.228Z" fill="#BE1E2D"/>
<path d="M21.2813 59.7979L24.0061 51.2422H12.1523L9.42749 59.7979H21.2813Z" fill="#BE1E2D"/>
<path opacity="0.15" d="M33.1617 44.6137L42.6897 14.6881C40.4289 13.7365 37.9434 13.2134 35.3339 13.2134H24.3016L14.3038 44.6137H33.1617Z" fill="black"/>
<path d="M42.1548 0H19.0146C8.51429 0 0 8.51429 0 19.0146C0 29.5148 8.51429 38.0291 19.0146 38.0291H30.0468L42.1548 0Z" fill="white"/>
<path d="M72.3937 30.174C71.9947 30.8951 71.38 31.4773 70.5525 31.9206C69.725 32.3639 68.6966 32.5856 67.4701 32.5856H65.2004V37.982H61.5388V22.9482H67.4701C68.67 22.9482 69.6836 23.1551 70.5111 23.5689C71.3386 23.9826 71.9592 24.553 72.373 25.283C72.7867 26.01 72.9936 26.8463 72.9936 27.7891C72.9936 28.6609 72.7926 29.4559 72.3937 30.177V30.174ZM68.7527 29.1751C69.0955 28.8471 69.2669 28.3831 69.2669 27.7832C69.2669 27.1832 69.0955 26.7192 68.7527 26.3912C68.4099 26.0632 67.8898 25.8977 67.1893 25.8977H65.1975V29.6657H67.1893C67.8898 29.6657 68.4099 29.5032 68.7527 29.1722V29.1751Z" fill="white"/>
<path d="M84.2593 35.3222H78.6471L77.7487 37.9791H73.9157L79.3564 22.9453H83.5973L89.0381 37.9791H85.1607L84.2623 35.3222H84.2593ZM83.3166 32.4969L81.4547 26.9941L79.6135 32.4969H83.3195H83.3166Z" fill="white"/>
<path d="M93.1667 37.5918C92.2948 37.2342 91.6003 36.7081 91.0802 36.0077C90.5601 35.3073 90.2852 34.465 90.2557 33.4809H94.1537C94.2099 34.0365 94.402 34.4621 94.733 34.7547C95.061 35.0472 95.4895 35.195 96.0185 35.195C96.5476 35.195 96.9879 35.0709 97.3041 34.8197C97.6174 34.5714 97.774 34.2227 97.774 33.7824C97.774 33.41 97.6499 33.1056 97.3987 32.8603C97.1475 32.618 96.8431 32.417 96.4766 32.2604C96.1131 32.1037 95.5959 31.9264 94.9251 31.7255C93.9528 31.427 93.1607 31.1255 92.549 30.827C91.9343 30.5285 91.4053 30.0852 90.9649 29.5001C90.5216 28.9149 90.3 28.1525 90.3 27.2097C90.3 25.8118 90.8054 24.7154 91.819 23.9234C92.8327 23.1314 94.1537 22.7354 95.7821 22.7354C97.4105 22.7354 98.7729 23.1314 99.7866 23.9234C100.8 24.7154 101.341 25.8178 101.415 27.2334H97.4519C97.4223 26.7487 97.245 26.3645 96.917 26.0867C96.5889 25.8089 96.1663 25.67 95.6521 25.67C95.2088 25.67 94.8512 25.7882 94.5823 26.0246C94.3104 26.2611 94.1744 26.6009 94.1744 27.0413C94.1744 27.5259 94.402 27.9042 94.8601 28.1761C95.3181 28.448 96.0304 28.7406 97.0027 29.0538C97.972 29.3819 98.7611 29.6951 99.3699 29.9966C99.9757 30.2951 100.502 30.7325 100.945 31.3028C101.388 31.8732 101.61 32.6091 101.61 33.5075C101.61 34.4059 101.391 35.1418 100.957 35.8422C100.52 36.5426 99.89 37.0982 99.0625 37.512C98.235 37.9257 97.2568 38.1326 96.1279 38.1326C94.999 38.1326 94.0444 37.9553 93.1726 37.5977L93.1667 37.5918Z" fill="white"/>
<path d="M106.339 37.5918C105.467 37.2342 104.772 36.7081 104.252 36.0077C103.732 35.3073 103.457 34.465 103.428 33.4809H107.326C107.382 34.0365 107.574 34.4621 107.905 34.7547C108.233 35.0472 108.661 35.195 109.19 35.195C109.719 35.195 110.16 35.0709 110.476 34.8197C110.789 34.5714 110.946 34.2227 110.946 33.7824C110.946 33.41 110.822 33.1056 110.571 32.8603C110.319 32.618 110.015 32.417 109.649 32.2604C109.285 32.1037 108.768 31.9264 108.097 31.7255C107.125 31.427 106.333 31.1255 105.721 30.827C105.106 30.5285 104.577 30.0852 104.137 29.5001C103.694 28.9149 103.472 28.1525 103.472 27.2097C103.472 25.8118 103.977 24.7154 104.991 23.9234C106.005 23.1314 107.326 22.7354 108.954 22.7354C110.582 22.7354 111.945 23.1314 112.958 23.9234C113.972 24.7154 114.513 25.8178 114.587 27.2334H110.624C110.594 26.7487 110.417 26.3645 110.089 26.0867C109.761 25.8089 109.338 25.67 108.824 25.67C108.381 25.67 108.023 25.7882 107.754 26.0246C107.482 26.2611 107.346 26.6009 107.346 27.0413C107.346 27.5259 107.574 27.9042 108.032 28.1761C108.49 28.448 109.202 28.7406 110.175 29.0538C111.144 29.3819 111.933 29.6951 112.542 29.9966C113.148 30.2951 113.674 30.7325 114.117 31.3028C114.56 31.8732 114.782 32.6091 114.782 33.5075C114.782 34.4059 114.563 35.1418 114.129 35.8422C113.691 36.5426 113.062 37.0982 112.234 37.512C111.407 37.9257 110.429 38.1326 109.3 38.1326C108.171 38.1326 107.216 37.9553 106.344 37.5977L106.339 37.5918Z" fill="white"/>
<path d="M127.883 30.174C127.484 30.8951 126.869 31.4773 126.042 31.9206C125.214 32.3639 124.186 32.5856 122.959 32.5856H120.69V37.982H117.028V22.9482H122.959C124.159 22.9482 125.173 23.1551 126 23.5689C126.828 23.9826 127.448 24.553 127.862 25.283C128.276 26.01 128.483 26.8463 128.483 27.7891C128.483 28.6609 128.282 29.4559 127.883 30.177V30.174ZM124.242 29.1751C124.585 28.8471 124.756 28.3831 124.756 27.7832C124.756 27.1832 124.585 26.7192 124.242 26.3912C123.899 26.0632 123.379 25.8977 122.679 25.8977H120.687V29.6657H122.679C123.379 29.6657 123.899 29.5032 124.242 29.1722V29.1751Z" fill="white"/>
<path d="M133.61 37.1426C132.431 36.4865 131.497 35.5674 130.806 34.3912C130.114 33.212 129.765 31.888 129.765 30.4193C129.765 28.9505 130.111 27.6294 130.806 26.4562C131.497 25.2858 132.434 24.3727 133.61 23.7136C134.789 23.0575 136.084 22.7295 137.497 22.7295C138.909 22.7295 140.207 23.0575 141.383 23.7136C142.562 24.3697 143.49 25.2829 144.167 26.4562C144.844 27.6265 145.183 28.9475 145.183 30.4193C145.183 31.891 144.841 33.215 144.155 34.3912C143.469 35.5704 142.541 36.4865 141.371 37.1426C140.201 37.7987 138.909 38.1267 137.494 38.1267C136.078 38.1267 134.784 37.7987 133.607 37.1426H133.61ZM140.378 33.5874C141.099 32.7894 141.46 31.7314 141.46 30.4163C141.46 29.1012 141.099 28.0284 140.378 27.2364C139.657 26.4443 138.696 26.0483 137.497 26.0483C136.297 26.0483 135.316 26.4414 134.594 27.2275C133.873 28.0136 133.513 29.0775 133.513 30.4193C133.513 31.761 133.873 32.8072 134.594 33.5992C135.316 34.3912 136.282 34.7872 137.497 34.7872C138.711 34.7872 139.657 34.3883 140.378 33.5874Z" fill="white"/>
<path d="M154.889 37.9791L151.762 32.3048H150.884V37.9791H147.223V22.9453H153.37C154.555 22.9453 155.565 23.1522 156.399 23.5659C157.235 23.9797 157.859 24.5471 158.272 25.2682C158.686 25.9893 158.893 26.7931 158.893 27.6768C158.893 28.6757 158.612 29.5682 158.048 30.3543C157.483 31.1404 156.653 31.696 155.554 32.0241L159.023 37.9791H154.889ZM150.884 29.713H153.154C153.825 29.713 154.327 29.5505 154.664 29.2195C154.998 28.8914 155.166 28.4274 155.166 27.8275C155.166 27.2276 154.998 26.8079 154.664 26.4769C154.327 26.1489 153.825 25.9834 153.154 25.9834H150.884V29.7101V29.713Z" fill="white"/>
<path d="M172 22.9453V25.88H168.016V37.9791H164.355V25.88H160.371V22.9453H172Z" fill="white"/>
<path d="M63.6193 46.4931C63.2765 46.4931 62.9721 46.4369 62.712 46.3305C62.449 46.2212 62.2451 46.0645 62.0973 45.8606C61.9496 45.6567 61.8757 45.4144 61.8757 45.1307C61.8757 44.8144 61.9525 44.5603 62.1062 44.3652C62.2599 44.1702 62.452 44.0372 62.6825 43.9603V43.9338C62.4815 43.8303 62.316 43.6973 62.1801 43.5259C62.0441 43.3575 61.9791 43.1358 61.9791 42.861C61.9791 42.5861 62.05 42.3379 62.1919 42.1458C62.3337 41.9537 62.5318 41.803 62.7918 41.7025C63.0489 41.602 63.3504 41.5518 63.6932 41.5518C64.036 41.5518 64.3286 41.605 64.5857 41.7113C64.8428 41.8177 65.0467 41.9685 65.1945 42.1665C65.3423 42.3645 65.4162 42.595 65.4162 42.858V42.9555H64.9167V42.8935C64.9078 42.6807 64.8487 42.5063 64.7394 42.3763C64.63 42.2463 64.4852 42.1458 64.302 42.0837C64.1188 42.0217 63.9119 41.9891 63.6784 41.9891C63.5336 41.9891 63.3918 42.0039 63.2499 42.0335C63.108 42.063 62.981 42.1133 62.8657 42.1783C62.7534 42.2463 62.6618 42.3349 62.5938 42.4502C62.5258 42.5625 62.4933 42.7014 62.4933 42.8639C62.4933 43.0678 62.5436 43.2392 62.6441 43.3752C62.7445 43.5111 62.8746 43.6116 63.0401 43.6737C63.2056 43.7357 63.3799 43.7683 63.5661 43.7683H63.9828V44.185H63.5809C63.3799 44.185 63.1908 44.2116 63.0105 44.2618C62.8302 44.312 62.6825 44.4036 62.5672 44.5366C62.452 44.6696 62.3958 44.8558 62.3958 45.0981C62.3958 45.3257 62.449 45.5089 62.5584 45.6478C62.6677 45.7867 62.8184 45.8902 63.0135 45.9552C63.2085 46.0202 63.4302 46.0527 63.6814 46.0527C63.9592 46.0527 64.1897 46.0173 64.37 45.9493C64.5502 45.8784 64.6862 45.7749 64.7778 45.6331C64.8694 45.4912 64.9137 45.3139 64.9137 45.1011V43.7712H65.9865V44.2027H65.4162V45.0804C65.4162 45.3907 65.3482 45.6508 65.2152 45.8606C65.0792 46.0704 64.8812 46.2271 64.6123 46.3335C64.3463 46.4399 64.0153 46.4931 63.6223 46.4931H63.6193Z" fill="white"/>
<path d="M70.987 46.4105L69.1842 41.6377H69.7753L71.049 45.06C71.0756 45.1338 71.1081 45.2196 71.1406 45.3141C71.1731 45.4087 71.2056 45.5003 71.2382 45.5919C71.2707 45.6835 71.2973 45.7663 71.3209 45.8402H71.3682C71.3918 45.7692 71.4184 45.6894 71.4509 45.6008C71.4834 45.5092 71.516 45.4176 71.5485 45.323C71.581 45.2284 71.6105 45.1427 71.6401 45.0688L72.899 41.6377H73.4753L71.6667 46.4105H70.984H70.987Z" fill="white"/>
<path d="M74.8762 46.4105V41.6377H75.4259V46.4105H74.8762Z" fill="white"/>
<path d="M79.12 46.493C78.8658 46.493 78.6176 46.4694 78.3753 46.4221C78.1329 46.3748 77.9201 46.298 77.734 46.1857C77.5478 46.0734 77.403 45.9285 77.2966 45.7483C77.1902 45.568 77.137 45.3434 77.137 45.0745V45.0094C77.137 44.9888 77.137 44.9681 77.1429 44.9444H77.6926C77.6926 44.9622 77.6926 44.9888 77.6896 45.0213C77.6867 45.0538 77.6867 45.0804 77.6867 45.104C77.6867 45.3079 77.7487 45.4793 77.8699 45.6153C77.994 45.7512 78.1595 45.8547 78.3693 45.9226C78.5792 45.9906 78.8186 46.0231 79.0816 46.0231C79.1702 46.0231 79.2737 46.0172 79.3978 46.0054C79.5219 45.9936 79.646 45.9699 79.7731 45.9345C79.9002 45.899 80.0184 45.8517 80.1248 45.7896C80.2312 45.7276 80.3169 45.6448 80.3849 45.5473C80.4529 45.4468 80.4854 45.3227 80.4854 45.1749C80.4854 45.0035 80.4381 44.8617 80.3465 44.7494C80.2548 44.6371 80.1307 44.5455 79.98 44.4745C79.8293 44.4036 79.6579 44.3386 79.4628 44.2824C79.2678 44.2263 79.0698 44.1731 78.8658 44.1228C78.6619 44.0726 78.4639 44.0135 78.2718 43.9485C78.0797 43.8835 77.9083 43.8037 77.7546 43.7061C77.601 43.6086 77.4798 43.4874 77.3911 43.3426C77.2995 43.1978 77.2552 43.0175 77.2552 42.8048C77.2552 42.6186 77.2936 42.4501 77.3675 42.2964C77.4414 42.1428 77.5537 42.0127 77.7074 41.9034C77.861 41.794 78.0561 41.7113 78.2925 41.6492C78.5289 41.5901 78.8097 41.5576 79.1348 41.5576C79.3801 41.5576 79.6106 41.5842 79.8234 41.6345C80.0362 41.6847 80.2253 41.7645 80.3878 41.8738C80.5504 41.9832 80.6775 42.1191 80.7661 42.2846C80.8548 42.4501 80.9021 42.6481 80.9021 42.8786V42.9614H80.3583V42.8432C80.3583 42.6718 80.3051 42.527 80.1987 42.4088C80.0923 42.2905 79.9504 42.1989 79.7702 42.131C79.5929 42.063 79.3889 42.0305 79.1614 42.0305C78.8511 42.0305 78.5939 42.063 78.3959 42.125C78.195 42.1871 78.0472 42.2728 77.9497 42.3822C77.8522 42.4915 77.8049 42.6127 77.8049 42.7486C77.8049 42.9052 77.8522 43.0382 77.9438 43.1417C78.0354 43.2451 78.1595 43.3308 78.3132 43.3988C78.4669 43.4668 78.6383 43.5259 78.8304 43.5791C79.0225 43.6323 79.2205 43.6855 79.4244 43.7357C79.6283 43.7859 79.8263 43.845 80.0184 43.913C80.2105 43.981 80.3849 44.0637 80.5415 44.1642C80.6981 44.2647 80.8193 44.3888 80.9109 44.5366C81.0025 44.6844 81.0469 44.8676 81.0469 45.0863C81.0469 45.4143 80.9641 45.6833 80.7986 45.8931C80.6331 46.1029 80.4085 46.2536 80.1189 46.3512C79.8322 46.4487 79.4983 46.496 79.117 46.496L79.12 46.493Z" fill="white"/>
<path d="M82.1965 46.4105L84.0968 41.6377H84.8356L86.7418 46.4105H86.1507L85.6513 45.1516H83.2575L82.7639 46.4105H82.1995H82.1965ZM83.4407 44.6758H85.4592L84.8326 43.0828C84.8179 43.0444 84.7972 42.9912 84.7706 42.9144C84.744 42.8405 84.7115 42.7548 84.676 42.6602C84.6406 42.5657 84.6051 42.4681 84.5726 42.3706C84.5371 42.2731 84.5046 42.1844 84.4721 42.1076H84.4248C84.3982 42.1963 84.3598 42.2997 84.3184 42.4209C84.2741 42.542 84.2298 42.6602 84.1854 42.7785C84.1411 42.8967 84.1027 42.9971 84.0702 43.0799L83.4437 44.6728L83.4407 44.6758Z" fill="white"/>
<path d="M90.3089 46.4105V41.6377H93.9617V42.1105H90.8586V43.7242H93.6543V44.2029H90.8586V45.9347H94.003V46.4076H90.3089V46.4105Z" fill="white"/>
<path d="M95.1792 46.4105L97.1061 43.9133L95.3536 41.6377H96.0274L97.446 43.4966H97.4814L98.8734 41.6377H99.5206L97.8036 43.9074L99.7304 46.4105H99.0566L97.4637 44.3241H97.4283L95.8353 46.4105H95.1822H95.1792Z" fill="white"/>
<path d="M101.134 46.4105V41.6377H103.472C103.797 41.6377 104.063 41.6998 104.276 41.8209C104.486 41.945 104.645 42.1105 104.749 42.3263C104.852 42.5391 104.905 42.7844 104.905 43.0563C104.905 43.3281 104.846 43.5912 104.725 43.8128C104.604 44.0345 104.438 44.2088 104.223 44.33C104.01 44.4541 103.764 44.5132 103.484 44.5132H101.681V46.4046H101.131L101.134 46.4105ZM101.684 44.0433H103.445C103.714 44.0433 103.933 43.9576 104.098 43.7833C104.264 43.6089 104.35 43.3695 104.35 43.0622C104.35 42.8642 104.317 42.6927 104.249 42.5509C104.181 42.409 104.081 42.2997 103.948 42.2228C103.812 42.146 103.646 42.1076 103.448 42.1076H101.687V44.0404L101.684 44.0433Z" fill="white"/>
<path d="M106.442 46.4105V41.6377H110.095V42.1105H106.992V43.7242H109.787V44.2029H106.992V45.9347H110.136V46.4076H106.442V46.4105Z" fill="white"/>
<path d="M111.862 46.4105V41.6377H113.579C114.09 41.6377 114.522 41.7204 114.876 41.8859C115.231 42.0514 115.503 42.3086 115.689 42.6573C115.875 43.009 115.97 43.4641 115.97 44.0256C115.97 44.5871 115.875 45.0304 115.689 45.3821C115.5 45.7338 115.231 45.9938 114.876 46.1623C114.522 46.3308 114.09 46.4135 113.579 46.4135H111.862V46.4105ZM112.412 45.9377H113.558C113.842 45.9377 114.096 45.9052 114.324 45.8372C114.551 45.7692 114.746 45.6629 114.909 45.518C115.072 45.3732 115.196 45.1841 115.278 44.9506C115.361 44.7171 115.403 44.4393 115.403 44.1083V43.9635C115.403 43.6237 115.361 43.34 115.278 43.1035C115.196 42.8701 115.074 42.678 114.915 42.5332C114.755 42.3883 114.56 42.282 114.333 42.214C114.105 42.146 113.848 42.1135 113.561 42.1135H112.415V45.9406L112.412 45.9377Z" fill="white"/>
<path d="M117.684 46.4105V41.6377H118.234V46.4105H117.684Z" fill="white"/>
<path d="M121.358 46.4105V42.1165H119.667V41.6377H123.612V42.1165H121.907V46.4105H121.358Z" fill="white"/>
<path d="M125.052 46.4105V41.6377H128.704V42.1105H125.601V43.7242H128.397V44.2029H125.601V45.9347H128.746V46.4076H125.052V46.4105Z" fill="white"/>
<path d="M134.396 46.493C134.142 46.493 133.894 46.4694 133.652 46.4221C133.409 46.3748 133.197 46.298 133.01 46.1857C132.824 46.0734 132.679 45.9285 132.573 45.7483C132.467 45.568 132.413 45.3434 132.413 45.0745V45.0094C132.413 44.9888 132.413 44.9681 132.419 44.9444H132.969C132.969 44.9622 132.969 44.9888 132.966 45.0213C132.963 45.0538 132.963 45.0804 132.963 45.104C132.963 45.3079 133.025 45.4793 133.146 45.6153C133.27 45.7512 133.436 45.8547 133.646 45.9226C133.856 45.9906 134.095 46.0231 134.358 46.0231C134.447 46.0231 134.55 46.0172 134.674 46.0054C134.798 45.9936 134.922 45.9699 135.05 45.9345C135.177 45.899 135.295 45.8517 135.401 45.7896C135.508 45.7276 135.593 45.6448 135.661 45.5473C135.729 45.4468 135.762 45.3227 135.762 45.1749C135.762 45.0035 135.714 44.8617 135.623 44.7494C135.531 44.6371 135.407 44.5455 135.256 44.4745C135.106 44.4036 134.934 44.3386 134.739 44.2824C134.544 44.2263 134.346 44.1731 134.142 44.1228C133.938 44.0726 133.74 44.0135 133.548 43.9485C133.356 43.8835 133.185 43.8037 133.031 43.7061C132.877 43.6086 132.756 43.4874 132.668 43.3426C132.576 43.1978 132.532 43.0175 132.532 42.8048C132.532 42.6186 132.57 42.4501 132.644 42.2964C132.718 42.1428 132.83 42.0127 132.984 41.9034C133.137 41.794 133.332 41.7113 133.569 41.6492C133.805 41.5901 134.086 41.5576 134.411 41.5576C134.656 41.5576 134.887 41.5842 135.1 41.6345C135.313 41.6847 135.502 41.7645 135.664 41.8738C135.827 41.9832 135.954 42.1191 136.043 42.2846C136.134 42.4501 136.178 42.6481 136.178 42.8786V42.9614H135.635V42.8432C135.635 42.6718 135.582 42.527 135.475 42.4088C135.369 42.2905 135.227 42.1989 135.047 42.131C134.869 42.063 134.665 42.0305 134.438 42.0305C134.127 42.0305 133.87 42.063 133.672 42.125C133.471 42.1871 133.324 42.2728 133.226 42.3822C133.129 42.4915 133.081 42.6127 133.081 42.7486C133.081 42.9052 133.129 43.0382 133.22 43.1417C133.312 43.2451 133.436 43.3308 133.59 43.3988C133.743 43.4668 133.915 43.5259 134.107 43.5791C134.299 43.6323 134.497 43.6855 134.701 43.7357C134.905 43.7859 135.103 43.845 135.295 43.913C135.487 43.981 135.661 44.0637 135.818 44.1642C135.975 44.2647 136.096 44.3888 136.187 44.5366C136.279 44.6844 136.323 44.8676 136.323 45.0863C136.323 45.4143 136.241 45.6833 136.075 45.8931C135.91 46.1029 135.685 46.2536 135.395 46.3512C135.109 46.4487 134.775 46.496 134.393 46.496L134.396 46.493Z" fill="white"/>
<path d="M138.049 46.4105V41.6377H141.702V42.1105H138.599V43.7242H141.395V44.2029H138.599V45.9347H141.743V46.4076H138.049V46.4105Z" fill="white"/>
<path d="M143.469 46.4105V41.6377H145.975C146.292 41.6377 146.552 41.6968 146.759 41.815C146.965 41.9332 147.119 42.0958 147.225 42.2997C147.329 42.5036 147.382 42.7341 147.382 42.9942C147.382 43.3341 147.305 43.6178 147.149 43.8542C146.992 44.0877 146.788 44.2532 146.534 44.3507L147.551 46.4105H146.945L145.99 44.4482H144.022V46.4105H143.472H143.469ZM144.019 43.9754H145.919C146.203 43.9754 146.425 43.8897 146.587 43.7153C146.75 43.5409 146.829 43.3015 146.829 42.9942C146.829 42.808 146.794 42.6514 146.726 42.5213C146.658 42.3913 146.555 42.2908 146.419 42.2199C146.283 42.149 146.117 42.1135 145.919 42.1135H144.019V43.9783V43.9754Z" fill="white"/>
<path d="M150.426 46.4105L148.623 41.6377H149.214L150.488 45.06C150.515 45.1338 150.547 45.2196 150.58 45.3141C150.612 45.4087 150.645 45.5003 150.677 45.5919C150.71 45.6835 150.736 45.7663 150.76 45.8402H150.807C150.831 45.7692 150.858 45.6894 150.89 45.6008C150.923 45.5092 150.955 45.4176 150.988 45.323C151.02 45.2284 151.05 45.1427 151.079 45.0688L152.338 41.6377H152.914L151.106 46.4105H150.423H150.426Z" fill="white"/>
<path d="M154.315 46.4105V41.6377H154.865V46.4105H154.315Z" fill="white"/>
<path d="M158.822 46.493C158.335 46.493 157.924 46.4014 157.587 46.2211C157.25 46.0409 156.996 45.766 156.821 45.3996C156.647 45.0331 156.561 44.575 156.561 44.0224C156.561 43.1979 156.762 42.5802 157.161 42.1694C157.56 41.7586 158.119 41.5547 158.837 41.5547C159.251 41.5547 159.614 41.6197 159.925 41.7527C160.238 41.8857 160.483 42.0837 160.663 42.3438C160.841 42.6068 160.932 42.9378 160.932 43.3427H160.377C160.377 43.0412 160.315 42.793 160.188 42.6009C160.06 42.4088 159.886 42.264 159.656 42.1694C159.425 42.0748 159.15 42.0275 158.831 42.0275C158.488 42.0275 158.19 42.0955 157.933 42.2285C157.678 42.3644 157.48 42.5743 157.342 42.858C157.203 43.1447 157.132 43.517 157.132 43.9751V44.1199C157.132 44.5691 157.203 44.9326 157.342 45.2134C157.48 45.4912 157.678 45.6951 157.933 45.8251C158.187 45.9552 158.488 46.0202 158.837 46.0202C159.156 46.0202 159.434 45.9729 159.664 45.8783C159.895 45.7838 160.075 45.6389 160.199 45.4469C160.324 45.2548 160.389 45.0065 160.389 44.7051H160.932C160.932 45.1129 160.841 45.4498 160.657 45.7128C160.474 45.9759 160.226 46.1739 159.91 46.3009C159.594 46.428 159.233 46.493 158.825 46.493H158.822Z" fill="white"/>
<path d="M162.608 46.4105V41.6377H166.261V42.1105H163.158V43.7242H165.953V44.2029H163.158V45.9347H166.302V46.4076H162.608V46.4105Z" fill="white"/>
<path d="M169.769 46.493C169.515 46.493 169.266 46.4694 169.024 46.4221C168.782 46.3748 168.569 46.298 168.383 46.1857C168.197 46.0734 168.052 45.9285 167.945 45.7483C167.839 45.568 167.786 45.3434 167.786 45.0745V45.0094C167.786 44.9888 167.786 44.9681 167.792 44.9444H168.341C168.341 44.9622 168.341 44.9888 168.338 45.0213C168.335 45.0538 168.335 45.0804 168.335 45.104C168.335 45.3079 168.397 45.4793 168.519 45.6153C168.643 45.7512 168.808 45.8547 169.018 45.9226C169.228 45.9906 169.467 46.0231 169.73 46.0231C169.819 46.0231 169.922 46.0172 170.047 46.0054C170.171 45.9936 170.295 45.9699 170.422 45.9345C170.549 45.899 170.667 45.8517 170.774 45.7896C170.88 45.7276 170.966 45.6448 171.034 45.5473C171.102 45.4468 171.134 45.3227 171.134 45.1749C171.134 45.0035 171.087 44.8617 170.995 44.7494C170.904 44.6371 170.779 44.5455 170.629 44.4745C170.478 44.4036 170.307 44.3386 170.112 44.2824C169.916 44.2263 169.718 44.1731 169.515 44.1228C169.311 44.0726 169.113 44.0135 168.921 43.9485C168.728 43.8835 168.557 43.8037 168.403 43.7061C168.25 43.6086 168.129 43.4874 168.04 43.3426C167.948 43.1978 167.904 43.0175 167.904 42.8048C167.904 42.6186 167.942 42.4501 168.016 42.2964C168.09 42.1428 168.202 42.0127 168.356 41.9034C168.51 41.794 168.705 41.7113 168.941 41.6492C169.178 41.5901 169.458 41.5576 169.784 41.5576C170.029 41.5576 170.259 41.5842 170.472 41.6345C170.685 41.6847 170.874 41.7645 171.037 41.8738C171.199 41.9832 171.326 42.1191 171.415 42.2846C171.504 42.4501 171.551 42.6481 171.551 42.8786V42.9614H171.007V42.8432C171.007 42.6718 170.954 42.527 170.847 42.4088C170.741 42.2905 170.599 42.1989 170.419 42.131C170.242 42.063 170.038 42.0305 169.81 42.0305C169.5 42.0305 169.243 42.063 169.045 42.125C168.844 42.1871 168.696 42.2728 168.598 42.3822C168.501 42.4915 168.454 42.6127 168.454 42.7486C168.454 42.9052 168.501 43.0382 168.593 43.1417C168.684 43.2451 168.808 43.3308 168.962 43.3988C169.116 43.4668 169.287 43.5259 169.479 43.5791C169.671 43.6323 169.869 43.6855 170.073 43.7357C170.277 43.7859 170.475 43.845 170.667 43.913C170.859 43.981 171.034 44.0637 171.19 44.1642C171.347 44.2647 171.468 44.3888 171.56 44.5366C171.651 44.6844 171.696 44.8676 171.696 45.0863C171.696 45.4143 171.613 45.6833 171.447 45.8931C171.282 46.1029 171.057 46.2536 170.768 46.3512C170.481 46.4487 170.147 46.496 169.766 46.496L169.769 46.493Z" fill="white"/>
<path d="M62.517 7.7933C63.1701 6.61117 64.0803 5.68911 65.2477 5.03007C66.415 4.37104 67.739 4.04004 69.2197 4.04004C71.0313 4.04004 72.5858 4.5188 73.8772 5.47633C75.1687 6.43385 76.0317 7.74011 76.4661 9.39214H72.3759C72.0715 8.75378 71.6401 8.26911 71.0815 7.93516C70.523 7.60121 69.8876 7.43571 69.1783 7.43571C68.0316 7.43571 67.1036 7.83468 66.3944 8.63262C65.6821 9.43055 65.3275 10.4974 65.3275 11.8303C65.3275 13.1631 65.6821 14.23 66.3944 15.0279C67.1036 15.8259 68.0346 16.2249 69.1783 16.2249C69.8905 16.2249 70.523 16.0594 71.0815 15.7254C71.6401 15.3914 72.0715 14.9068 72.3759 14.2684H76.4661C76.0317 15.9234 75.1687 17.2238 73.8772 18.1754C72.5858 19.127 71.0342 19.5998 69.2197 19.5998C67.739 19.5998 66.415 19.2688 65.2477 18.6098C64.0803 17.9508 63.1701 17.0317 62.517 15.8584C61.8638 14.6822 61.5388 13.3405 61.5388 11.8332C61.5388 10.326 61.8638 8.97839 62.517 7.79626V7.7933Z" fill="white"/>
<path d="M93.0632 4.21436V19.4875H89.3425V13.1985H83.5559V19.4875H79.8352V4.21436H83.5559V10.1989H89.3425V4.21436H93.0632Z" fill="white"/>
<path d="M100.549 4.21436V19.4875H96.8283V4.21436H100.549Z" fill="white"/>
<path d="M104.684 7.7933C105.337 6.61117 106.247 5.68911 107.414 5.03007C108.582 4.37104 109.906 4.04004 111.386 4.04004C113.198 4.04004 114.752 4.5188 116.044 5.47633C117.335 6.43385 118.198 7.74011 118.633 9.39214H114.543C114.238 8.75378 113.807 8.26911 113.248 7.93516C112.69 7.60121 112.054 7.43571 111.345 7.43571C110.198 7.43571 109.27 7.83468 108.561 8.63262C107.849 9.43055 107.494 10.4974 107.494 11.8303C107.494 13.1631 107.849 14.23 108.561 15.0279C109.27 15.8259 110.201 16.2249 111.345 16.2249C112.057 16.2249 112.69 16.0594 113.248 15.7254C113.807 15.3914 114.238 14.9068 114.543 14.2684H118.633C118.198 15.9234 117.335 17.2238 116.044 18.1754C114.752 19.127 113.201 19.5998 111.386 19.5998C109.906 19.5998 108.582 19.2688 107.414 18.6098C106.247 17.9508 105.337 17.0317 104.684 15.8584C104.03 14.6822 103.705 13.3405 103.705 11.8332C103.705 10.326 104.03 8.97839 104.684 7.79626V7.7933Z" fill="white"/>
<path d="M131.512 16.7893H125.811L124.898 19.4875H121.003L126.529 4.21436H130.838L136.365 19.4875H132.425L131.512 16.7893ZM130.555 13.9196L128.66 8.32817L126.789 13.9196H130.555Z" fill="white"/>
<path d="M149.265 9.04346C148.99 8.53514 148.594 8.14799 148.08 7.87906C147.565 7.61012 146.96 7.47713 146.262 7.47713C145.059 7.47713 144.093 7.87315 143.369 8.66222C142.645 9.45425 142.281 10.5093 142.281 11.8274C142.281 13.2341 142.662 14.3335 143.425 15.1226C144.187 15.9146 145.234 16.3076 146.569 16.3076C147.483 16.3076 148.257 16.0771 148.886 15.6102C149.516 15.1462 149.977 14.4783 150.267 13.6094H145.544V10.8669H153.639V14.3276C153.364 15.2556 152.894 16.1185 152.235 16.9164C151.576 17.7144 150.736 18.3586 149.723 18.8522C148.706 19.3457 147.562 19.591 146.286 19.591C144.776 19.591 143.431 19.26 142.249 18.601C141.067 17.9419 140.145 17.0228 139.486 15.8496C138.826 14.6734 138.495 13.3316 138.495 11.8244C138.495 10.3172 138.826 8.96957 139.486 7.78744C140.145 6.60531 141.064 5.68325 142.237 5.02421C143.413 4.36518 144.755 4.03418 146.262 4.03418C148.088 4.03418 149.631 4.47748 150.887 5.36112C152.14 6.24476 152.974 7.47122 153.378 9.03755H149.265V9.04346Z" fill="white"/>
<path d="M160.069 18.6392C158.872 17.9713 157.924 17.0404 157.217 15.8435C156.514 14.6466 156.162 13.3019 156.162 11.8065C156.162 10.3111 156.514 8.96942 157.217 7.78138C157.921 6.59334 158.872 5.66241 160.069 4.99746C161.266 4.32956 162.581 3.99561 164.018 3.99561C165.454 3.99561 166.769 4.32956 167.966 4.99746C169.163 5.66536 170.106 6.59334 170.794 7.78138C171.483 8.96942 171.829 10.3141 171.829 11.8065C171.829 13.299 171.48 14.6466 170.785 15.8435C170.088 17.0404 169.145 17.9713 167.957 18.6392C166.766 19.3072 165.454 19.6411 164.018 19.6411C162.581 19.6411 161.266 19.3072 160.069 18.6392ZM166.943 15.0278C167.676 14.2151 168.043 13.1423 168.043 11.8065C168.043 10.4707 167.676 9.38021 166.943 8.57636C166.211 7.77251 165.235 7.36763 164.018 7.36763C162.8 7.36763 161.801 7.7666 161.068 8.56454C160.335 9.36248 159.969 10.4441 159.969 11.8065C159.969 13.1689 160.335 14.2329 161.068 15.0367C161.801 15.8406 162.782 16.2454 164.018 16.2454C165.253 16.2454 166.211 15.8406 166.943 15.0278Z" fill="white"/>
</g>
<defs>
<clipPath id="clip0_517_566">
<rect width="172" height="59.7981" fill="white"/>
</clipPath>
</defs>
</svg>
