<svg width="55" height="60" viewBox="0 0 55 60" fill="none" xmlns="http://www.w3.org/2000/svg">
<path d="M54.3484 32.228C54.3484 42.7312 45.8371 51.2425 35.3339 51.2425H12.1937L14.7234 43.2986L24.3016 13.2134H35.3339C37.9434 13.2134 40.4289 13.7394 42.6897 14.6881C44.983 15.6515 47.0458 17.0494 48.7777 18.7812C52.2177 22.2212 54.3484 26.9763 54.3484 32.225V32.228Z" fill="#BE1E2D"/>
<path d="M21.2813 59.7979L24.0061 51.2422H12.1523L9.42749 59.7979H21.2813Z" fill="#BE1E2D"/>
<path opacity="0.15" d="M33.1617 44.6137L42.6897 14.6881C40.4289 13.7365 37.9434 13.2134 35.3339 13.2134H24.3016L14.3038 44.6137H33.1617Z" fill="black"/>
<path d="M42.1548 0H19.0146C8.51429 0 0 8.51429 0 19.0146C0 29.5148 8.51429 38.0291 19.0146 38.0291H30.0468L42.1548 0Z" fill="white"/>
</svg>
