<svg width="24" height="24" viewBox="0 0 24 24" fill="none" xmlns="http://www.w3.org/2000/svg">
<mask id="mask0_517_217" style="mask-type:luminance" maskUnits="userSpaceOnUse" x="0" y="0" width="24" height="24">
<path d="M23.3105 23.311V0.0229492H0.0224609V23.311H23.3105Z" fill="white" stroke="white" stroke-width="0.045573"/>
</mask>
<g mask="url(#mask0_517_217)">
<path d="M22.4217 11.6681C22.4194 12.6272 22.4085 13.5864 22.3954 14.5455C22.3795 15.7027 22.3617 16.8603 22.0715 17.9976C21.7672 19.1903 21.167 20.2188 20.2332 20.9803C19.2492 21.7828 18.0598 22.2046 16.7761 22.2826C15.0735 22.3862 13.3702 22.4271 11.6669 22.4231C9.96354 22.4271 8.26021 22.3862 6.55765 22.2826C5.27395 22.2046 4.08458 21.7828 3.10057 20.9803C2.16678 20.2188 1.56658 19.1903 1.26225 17.9976C0.972038 16.8603 0.954174 15.7027 0.93836 14.5455C0.925235 13.5864 0.914342 12.6272 0.912109 11.6681C0.914342 10.709 0.925235 9.74981 0.93836 8.79073C0.954174 7.63359 0.972038 6.47594 1.26225 5.33862C1.56658 4.14598 2.16678 3.11739 3.10057 2.35591C4.08458 1.55347 5.27395 1.13169 6.55765 1.05362C8.26021 0.950078 9.96354 0.909153 11.6669 0.913163C13.3702 0.909153 15.0735 0.950078 16.7761 1.05362C18.0598 1.13169 19.2492 1.55347 20.2332 2.35591C21.167 3.11739 21.7672 4.14598 22.0715 5.33862C22.3617 6.47594 22.3795 7.63359 22.3954 8.79073C22.4085 9.74981 22.4194 10.709 22.4217 11.6681Z" stroke="white" stroke-width="1.82292" stroke-miterlimit="10"/>
<path d="M16.4063 11.6694C16.4063 14.3122 14.2639 16.4546 11.6211 16.4546C8.97832 16.4546 6.83594 14.3122 6.83594 11.6694C6.83594 9.02665 8.97832 6.88426 11.6211 6.88426C14.2639 6.88426 16.4063 9.02665 16.4063 11.6694Z" stroke="white" stroke-width="1.82292" stroke-miterlimit="10"/>
<path d="M17.9551 6.86182C18.6975 6.86182 19.2998 6.25956 19.2998 5.51709C19.2998 4.77462 18.6975 4.17236 17.9551 4.17236C17.2126 4.17236 16.6104 4.77462 16.6104 5.51709C16.6104 6.25956 17.2126 6.86182 17.9551 6.86182Z" fill="white" stroke="white" stroke-width="0.045573"/>
</g>
</svg>
