<svg width="16" height="16" viewBox="0 0 16 16" fill="none" xmlns="http://www.w3.org/2000/svg">
<path d="M16.0005 16.0008V10.0015C16.0005 7.05307 15.3929 4.80078 12.1001 4.80078C10.5124 4.80078 9.45404 5.7017 9.02283 6.56166H8.98363V5.06696H5.86719V16.0008H9.12083V10.5748C9.12083 9.14155 9.37563 7.7697 11.0613 7.7697C12.7273 7.7697 12.7469 9.38725 12.7469 10.6567V15.9803H16.0005V16.0008Z" fill="white"/>
<path d="M0 5.33203H3.73333V15.9987H0V5.33203Z" fill="white"/>
<path d="M1.86667 0C0.836111 0 0 0.831779 0 1.85699C0 2.88221 0.836111 3.73333 1.86667 3.73333C2.89722 3.73333 3.73333 2.88221 3.73333 1.85699C3.73333 0.831779 2.89722 0 1.86667 0Z" fill="white"/>
</svg>
