<svg width="14" height="18" viewBox="0 0 14 18" fill="none" xmlns="http://www.w3.org/2000/svg">
<path d="M7 0C5.14424 0.00237379 3.36519 0.714294 2.05297 1.97965C0.74075 3.245 0.00246171 4.96051 0 6.74999C0 11.5959 6.52167 17.6653 6.79875 17.9212C6.85265 17.9717 6.92484 18 7 18C7.07516 18 7.14735 17.9717 7.20125 17.9212C7.47833 17.6653 14 11.5959 14 6.74999C13.9975 4.96051 13.2592 3.245 11.947 1.97965C10.6348 0.714294 8.85576 0.00237379 7 0ZM7 9.84374C6.36545 9.84374 5.74515 9.66229 5.21755 9.32235C4.68994 8.9824 4.27872 8.49923 4.03589 7.93392C3.79306 7.36861 3.72952 6.74656 3.85331 6.14643C3.97711 5.5463 4.28267 4.99505 4.73137 4.56238C5.18006 4.12971 5.75173 3.83506 6.37408 3.71569C6.99644 3.59632 7.64153 3.65759 8.22778 3.89174C8.81402 4.1259 9.31509 4.52244 9.66763 5.0312C10.0202 5.53996 10.2083 6.13811 10.2083 6.74999C10.2078 7.57035 9.86964 8.35698 9.26807 8.93706C8.6665 9.51714 7.85075 9.84325 7 9.84374Z" fill="white"/>
</svg>
