<svg width="40" height="40" viewBox="0 0 40 40" fill="none" xmlns="http://www.w3.org/2000/svg">
<circle cx="20" cy="20" r="20" fill="#BE1E2D"/>
<path d="M20 9C15.5893 9 12 12.7272 12 17.3096C12 23.8207 19.248 30.5435 19.5564 30.8258C19.6836 30.9422 19.8418 31 20 31C20.1582 31 20.3164 30.9423 20.4436 30.8268C20.752 30.5435 28 23.8207 28 17.3096C28 12.7272 24.4107 9 20 9ZM20 21.8333C17.5493 21.8333 15.5556 19.7773 15.5556 17.25C15.5556 14.7228 17.5493 12.6667 20 12.6667C22.4507 12.6667 24.4444 14.7228 24.4444 17.25C24.4444 19.7773 22.4507 21.8333 20 21.8333Z" fill="white"/>
</svg>
