<svg width="18" height="18" viewBox="0 0 18 18" fill="none" xmlns="http://www.w3.org/2000/svg">
<path d="M17.1771 12.973L14.7103 10.5062C13.8293 9.62513 12.3315 9.97758 11.9791 11.1229C11.7148 11.9158 10.8338 12.3563 10.0409 12.1801C8.27885 11.7396 5.9001 9.44893 5.45959 7.59879C5.19529 6.80584 5.7239 5.92482 6.51682 5.66055C7.66214 5.30814 8.01455 3.81041 7.13353 2.92939L4.66668 0.462535C3.96186 -0.154178 2.90464 -0.154178 2.28792 0.462535L0.613988 2.13647C-1.05995 3.89851 0.790192 8.56791 4.93098 12.7087C9.07177 16.8495 13.7412 18.7878 15.5032 17.0257L17.1771 15.3518C17.7939 14.6469 17.7939 13.5897 17.1771 12.973Z" fill="white"/>
</svg>
