<svg width="40" height="40" viewBox="0 0 40 40" fill="none" xmlns="http://www.w3.org/2000/svg">
<circle cx="20" cy="20" r="20" fill="#BE1E2D"/>
<path d="M27.2296 23.5021L25.0424 21.315C24.2613 20.5338 22.9334 20.8463 22.6209 21.8617C22.3866 22.5648 21.6055 22.9554 20.9025 22.7991C19.3402 22.4085 17.2311 20.3776 16.8406 18.7372C16.6062 18.0342 17.0749 17.2531 17.7779 17.0188C18.7934 16.7063 19.1059 15.3784 18.3247 14.5973L16.1376 12.4101C15.5127 11.8633 14.5753 11.8633 14.0285 12.4101L12.5444 13.8942C11.0602 15.4565 12.7006 19.5965 16.3719 23.2678C20.0432 26.9391 24.1832 28.6576 25.7454 27.0953L27.2296 25.6112C27.7764 24.9863 27.7764 24.0489 27.2296 23.5021Z" fill="white"/>
</svg>
