<svg width="22" height="30" viewBox="0 0 22 30" fill="none" xmlns="http://www.w3.org/2000/svg">
<path fill-rule="evenodd" clip-rule="evenodd" d="M16.5357 12.9697H5.49575V9.31117C5.49575 7.77137 6.11493 6.37052 7.11646 5.35751C8.11805 4.34155 9.49626 3.71061 11.0143 3.71061C12.5323 3.71061 13.9134 4.34161 14.9121 5.35751C15.9136 6.37052 16.5357 7.77142 16.5357 9.31117V12.9697ZM21.241 13.7396C20.9499 13.4472 20.5933 13.2215 20.1938 13.0941V9.31117C20.1938 6.74966 19.1608 4.4197 17.4973 2.7323C15.8337 1.04489 13.5395 0 11.0143 0C8.489 0 6.1948 1.04489 4.53126 2.7323C2.86771 4.4197 1.83475 6.74966 1.83475 9.31117V13.0826C1.42387 13.2099 1.05576 13.4385 0.75902 13.7396C0.291071 14.2172 0 14.8713 0 15.5948V27.3748C0 28.0984 0.291071 28.7526 0.75902 29.2301C1.2298 29.7048 1.87475 30 2.58804 30H19.412C20.1253 30 20.7702 29.7048 21.241 29.2301C21.7089 28.7526 22 28.0984 22 27.3748V15.5948C22.0001 14.8712 21.709 14.2172 21.241 13.7396ZM9.20802 18.6339C9.6674 18.1708 10.3009 17.8814 11 17.8814C11.6991 17.8814 12.3325 18.1708 12.792 18.6339C13.2514 19.0999 13.5339 19.7425 13.5339 20.4516C13.5339 21.0044 13.3627 21.5138 13.0716 21.9335C12.829 22.2809 12.5037 22.5645 12.1242 22.7555V23.948C12.1242 24.2606 11.9987 24.5472 11.7932 24.7526C11.5906 24.9581 11.311 25.0884 10.9999 25.0884C10.6917 25.0884 10.4093 24.9581 10.2067 24.7526C10.0041 24.5472 9.87565 24.2606 9.87565 23.948V22.7555C9.49898 22.5645 9.1737 22.2809 8.93113 21.9335C8.63722 21.5139 8.46602 21.0044 8.46602 20.4516C8.46613 19.7424 8.75147 19.0999 9.20802 18.6339Z" fill="#1C1C1C"/>
</svg>
