<svg width="18" height="30" viewBox="0 0 18 30" fill="none" xmlns="http://www.w3.org/2000/svg">
<path d="M5.80569 29.9288C6.20254 30.0984 6.66397 29.9568 6.89577 29.5907L17.4426 12.8328C17.6134 12.5616 17.6238 12.2191 17.4692 11.9393C17.3147 11.6587 17.0195 11.4844 16.6993 11.4844H9.66034L12.2782 1.09522C12.3838 0.675512 12.17 0.242035 11.7726 0.0712346C11.3778 -0.0986874 10.9135 0.0437541 10.6826 0.409379L0.135686 17.1672C-0.0351152 17.4384 -0.0454278 17.7809 0.109084 18.0607C0.263596 18.3414 0.55885 18.5156 0.879006 18.5156H7.91799L5.30014 28.9048C5.19455 29.3246 5.40825 29.758 5.80569 29.9288Z" fill="#1C1C1C"/>
</svg>
