<svg width="116" height="18" viewBox="0 0 116 18" fill="none" xmlns="http://www.w3.org/2000/svg">
<path d="M9.16455 0L11.2221 6.21885H17.8806L12.4938 10.0623L14.5513 16.2812L9.16455 12.4377L3.77776 16.2812L5.83533 10.0623L0.448545 6.21885H7.10698L9.16455 0Z" fill="#BE1E2D"/>
<path d="M33.4936 0L35.5512 6.21885H42.2097L36.8229 10.0623L38.8804 16.2812L33.4936 12.4377L28.1069 16.2812L30.1644 10.0623L24.7776 6.21885H31.4361L33.4936 0Z" fill="#BE1E2D"/>
<path d="M57.8228 0L59.8803 6.21885H66.5388L61.152 10.0623L63.2095 16.2812L57.8228 12.4377L52.436 16.2812L54.4935 10.0623L49.1067 6.21885H55.7652L57.8228 0Z" fill="#BE1E2D"/>
<path d="M106.481 0L108.539 6.21885H115.197L109.81 10.0623L111.868 16.2812L106.481 12.4377L101.094 16.2812L103.152 10.0623L97.765 6.21885H104.423L106.481 0Z" fill="#BE1E2D"/>
<path d="M82.1519 0L84.2094 6.21885H90.8679L85.4811 10.0623L87.5386 16.2812L82.1519 12.4377L76.7651 16.2812L78.8226 10.0623L73.4358 6.21885H80.0943L82.1519 0Z" fill="#BE1E2D"/>
</svg>
