<svg width="31" height="31" viewBox="0 0 31 31" fill="none" xmlns="http://www.w3.org/2000/svg">
<circle cx="15.5" cy="15.5" r="15.5" fill="#14254D" fill-opacity="0.1"/>
<path d="M17.98 16.0004L21.6924 12.288C22.1025 11.8778 22.1025 11.2128 21.6924 10.8033L21.1975 10.3084C20.7872 9.8981 20.1222 9.8981 19.7126 10.3084L16.0004 14.0206L12.288 10.3076C11.8778 9.89746 11.2128 9.89746 10.8033 10.3076L10.3076 10.8025C9.89746 11.2128 9.89746 11.8778 10.3076 12.2874L14.0206 16.0004L10.3084 19.7126C9.8981 20.1229 9.8981 20.7879 10.3084 21.1975L10.8033 21.6924C11.2135 22.1025 11.8785 22.1025 12.288 21.6924L16.0004 17.98L19.7126 21.6924C20.1229 22.1025 20.7879 22.1025 21.1975 21.6924L21.6924 21.1975C22.1025 20.7872 22.1025 20.1222 21.6924 19.7126L17.98 16.0004Z" fill="#122241"/>
</svg>
