<svg width="376" height="257" viewBox="0 0 376 257" fill="none" xmlns="http://www.w3.org/2000/svg">
<path d="M295.706 93.0312L375.5 71.2874L299.794 50.6624C299.766 57.7372 298.989 64.7891 297.475 71.6999C297.144 45.6036 287.439 20.4967 270.131 0.962433C281.504 17.6835 287.568 37.4465 287.531 57.6687C287.531 113.031 243.094 157.912 188.287 157.912C133.481 157.912 89.0375 113.031 89.0375 57.6687C89.0003 37.4465 95.0645 17.6835 106.438 0.962433C94.2329 14.7468 85.7239 31.4015 81.7062 49.3687L0.5 71.4999L76.2062 92.1249C76.2375 84.0737 77.2384 76.0555 79.1875 68.2437C79.1125 69.9124 79.075 71.5812 79.075 73.2437C79.0741 98.6185 87.907 123.202 104.057 142.774C120.208 162.346 142.668 175.684 167.581 180.5L188.287 256.5L208.212 183.375C206.2 183.494 204.175 183.562 202.137 183.562C197.196 183.558 192.262 183.188 187.375 182.456H188.306C213.836 182.449 238.557 173.5 258.177 157.165C277.796 140.829 291.075 118.138 295.706 93.0312Z" fill="#004D90"/>
</svg>
