<svg width="96" height="66" viewBox="0 0 96 66" fill="none" xmlns="http://www.w3.org/2000/svg">
<path d="M75.5728 24.1519L96 18.5855L76.6192 13.3055C76.6122 15.1166 76.4132 16.9219 76.0256 18.6911C75.9408 12.0104 73.4563 5.58304 69.0256 0.582275C71.9371 4.86286 73.4895 9.9222 73.48 15.0991C73.48 29.2719 62.104 40.7615 48.0736 40.7615C34.0432 40.7615 22.6656 29.2719 22.6656 15.0991C22.6561 9.9222 24.2085 4.86286 27.12 0.582275C23.9956 4.11108 21.8173 8.37467 20.7888 12.9743L0 18.6399L19.3808 23.9199C19.3888 21.8588 19.645 19.8061 20.144 17.8063C20.1248 18.2335 20.1152 18.6607 20.1152 19.0863C20.115 25.5822 22.3762 31.8756 26.5107 36.886C30.6451 41.8964 36.3949 45.3111 42.7728 46.5439L48.0736 65.9999L53.1744 47.2799C52.6592 47.3103 52.1408 47.3279 51.6192 47.3279C50.3542 47.3268 49.091 47.2321 47.84 47.0447H48.0784C54.6141 47.0428 60.9427 44.752 65.9653 40.57C70.9878 36.3881 74.3871 30.5791 75.5728 24.1519Z" fill="white"/>
</svg>
