<svg width="27" height="27" viewBox="0 0 27 27" fill="none" xmlns="http://www.w3.org/2000/svg">
    <mask id="mask0_294_7281" style="mask-type:alpha" maskUnits="userSpaceOnUse" x="0" y="0"
        width="27" height="27">
        <rect x="0.592285" y="0.861816" width="25.6111" height="25.6111" fill="#D9D9D9"
            style="fill:#D9D9D9;fill:color(display-p3 0.8510 0.8510 0.8510);fill-opacity:1;" />
    </mask>
    <g mask="url(#mask0_294_7281)">
        <path
            d="M15.4147 22.7913C14.5405 22.7913 13.8349 22.5112 13.2979 21.951C12.7609 21.3907 12.4924 20.6803 12.4924 19.8198C12.4924 19.2041 12.6354 18.6042 12.9213 18.02C13.2072 17.4358 13.6098 16.9067 14.129 16.4327C14.6482 15.9586 15.2645 15.5639 15.978 15.2486C16.6915 14.9332 17.4758 14.7365 18.3308 14.6586C18.2501 13.6462 18.0401 12.9077 17.7008 12.4432C17.3615 11.9788 16.8553 11.7465 16.1822 11.7465C15.3203 11.7465 14.5234 12.0783 13.7914 12.7418C13.0595 13.4054 12.3214 14.1825 11.5771 15.0731C10.7234 16.1115 9.94804 16.955 9.25099 17.6034C8.55394 18.2519 7.77036 18.5762 6.90024 18.5762C6.12999 18.5762 5.50885 18.3043 5.03684 17.7604C4.56485 17.2166 4.32886 16.5007 4.32886 15.6128C4.32886 14.6155 4.56178 13.6462 5.02761 12.7049C5.49345 11.7636 6.0602 10.8251 6.72785 9.8893C7.11639 9.33112 7.44303 8.81671 7.70776 8.34607C7.97248 7.87545 8.10484 7.45339 8.10484 7.0799C8.10484 6.81859 8.04499 6.63287 7.9253 6.52272C7.80558 6.41259 7.6397 6.35753 7.42764 6.35753C7.18138 6.35753 6.9146 6.44475 6.6273 6.61919C6.33999 6.79363 6.01848 7.08264 5.66277 7.48623L4.53407 6.35753C5.02112 5.81438 5.50681 5.41181 5.99113 5.14983C6.47542 4.88784 6.95426 4.75684 7.42764 4.75684C8.09938 4.75684 8.64697 4.97402 9.07041 5.4084C9.49385 5.84277 9.70556 6.39583 9.70556 7.06757C9.70556 7.66545 9.53455 8.28829 9.19252 8.93609C8.85048 9.58389 8.42978 10.2662 7.93042 10.9831C7.3777 11.7794 6.90605 12.5558 6.51546 13.3123C6.12485 14.0689 5.92955 14.8214 5.92955 15.5697C5.92955 16.0363 6.01266 16.3872 6.17889 16.6225C6.34511 16.8578 6.58556 16.9755 6.90024 16.9755C7.38728 16.9755 7.88356 16.7248 8.38907 16.2234C8.89459 15.7219 9.52016 15.0279 10.2658 14.1414C11.14 13.0948 12.0443 12.1672 12.9788 11.3587C13.9132 10.5501 14.981 10.1458 16.1822 10.1458C17.3328 10.1458 18.2299 10.5515 18.8736 11.3628C19.5173 12.1741 19.87 13.2624 19.9315 14.6278H22.4701V16.2285H19.9315C19.8248 18.1356 19.3788 19.7062 18.5935 20.9403C17.8082 22.1743 16.7486 22.7913 15.4147 22.7913ZM15.427 21.1906C16.2574 21.1906 16.9316 20.7231 17.4494 19.788C17.9673 18.8529 18.259 17.6807 18.3247 16.2716C17.1371 16.3838 16.135 16.7945 15.3182 17.5039C14.5015 18.2133 14.0931 18.977 14.0931 19.7951C14.0931 20.2357 14.2155 20.5784 14.4604 20.8233C14.7053 21.0682 15.0275 21.1906 15.427 21.1906Z"
            fill="#030712"
            style="fill:#030712;fill:color(display-p3 0.0118 0.0275 0.0706);fill-opacity:1;" />
    </g>
</svg>
    