<svg width="47" height="47" viewBox="0 0 47 47" fill="none" xmlns="http://www.w3.org/2000/svg">
    <rect x="1.64012" y="1.58836" width="44.3798" height="44.3798" rx="22.1899" stroke="#E5E7EB"
        style="stroke:#E5E7EB;stroke:color(display-p3 0.8980 0.9059 0.9216);stroke-opacity:1;"
        stroke-width="1.43161" />
    <path
        d="M24.8156 14.2344C25.8897 14.2362 26.434 14.2418 26.9043 14.2558L27.0895 14.2619C27.3035 14.2695 27.5146 14.279 27.7692 14.291C28.7848 14.3379 29.4776 14.4986 30.086 14.7348C30.715 14.9773 31.2464 15.305 31.7768 15.8355C32.3065 16.366 32.6343 16.8989 32.8776 17.5264C33.113 18.134 33.2737 18.8276 33.3214 19.8432C33.3328 20.0977 33.3419 20.3088 33.3495 20.5229L33.3555 20.7081C33.3694 21.1784 33.3758 21.7227 33.3778 22.7968L33.3786 23.5085C33.3787 23.5955 33.3787 23.6852 33.3787 23.7778L33.3786 24.047L33.378 24.7587C33.3762 25.8328 33.3706 26.3771 33.3565 26.8474L33.3504 27.0327C33.3429 27.2466 33.3334 27.4578 33.3214 27.7123C33.2745 28.7279 33.113 29.4207 32.8776 30.0291C32.635 30.6582 32.3065 31.1895 31.7768 31.7199C31.2464 32.2496 30.7127 32.5774 30.086 32.8207C29.4776 33.0561 28.7848 33.2168 27.7692 33.2645C27.5146 33.2759 27.3035 33.2851 27.0895 33.2926L26.9043 33.2986C26.434 33.3125 25.8897 33.3189 24.8156 33.3209L24.1039 33.3217C24.0169 33.3218 23.9272 33.3218 23.8347 33.3218L23.5654 33.3217L22.8537 33.3211C21.7796 33.3193 21.2353 33.3137 20.765 33.2997L20.5797 33.2936C20.3657 33.286 20.1546 33.2765 19.9001 33.2645C18.8845 33.2176 18.1925 33.0561 17.5833 32.8207C16.955 32.5781 16.4229 32.2496 15.8924 31.7199C15.3619 31.1895 15.035 30.6558 14.7917 30.0291C14.5554 29.4207 14.3956 28.7279 14.3479 27.7123C14.3365 27.4578 14.3273 27.2466 14.3198 27.0327L14.3138 26.8474C14.2998 26.3771 14.2934 25.8328 14.2914 24.7587L14.2913 22.7968C14.293 21.7227 14.2987 21.1784 14.3127 20.7081L14.3188 20.5229C14.3264 20.3088 14.3359 20.0977 14.3479 19.8432C14.3948 18.8268 14.5554 18.1348 14.7917 17.5264C15.0342 16.8981 15.3619 16.366 15.8924 15.8355C16.4229 15.305 16.9558 14.9781 17.5833 14.7348C18.1917 14.4986 18.8837 14.3387 19.9001 14.291C20.1546 14.2796 20.3657 14.2704 20.5797 14.2629L20.765 14.2569C21.2353 14.2429 21.7796 14.2366 22.8537 14.2345L24.8156 14.2344ZM23.8347 19.0057C21.1977 19.0057 19.0626 21.1431 19.0626 23.7778C19.0626 26.4147 21.2 28.5498 23.8347 28.5498C26.4716 28.5498 28.6067 26.4123 28.6067 23.7778C28.6067 21.1408 26.4692 19.0057 23.8347 19.0057ZM23.8347 20.9145C25.416 20.9145 26.6979 22.1959 26.6979 23.7778C26.6979 25.3591 25.4164 26.641 23.8347 26.641C22.2533 26.641 20.9714 25.3595 20.9714 23.7778C20.9714 22.1964 22.2528 20.9145 23.8347 20.9145ZM28.8453 17.5741C28.1874 17.5741 27.6523 18.1085 27.6523 18.7663C27.6523 19.4241 28.1866 19.9593 28.8453 19.9593C29.503 19.9593 30.0383 19.425 30.0383 18.7663C30.0383 18.1085 29.5022 17.5733 28.8453 17.5741Z"
        fill="#030712"
        style="fill:#030712;fill:color(display-p3 0.0118 0.0275 0.0706);fill-opacity:1;" />
</svg>
    