<svg width="46" height="47" viewBox="0 0 46 47" fill="none" xmlns="http://www.w3.org/2000/svg">
    <rect x="0.904279" y="1.58836" width="44.3798" height="44.3798" rx="22.1899" stroke="#E5E7EB"
        style="stroke:#E5E7EB;stroke:color(display-p3 0.8980 0.9059 0.9216);stroke-opacity:1;"
        stroke-width="1.43161" />
    <path
        d="M29.1328 29.8281H26.5889V25.8417C26.5889 24.8911 26.5696 23.6679 25.2632 23.6679C23.9369 23.6679 23.7342 24.7023 23.7342 25.7716V29.8281H21.1903V21.6307H23.634V22.748H23.6669C24.0084 22.1038 24.8388 21.4238 26.0792 21.4238C28.6569 21.4238 29.1336 23.1203 29.1336 25.3285L29.1328 29.8281ZM18.3171 20.509C17.4982 20.509 16.8404 19.8462 16.8404 19.0309C16.8404 18.2163 17.4989 17.5542 18.3171 17.5542C19.1331 17.5542 19.7945 18.2163 19.7945 19.0309C19.7945 19.8462 19.1324 20.509 18.3171 20.509ZM19.5926 29.8281H17.0415V21.6307H19.5926V29.8281ZM30.4055 15.1885H15.7645C15.0637 15.1885 14.4968 15.7425 14.4968 16.4261V31.1302C14.4968 31.8144 15.0637 32.3677 15.7645 32.3677H30.4034C31.1035 32.3677 31.6761 31.8144 31.6761 31.1302V16.4261C31.6761 15.7425 31.1035 15.1885 30.4034 15.1885H30.4055Z"
        fill="#030712"
        style="fill:#030712;fill:color(display-p3 0.0118 0.0275 0.0706);fill-opacity:1;" />
</svg>
    