<svg width="64" height="64" viewBox="0 0 64 64" fill="none" xmlns="http://www.w3.org/2000/svg">
<path fill-rule="evenodd" clip-rule="evenodd" d="M42.6706 53.334C48.5616 53.334 53.3372 48.5584 53.3372 42.6673C53.3372 39.2278 51.7093 36.1685 49.1818 34.2179C48.4835 33.679 47.9987 32.8813 47.9987 31.9992C47.9987 31.1175 48.4831 30.3201 49.1809 29.7811C51.7067 27.8305 53.3333 24.7722 53.3333 21.3341C53.3333 15.443 48.5577 10.6674 42.6667 10.6674C39.2305 10.6674 36.1739 12.2922 34.223 14.8153C33.6823 15.5147 32.8828 16.0004 31.9987 16.0004C31.1146 16.0004 30.3151 15.5147 29.7743 14.8153C27.8235 12.2922 24.7669 10.6674 21.3307 10.6674C15.4397 10.6674 10.6641 15.443 10.6641 21.3341C10.6641 24.7726 12.291 27.831 14.8172 29.7817C15.5153 30.3208 16 31.1185 16 32.0006C16 32.8827 15.5153 33.6803 14.8172 34.2195C12.291 36.1701 10.6641 39.2286 10.6641 42.6671C10.6641 48.5581 15.4397 53.3337 21.3307 53.3337C24.7663 53.3337 27.8225 51.7095 29.7734 49.1871C30.3149 48.4869 31.1154 48.0006 32.0006 48.0006C32.8857 48.0006 33.6862 48.4869 34.2278 49.1871C36.1786 51.7097 39.2349 53.334 42.6706 53.334ZM32.0007 37.3339C32.8859 37.3339 33.6863 36.8477 34.2278 36.1475C34.7835 35.4289 35.429 34.7831 36.1474 34.2271C36.8466 33.6859 37.332 32.8863 37.332 32.0022C37.332 31.1176 36.8462 30.3177 36.1465 29.7766C35.4262 29.2195 34.7792 28.5723 34.2223 27.8519C33.6818 27.1526 32.8825 26.6671 31.9987 26.6671C31.1149 26.6671 30.3156 27.1526 29.7751 27.8519C29.2183 28.5721 28.5715 29.2192 27.8514 29.7762C27.1521 30.3171 26.6667 31.1165 26.6667 32.0006C26.6667 32.8846 27.1521 33.684 27.8514 34.2249C28.5708 34.7815 29.2172 35.4279 29.7737 36.1474C30.3151 36.8476 31.1156 37.3339 32.0007 37.3339Z" fill="#3E376C" style="fill:#3E376C;fill:color(display-p3 0.2449 0.2176 0.4224);fill-opacity:1;"/>
<circle cx="21.3307" cy="42.6667" r="6.66667" fill="#F4D452" style="fill:#F4D452;fill:color(display-p3 0.9568 0.8301 0.3232);fill-opacity:1;"/>
<circle cx="43.6667" cy="42.6667" r="6.66667" fill="white" style="fill:white;fill-opacity:1;"/>
<circle cx="42.6667" cy="21.3337" r="6.66667" fill="#779ACF" style="fill:#779ACF;fill:color(display-p3 0.4667 0.6039 0.8118);fill-opacity:1;"/>
<circle cx="21.3346" cy="21.3327" r="6.66667" fill="#E57361" style="fill:#E57361;fill:color(display-p3 0.8992 0.4499 0.3808);fill-opacity:1;"/>
</svg>
