<svg width="40" height="44" viewBox="0 0 40 44" fill="none" xmlns="http://www.w3.org/2000/svg">
<path d="M39.8134 23.6088C39.8134 31.303 33.5784 37.538 25.8842 37.538H8.93262L10.7858 31.7187L17.8024 9.67948H25.8842C27.7958 9.67948 29.6165 10.0648 31.2727 10.7598C32.9527 11.4656 34.4639 12.4896 35.7325 13.7582C38.2525 16.2782 39.8134 19.7616 39.8134 23.6066V23.6088Z" fill="#BE1E2D"/>
<path d="M15.5899 43.8056L17.5859 37.538H8.90233L6.90625 43.8056H15.5899Z" fill="#BE1E2D"/>
<path opacity="0.15" d="M24.2931 32.6821L31.2728 10.7598C29.6167 10.0627 27.7959 9.67948 25.8843 9.67948H17.8025L10.4785 32.6821H24.2931Z" fill="black"/>
<path d="M30.8808 0H13.9293C6.23722 0 0 6.23722 0 13.9293C0 21.6213 6.23722 27.8586 13.9293 27.8586H22.011L30.8808 0Z" fill="#122241"/>
</svg>
