<svg width="20" height="18" viewBox="0 0 20 18" fill="none" xmlns="http://www.w3.org/2000/svg">
<path d="M1 0H19C19.2652 0 19.5196 0.105357 19.7071 0.292893C19.8946 0.48043 20 0.734784 20 1V17C20 17.2652 19.8946 17.5196 19.7071 17.7071C19.5196 17.8946 19.2652 18 19 18H1C0.734785 18 0.480431 17.8946 0.292895 17.7071C0.105359 17.5196 1.90735e-06 17.2652 1.90735e-06 17V1C1.90735e-06 0.734784 0.105359 0.48043 0.292895 0.292893C0.480431 0.105357 0.734785 0 1 0ZM10.06 8.683L3.648 3.238L2.353 4.762L10.073 11.317L17.654 4.757L16.346 3.244L10.061 8.683H10.06Z" fill="black" style="fill:black;fill-opacity:1;"/>
</svg>
