<svg width="49" height="48" viewBox="0 0 49 48" fill="none" xmlns="http://www.w3.org/2000/svg">
    <rect x="1.69593" y="1.05774" width="45.63" height="45.63" rx="22.815" fill="#F3F4F6"
        style="fill:#F3F4F6;fill:color(display-p3 0.9529 0.9569 0.9647);fill-opacity:1;" />
    <rect x="1.69593" y="1.05774" width="45.63" height="45.63" rx="22.815" stroke="#E5E7EB"
        style="stroke:#E5E7EB;stroke:color(display-p3 0.8980 0.9059 0.9216);stroke-opacity:1;"
        stroke-width="1.47193" />
    <mask id="mask0_294_7334" style="mask-type:alpha" maskUnits="userSpaceOnUse" x="12" y="12"
        width="25" height="24">
        <rect x="12.7354" y="12.0972" width="23.5509" height="23.5509" fill="#D9D9D9"
            style="fill:#D9D9D9;fill:color(display-p3 0.8510 0.8510 0.8510);fill-opacity:1;" />
    </mask>
    <g mask="url(#mask0_294_7334)">
        <path
            d="M32.3138 32.7042C30.2694 32.7042 28.2496 32.2586 26.2543 31.3672C24.259 30.4759 22.4436 29.2125 20.8081 27.577C19.1727 25.9415 17.9093 24.1261 17.0179 22.1308C16.1266 20.1355 15.6809 18.1157 15.6809 16.0714C15.6809 15.777 15.779 15.5317 15.9753 15.3354C16.1716 15.1391 16.4169 15.041 16.7113 15.041H20.6855C20.9145 15.041 21.1189 15.1187 21.2988 15.2741C21.4787 15.4294 21.585 15.6134 21.6177 15.826L22.2555 19.2606C22.2883 19.5222 22.2801 19.743 22.231 19.9229C22.182 20.1028 22.092 20.2582 21.9612 20.389L19.5815 22.7932C19.9086 23.3983 20.2971 23.983 20.7468 24.5473C21.1966 25.1115 21.6913 25.6553 22.231 26.1787C22.738 26.6857 23.2695 27.1559 23.8256 27.5893C24.3817 28.0227 24.9704 28.4193 25.5919 28.7791L27.898 26.473C28.0452 26.3258 28.2373 26.2155 28.4745 26.1419C28.7116 26.0683 28.9447 26.0478 29.1736 26.0805L32.5591 26.7674C32.7881 26.8328 32.9761 26.9514 33.1233 27.1231C33.2705 27.2949 33.3441 27.487 33.3441 27.6997V31.6739C33.3441 31.9683 33.246 32.2136 33.0497 32.4098C32.8535 32.6061 32.6082 32.7042 32.3138 32.7042Z"
            fill="#1C1B1F"
            style="fill:#1C1B1F;fill:color(display-p3 0.1098 0.1059 0.1216);fill-opacity:1;" />
    </g>
</svg>
    