<svg width="47" height="47" viewBox="0 0 47 47" fill="none" xmlns="http://www.w3.org/2000/svg">
    <rect x="1.37571" y="1.58836" width="44.3798" height="44.3798" rx="22.1899" fill="#F3F4F6"
        style="fill:#F3F4F6;fill:color(display-p3 0.9529 0.9569 0.9647);fill-opacity:1;" />
    <rect x="1.37571" y="1.58836" width="44.3798" height="44.3798" rx="22.1899" stroke="#E5E7EB"
        style="stroke:#E5E7EB;stroke:color(display-p3 0.8980 0.9059 0.9216);stroke-opacity:1;"
        stroke-width="1.43161" />
    <path
        d="M33.3099 17.7233C32.5813 18.0456 31.8086 18.2573 31.0175 18.3514C31.851 17.8524 32.4747 17.0675 32.7724 16.1428C31.9892 16.6082 31.132 16.9357 30.238 17.1111C29.4833 16.3061 28.4286 15.8498 27.3251 15.8511C25.1212 15.8511 23.3337 17.638 23.3337 19.8429C23.3337 20.1557 23.3696 20.459 23.4367 20.7517C20.1181 20.5846 17.1782 18.9965 15.209 16.5813C14.8544 17.1904 14.6681 17.8828 14.669 18.5877C14.669 19.9724 15.3739 21.1947 16.4446 21.9103C15.8108 21.8902 15.1909 21.719 14.6367 21.4109C14.6361 21.4276 14.6361 21.4444 14.6361 21.4602C14.6361 23.3947 16.012 25.0084 17.8385 25.3748C17.4957 25.4676 17.1421 25.5145 16.787 25.5142C16.5291 25.5142 16.2788 25.4904 16.0355 25.4438C16.5437 27.0292 18.0169 28.1835 19.7642 28.2151C18.3502 29.3248 16.6042 29.9269 14.8068 29.9243C14.4887 29.9246 14.1709 29.9058 13.855 29.8682C15.6797 31.0412 17.8037 31.6638 19.973 31.6615C27.3154 31.6615 31.33 25.5795 31.33 20.3051C31.33 20.1325 31.3258 19.9593 31.3182 19.7886C32.0995 19.224 32.774 18.5247 33.3099 17.7233Z"
        fill="#030712"
        style="fill:#030712;fill:color(display-p3 0.0118 0.0275 0.0706);fill-opacity:1;" />
</svg>
    