<svg width="40" height="40" viewBox="0 0 40 40" fill="none" xmlns="http://www.w3.org/2000/svg">
<path d="M5.3125 5.23438V20H14.4531L16.5625 18.0469L18.4375 18.75L18.6719 20H23.0469L28.3594 25.4688H29.4531L30.5469 20H34.9219V5.23438H5.3125ZM13.3594 12.5L13.75 14.7656L11.7188 13.5156L9.60938 14.7656L10.0781 12.4219L8.35938 10.7031L10.7812 10.4688L11.6406 8.20312L12.8125 10.4688L15.1562 10.7031L13.3594 12.5ZM21.9531 12.4219L22.5 14.7656L20.3906 13.6719L18.125 14.7656L18.6719 12.4219L16.875 10.7812L19.375 10.4688L20.3906 8.20312L21.3281 10.4688L23.9062 10.7031L21.9531 12.4219ZM31.1719 14.7656L29.0625 13.6719L26.7969 14.7656L27.4219 12.4219L25.7031 10.7812L28.125 10.4688L29.0625 8.20312L30.1562 10.4688L32.3438 10.7812L30.5469 12.3438L31.1719 14.7656Z" fill="#93C0FC"/>
<path d="M28.5359 26.2977C28.2388 26.2976 27.9454 26.2318 27.6768 26.105C27.4081 25.9781 27.1709 25.7934 26.982 25.5641L23.1539 20.9734C23.1268 20.9403 23.0926 20.9137 23.0537 20.8957C23.0149 20.8777 22.9725 20.8688 22.9297 20.8695H18.4469C18.2163 20.8695 17.9951 20.7779 17.832 20.6149C17.669 20.4518 17.5773 20.2306 17.5773 20C17.5773 19.7694 17.669 19.5482 17.832 19.3851C17.9951 19.2221 18.2163 19.1305 18.4469 19.1305H22.9328C23.2313 19.1297 23.5262 19.1951 23.7964 19.3219C24.0666 19.4488 24.3053 19.6339 24.4953 19.8641L28.3172 24.4531C28.3527 24.4982 28.4011 24.5315 28.4559 24.5486C28.5106 24.5658 28.5693 24.566 28.6242 24.5492C28.6779 24.5364 28.7265 24.5079 28.7638 24.4672C28.8011 24.4266 28.8254 24.3757 28.8336 24.3211L29.4117 20.8328C29.489 20.3573 29.7333 19.9249 30.1008 19.6134C30.4682 19.3018 30.9347 19.1314 31.4164 19.1328H33.9062C33.9828 19.1318 34.0559 19.1009 34.1101 19.0468C34.1642 18.9927 34.1951 18.9195 34.1961 18.843V6.09375C34.1957 6.01671 34.1651 5.9429 34.1109 5.88813C34.0568 5.83336 33.9833 5.80201 33.9062 5.80078H6.09375C6.01618 5.80119 5.9419 5.83219 5.88704 5.88704C5.83219 5.9419 5.80119 6.01618 5.80078 6.09375V18.8438C5.80261 18.9203 5.83426 18.9931 5.88899 19.0467C5.94371 19.1002 6.01718 19.1303 6.09375 19.1305H8.73672C8.96733 19.1305 9.1885 19.2221 9.35157 19.3851C9.51464 19.5482 9.60625 19.7694 9.60625 20C9.60625 20.2306 9.51464 20.4518 9.35157 20.6149C9.1885 20.7779 8.96733 20.8695 8.73672 20.8695H6.09375C5.55503 20.8695 5.03837 20.6555 4.65744 20.2746C4.27651 19.8937 4.0625 19.377 4.0625 18.8383V6.09375C4.0625 5.55503 4.27651 5.03837 4.65744 4.65744C5.03837 4.27651 5.55503 4.0625 6.09375 4.0625H33.9062C34.445 4.0625 34.9616 4.27651 35.3426 4.65744C35.7235 5.03837 35.9375 5.55503 35.9375 6.09375V18.8438C35.9375 19.3825 35.7235 19.8991 35.3426 20.2801C34.9616 20.661 34.445 20.875 33.9062 20.875H31.4164C31.3469 20.874 31.2794 20.8983 31.2264 20.9432C31.1734 20.9882 31.1385 21.0508 31.1281 21.1195L30.5469 24.6094C30.4848 24.9926 30.3128 25.3497 30.0518 25.6371C29.7909 25.9246 29.4521 26.1302 29.0766 26.2289C28.9002 26.2758 28.7184 26.2989 28.5359 26.2977Z" fill="#126DFB"/>
<path d="M8.40938 35.9375H6.09375C5.55503 35.9375 5.03837 35.7235 4.65744 35.3425C4.27651 34.9616 4.0625 34.4449 4.0625 33.9062V25.7953C4.0625 25.2566 4.27651 24.7399 4.65744 24.359C5.03837 23.978 5.55503 23.764 6.09375 23.764H8.4125C8.95122 23.764 9.46788 23.978 9.84881 24.359C10.2297 24.7399 10.4437 25.2566 10.4437 25.7953V33.9062C10.4437 34.1732 10.3911 34.4376 10.2888 34.6843C10.1866 34.9309 10.0367 35.155 9.84771 35.3436C9.65876 35.5323 9.43446 35.6819 9.18766 35.7838C8.94086 35.8856 8.67639 35.9379 8.40938 35.9375ZM6.09375 25.5054C6.01701 25.5059 5.94352 25.5365 5.88925 25.5908C5.83499 25.6451 5.80432 25.7185 5.80391 25.7953V33.9062C5.8037 33.9445 5.81103 33.9824 5.82549 34.0179C5.83994 34.0533 5.86124 34.0855 5.88815 34.1127C5.91507 34.1399 5.94708 34.1616 5.98235 34.1764C6.01763 34.1912 6.05548 34.199 6.09375 34.1992H8.4125C8.48924 34.1988 8.56273 34.1681 8.617 34.1138C8.67126 34.0596 8.70193 33.9861 8.70234 33.9094V25.7953C8.70193 25.7185 8.67126 25.6451 8.617 25.5908C8.56273 25.5365 8.48924 25.5059 8.4125 25.5054H6.09375Z" fill="#126DFB"/>
<path d="M18.1898 35.9375H12.9813C12.1265 35.9366 11.2837 35.7377 10.5188 35.3563L9.17969 34.6875C9.03518 34.6155 8.91364 34.5046 8.82875 34.3673C8.74386 34.2299 8.699 34.0716 8.69922 33.9102V25.7953C8.69936 25.5879 8.77362 25.3873 8.90859 25.2297L15.0641 18.0469C15.4325 17.617 15.9389 17.3286 16.4965 17.2309C17.0542 17.1332 17.6284 17.2324 18.121 17.5114C18.6136 17.7904 18.994 18.232 19.1969 18.7605C19.3999 19.289 19.4128 19.8716 19.2336 20.4086L17.7297 24.925H19.3492C19.8336 24.9249 20.3116 25.0352 20.747 25.2476C21.1824 25.4599 21.5636 25.7687 21.8617 26.1505C22.1598 26.5323 22.367 26.977 22.4674 27.4509C22.5679 27.9248 22.559 28.4153 22.4414 28.8852L21.2828 33.5235C21.1109 34.2135 20.713 34.8261 20.1524 35.2636C19.5919 35.7011 18.9009 35.9384 18.1898 35.9375ZM10.4375 33.3719L11.2969 33.8008C11.8206 34.062 12.3976 34.1983 12.9828 34.1992H18.1914C18.5148 34.1993 18.8288 34.0912 19.0836 33.8921C19.3385 33.6931 19.5194 33.4145 19.5977 33.1008L20.7563 28.4649C20.8023 28.2802 20.8116 28.0883 20.7835 27.9C20.7554 27.7118 20.6905 27.5309 20.5925 27.3677C20.4944 27.2046 20.3653 27.0623 20.2123 26.9491C20.0593 26.8359 19.8855 26.7539 19.7008 26.7078C19.5863 26.6791 19.4688 26.6647 19.3508 26.6649H16.5227C16.3849 26.6649 16.249 26.6322 16.1264 26.5694C16.0037 26.5066 15.8977 26.4156 15.8172 26.3038C15.7366 26.192 15.6838 26.0627 15.663 25.9265C15.6422 25.7903 15.6541 25.6511 15.6977 25.5203L17.5844 19.8594C17.6358 19.7048 17.6318 19.5371 17.5733 19.3851C17.5148 19.233 17.4053 19.106 17.2635 19.0258C17.1217 18.9455 16.9564 18.917 16.796 18.9451C16.6355 18.9732 16.4897 19.0561 16.3836 19.1797L10.4375 26.1172V33.3719Z" fill="#126DFB"/>
<path d="M11.307 20.8696C11.7873 20.8696 12.1766 20.4803 12.1766 20C12.1766 19.5198 11.7873 19.1305 11.307 19.1305C10.8268 19.1305 10.4375 19.5198 10.4375 20C10.4375 20.4803 10.8268 20.8696 11.307 20.8696Z" fill="#126DFB"/>
<path d="M24.211 10.6422C24.1768 10.5349 24.1105 10.4407 24.0211 10.3723C23.9317 10.3038 23.8235 10.2644 23.711 10.2594L21.6407 10.1562L20.9063 8.22186C20.8664 8.11655 20.7954 8.02586 20.7028 7.96186C20.6101 7.89786 20.5002 7.86359 20.3876 7.86359C20.2749 7.86359 20.165 7.89786 20.0723 7.96186C19.9797 8.02586 19.9087 8.11655 19.8688 8.22186L19.1407 10.1562L17.0743 10.257C16.9617 10.2619 16.8533 10.3012 16.7637 10.3697C16.6742 10.4382 16.6078 10.5324 16.5735 10.6398C16.5375 10.7467 16.5355 10.8622 16.5676 10.9703C16.5998 11.0784 16.6646 11.1739 16.7532 11.2437L18.3665 12.5398L17.8196 14.5367C17.7901 14.6453 17.7944 14.7602 17.8318 14.8663C17.8692 14.9724 17.938 15.0646 18.029 15.1308C18.12 15.1969 18.229 15.2337 18.3414 15.2365C18.4539 15.2392 18.5645 15.2077 18.6587 15.1461L20.3907 14.0148L22.1219 15.1484C22.2161 15.21 22.3267 15.2415 22.4392 15.2388C22.5516 15.2361 22.6606 15.1992 22.7516 15.1331C22.8426 15.067 22.9114 14.9748 22.9488 14.8687C22.9862 14.7626 22.9905 14.6476 22.961 14.5391L22.4219 12.5422L24.0313 11.25C24.1207 11.1799 24.186 11.0837 24.2182 10.9748C24.2504 10.8658 24.2479 10.7496 24.211 10.6422ZM21.8133 12.0266C21.7291 12.0939 21.6663 12.1845 21.6329 12.2871C21.5994 12.3897 21.5967 12.4998 21.6251 12.6039L22.0508 14.1664L20.6946 13.2812C20.6043 13.2221 20.4987 13.1906 20.3907 13.1906C20.2827 13.1906 20.1771 13.2221 20.0868 13.2812L18.7305 14.1687L19.1563 12.6062C19.1846 12.5021 19.1818 12.392 19.1483 12.2895C19.1149 12.1869 19.0522 12.0963 18.968 12.0289L17.7047 11.0133L19.3243 10.9351C19.432 10.9298 19.5358 10.8931 19.6231 10.8297C19.7104 10.7663 19.7773 10.6789 19.8157 10.5781L20.3907 9.06249L20.9657 10.5781C21.0042 10.6789 21.0711 10.7662 21.1584 10.8296C21.2456 10.893 21.3494 10.9297 21.4571 10.9351L23.0766 11.0133L21.8133 12.0266Z" fill="#126DFB"/>
<path d="M32.8632 10.6422C32.8289 10.5349 32.7625 10.4406 32.6729 10.3722C32.5834 10.3038 32.475 10.2644 32.3625 10.2594L30.2953 10.1562L29.5609 8.22187C29.5209 8.11681 29.4499 8.02639 29.3573 7.96259C29.2647 7.89879 29.155 7.86462 29.0425 7.86462C28.9301 7.86462 28.8203 7.89879 28.7278 7.96259C28.6352 8.02639 28.5642 8.11681 28.5242 8.22187L27.789 10.1562L25.7226 10.257C25.6102 10.2625 25.502 10.302 25.4126 10.3704C25.3231 10.4387 25.2566 10.5327 25.2218 10.6398C25.187 10.7469 25.1857 10.862 25.2179 10.9699C25.2502 11.0778 25.3145 11.1733 25.4023 11.2437L27.0148 12.5398L26.4679 14.5367C26.4385 14.6453 26.4427 14.7602 26.4801 14.8663C26.5175 14.9724 26.5863 15.0647 26.6773 15.1308C26.7683 15.1969 26.8773 15.2337 26.9898 15.2365C27.1022 15.2392 27.2129 15.2077 27.307 15.1461L29.0382 14.0125L30.7703 15.1461C30.8643 15.2079 30.975 15.2395 31.0875 15.2369C31.2 15.2342 31.309 15.1973 31.4 15.1311C31.4911 15.065 31.5598 14.9727 31.597 14.8665C31.6343 14.7603 31.6383 14.6453 31.6086 14.5367L31.0664 12.5398L32.6828 11.25C32.7718 11.1796 32.8369 11.0835 32.8692 10.9747C32.9015 10.8659 32.8994 10.7497 32.8632 10.6422ZM30.4687 12.0258C30.3845 12.0934 30.3219 12.1841 30.2886 12.2868C30.2553 12.3895 30.2527 12.4998 30.2812 12.6039L30.7062 14.1664L29.3461 13.2812C29.2559 13.2217 29.1502 13.1902 29.0421 13.1906C28.9342 13.1907 28.8286 13.2222 28.7382 13.2812L27.3828 14.168L27.8078 12.6055C27.8361 12.5014 27.8335 12.3914 27.8002 12.2888C27.7668 12.1863 27.7043 12.0957 27.6203 12.0281L26.3562 11.0125L27.9757 10.9344C28.0835 10.9291 28.1874 10.8925 28.2747 10.8291C28.3619 10.7657 28.4288 10.6782 28.4671 10.5773L29.0421 9.06172L29.6179 10.5773C29.6562 10.6782 29.7231 10.7657 29.8104 10.8291C29.8977 10.8925 30.0016 10.9291 30.1093 10.9344L31.7281 11.0125L30.4687 12.0258Z" fill="#126DFB"/>
<path d="M15.5593 10.6422C15.525 10.5349 15.4585 10.4406 15.369 10.3722C15.2795 10.3038 15.1711 10.2644 15.0585 10.2594L12.9921 10.1562L12.257 8.22187C12.217 8.11681 12.146 8.02639 12.0534 7.96259C11.9608 7.89879 11.851 7.86462 11.7386 7.86462C11.6262 7.86462 11.5164 7.89879 11.4238 7.96259C11.3313 8.02639 11.2603 8.11681 11.2203 8.22187L10.4859 10.1562L8.4187 10.257C8.30645 10.2629 8.19861 10.3026 8.10944 10.371C8.02026 10.4395 7.95394 10.5333 7.91923 10.6402C7.88453 10.7471 7.88307 10.8621 7.91506 10.9698C7.94704 11.0776 8.01097 11.1731 8.09839 11.2437L9.71167 12.5398L9.16479 14.5367C9.13505 14.6453 9.13907 14.7603 9.17632 14.8665C9.21357 14.9727 9.28229 15.065 9.37331 15.1311C9.46434 15.1973 9.57336 15.2342 9.68586 15.2369C9.79836 15.2395 9.90901 15.2079 10.0031 15.1461L11.7351 14.0125L13.4664 15.1461C13.5605 15.2077 13.6711 15.2392 13.7836 15.2365C13.896 15.2337 14.005 15.1969 14.096 15.1308C14.1871 15.0647 14.2558 14.9724 14.2932 14.8663C14.3306 14.7602 14.3349 14.6453 14.3054 14.5367L13.7624 12.5398L15.3789 11.25C15.4679 11.1796 15.533 11.0835 15.5653 10.9747C15.5976 10.8659 15.5955 10.7497 15.5593 10.6422ZM13.1609 12.0258C13.0768 12.0935 13.0144 12.1843 12.9811 12.2869C12.9478 12.3896 12.9451 12.4997 12.9734 12.6039L13.3984 14.1664L12.0421 13.2812C11.9522 13.2218 11.8468 13.1903 11.739 13.1906C11.6311 13.1907 11.5254 13.2222 11.4351 13.2812L10.0781 14.168L10.5031 12.6055C10.5314 12.5014 10.5288 12.3914 10.4955 12.2888C10.4621 12.1863 10.3996 12.0957 10.3156 12.0281L9.05229 11.0125L10.671 10.9344C10.7788 10.9291 10.8827 10.8925 10.97 10.8291C11.0572 10.7657 11.1241 10.6782 11.1624 10.5773L11.7382 9.06172L12.3132 10.5773C12.3515 10.6782 12.4184 10.7657 12.5057 10.8291C12.593 10.8925 12.6969 10.9291 12.8046 10.9344L14.4234 11.0125L13.1609 12.0258Z" fill="#126DFB"/>
</svg>
