<svg width="31" height="32" viewBox="0 0 31 32" fill="none" xmlns="http://www.w3.org/2000/svg">
<path d="M22.7805 12.2773C23.9911 12.2759 25.1518 11.7943 26.0078 10.9383C26.8639 10.0822 27.3454 8.92157 27.3469 7.71093V4.65936C27.3454 3.44872 26.8639 2.28808 26.0078 1.43202C25.1518 0.575971 23.9911 0.0944038 22.7805 0.0929565H9.16172C7.95081 0.0939903 6.78976 0.575375 5.93337 1.43147C5.07698 2.28757 4.5952 3.44845 4.59375 4.65936V7.71171C4.5952 8.92235 5.07676 10.083 5.93282 10.939C6.78887 11.7951 7.94951 12.2767 9.16016 12.2781H12.3703L14.6719 14.7695C14.8374 14.9484 15.0381 15.0911 15.2614 15.1887C15.4847 15.2863 15.7258 15.3367 15.9695 15.3367C16.2132 15.3367 16.4543 15.2863 16.6776 15.1887C16.9009 15.0911 17.1017 14.9484 17.2672 14.7695L19.5687 12.2781H22.7789L22.7805 12.2773ZM18.4422 10.6609L15.9711 13.3351L13.5 10.6609C13.4103 10.5626 13.3011 10.4841 13.1794 10.4303C13.0576 10.3765 12.926 10.3486 12.793 10.3484H9.16172C8.4617 10.3474 7.79065 10.0689 7.29566 9.57386C6.80067 9.07887 6.52213 8.40782 6.52109 7.7078V4.65936C6.52109 3.95874 6.7992 3.28676 7.29433 2.79105C7.78945 2.29534 8.46109 2.01644 9.16172 2.01561H22.7797C23.4799 2.01644 24.1512 2.29502 24.6463 2.79022C25.1413 3.28543 25.4197 3.9568 25.4203 4.65702V7.70936C25.4197 8.40958 25.1413 9.08096 24.6463 9.57616C24.1512 10.0714 23.4799 10.3499 22.7797 10.3508H19.1484C19.0156 10.3505 18.8842 10.378 18.7626 10.4314C18.641 10.4848 18.5319 10.563 18.4422 10.6609Z" fill="#126DFB"/>
<path d="M11.7989 5.22262H11.4427C11.1921 5.22976 10.9541 5.33434 10.7793 5.51414C10.6046 5.69393 10.5068 5.93478 10.5068 6.18551C10.5068 6.43624 10.6046 6.67709 10.7793 6.85689C10.9541 7.03668 11.1921 7.14126 11.4427 7.1484H11.7989C11.9277 7.15207 12.0559 7.12988 12.1759 7.08314C12.2959 7.0364 12.4054 6.96606 12.4977 6.87628C12.5901 6.78651 12.6635 6.67912 12.7137 6.56047C12.7638 6.44182 12.7896 6.31432 12.7896 6.18551C12.7896 6.0567 12.7638 5.9292 12.7137 5.81055C12.6635 5.6919 12.5901 5.58451 12.4977 5.49474C12.4054 5.40496 12.2959 5.33462 12.1759 5.28788C12.0559 5.24114 11.9277 5.21895 11.7989 5.22262Z" fill="#126DFB"/>
<path d="M16.1484 5.22262H15.7938C15.5431 5.22976 15.3052 5.33434 15.1304 5.51414C14.9557 5.69393 14.8579 5.93478 14.8579 6.18551C14.8579 6.43624 14.9557 6.67709 15.1304 6.85689C15.3052 7.03668 15.5431 7.14126 15.7938 7.1484H16.1484C16.2772 7.15207 16.4054 7.12988 16.5254 7.08314C16.6454 7.0364 16.7549 6.96606 16.8473 6.87628C16.9396 6.78651 17.013 6.67912 17.0632 6.56047C17.1133 6.44182 17.1392 6.31432 17.1392 6.18551C17.1392 6.0567 17.1133 5.9292 17.0632 5.81055C17.013 5.6919 16.9396 5.58451 16.8473 5.49474C16.7549 5.40496 16.6454 5.33462 16.5254 5.28788C16.4054 5.24114 16.2772 5.21895 16.1484 5.22262Z" fill="#126DFB"/>
<path d="M20.4983 5.22262H20.1404C19.8898 5.22976 19.6518 5.33434 19.4771 5.51414C19.3023 5.69393 19.2046 5.93478 19.2046 6.18551C19.2046 6.43624 19.3023 6.67709 19.4771 6.85689C19.6518 7.03668 19.8898 7.14126 20.1404 7.1484H20.4967C20.6254 7.15207 20.7536 7.12988 20.8737 7.08314C20.9937 7.0364 21.1031 6.96606 21.1955 6.87628C21.2879 6.78651 21.3613 6.67912 21.4114 6.56047C21.4616 6.44182 21.4874 6.31432 21.4874 6.18551C21.4874 6.0567 21.4616 5.9292 21.4114 5.81055C21.3613 5.6919 21.2879 5.58451 21.1955 5.49474C21.1031 5.40496 20.9937 5.33462 20.8737 5.28788C20.7536 5.24114 20.6254 5.21895 20.4967 5.22262H20.4983Z" fill="#126DFB"/>
<path d="M27.8363 24.0508C28.5494 23.3672 29.0416 22.4859 29.2496 21.5203C29.4576 20.5547 29.3719 19.549 29.0035 18.6325C28.6352 17.7159 28.001 16.9306 27.1826 16.3775C26.3643 15.8244 25.3991 15.5289 24.4113 15.5289C23.4236 15.5289 22.4584 15.8244 21.64 16.3775C20.8216 16.9306 20.1875 17.7159 19.8191 18.6325C19.4508 19.549 19.3651 20.5547 19.5731 21.5203C19.7811 22.4859 20.2733 23.3672 20.9863 24.0508C20.057 24.487 19.2707 25.1781 18.7188 26.0438C18.167 26.9095 17.8723 27.914 17.8691 28.9406V29.5781C17.8689 30.0319 18.0266 30.4717 18.3153 30.8218C18.604 31.172 19.0056 31.4107 19.4512 31.4969C22.7286 32.1255 26.0956 32.1255 29.373 31.4969C29.8186 31.4107 30.2202 31.172 30.5089 30.8218C30.7976 30.4717 30.9554 30.0319 30.9551 29.5781V28.9406C30.9526 27.9137 30.658 26.9086 30.1058 26.0428C29.5536 25.177 28.7665 24.4861 27.8363 24.0508ZM24.4129 17.4688C25.0111 17.4684 25.596 17.6456 26.0936 17.9777C26.5911 18.3099 26.979 18.7821 27.2081 19.3348C27.4372 19.8874 27.4973 20.4955 27.3807 21.0823C27.2641 21.6691 26.9761 22.2081 26.5532 22.6311C26.1302 23.0542 25.5913 23.3423 25.0045 23.4591C24.4178 23.5758 23.8096 23.5159 23.257 23.2869C22.7043 23.0579 22.2319 22.6702 21.8996 22.1727C21.5674 21.6753 21.3901 21.0904 21.3902 20.4922C21.3911 19.6907 21.7098 18.9223 22.2764 18.3555C22.8431 17.7887 23.6114 17.4698 24.4129 17.4688ZM29.0098 29.607C26.1944 30.1358 23.3082 30.1681 20.4816 29.7023C20.2527 29.6625 20.0238 29.6242 19.7957 29.5781V28.9406C19.7967 28.0129 20.1657 27.1235 20.8217 26.4674C21.4778 25.8114 22.3672 25.4424 23.2949 25.4414H25.5309C26.4586 25.4424 27.348 25.8114 28.004 26.4674C28.66 27.1235 29.029 28.0129 29.0301 28.9406L29.0098 29.607Z" fill="#126DFB"/>
<path d="M10.9545 24.0508C11.6675 23.3672 12.1597 22.4859 12.3677 21.5203C12.5757 20.5547 12.4901 19.549 12.1217 18.6325C11.7534 17.7159 11.1192 16.9306 10.3008 16.3775C9.48242 15.8244 8.51725 15.5289 7.52949 15.5289C6.54173 15.5289 5.57657 15.8244 4.75818 16.3775C3.9398 16.9306 3.30563 17.7159 2.93728 18.6325C2.56893 19.549 2.48325 20.5547 2.69126 21.5203C2.89927 22.4859 3.39146 23.3672 4.10449 24.0508C3.17506 24.4868 2.38862 25.1779 1.83676 26.0436C1.28489 26.9093 0.990307 27.914 0.987305 28.9406V29.5781C0.987026 30.0319 1.14478 30.4717 1.43348 30.8218C1.72218 31.172 2.12379 31.4107 2.56934 31.4969C5.84676 32.1255 9.21379 32.1255 12.4912 31.4969C12.9368 31.4107 13.3384 31.172 13.6271 30.8218C13.9158 30.4717 14.0735 30.0319 14.0732 29.5781V28.9406C14.0706 27.9137 13.7759 26.9087 13.2237 26.0429C12.6715 25.1772 11.8845 24.4862 10.9545 24.0508ZM7.52949 17.4688C8.12766 17.4688 8.71239 17.6461 9.20974 17.9785C9.70709 18.3108 10.0947 18.7832 10.3236 19.3358C10.5525 19.8885 10.6123 20.4966 10.4955 21.0833C10.3788 21.6699 10.0907 22.2088 9.66766 22.6317C9.24464 23.0546 8.7057 23.3426 8.11901 23.4592C7.53232 23.5758 6.92422 23.5158 6.37163 23.2868C5.81904 23.0577 5.34678 22.67 5.01457 22.1726C4.68235 21.6751 4.50512 21.0904 4.50527 20.4922C4.5061 19.6904 4.82501 18.9218 5.39201 18.3549C5.959 17.7881 6.72775 17.4694 7.52949 17.4688ZM12.1279 29.607C9.31226 30.1358 6.4258 30.1681 3.59902 29.7023C3.37012 29.6625 3.14121 29.6242 2.91387 29.5781V28.9406C2.91469 28.013 3.28352 27.1235 3.9394 26.4675C4.59528 25.8115 5.48464 25.4424 6.4123 25.4414H8.64668C9.57441 25.4424 10.4639 25.8114 11.1199 26.4674C11.7759 27.1235 12.1449 28.0129 12.1459 28.9406L12.1279 29.607Z" fill="#126DFB"/>
</svg>
