<svg width="40" height="32" viewBox="0 0 40 32" fill="none" xmlns="http://www.w3.org/2000/svg">
<path d="M20.6941 10.6523V9.85432C20.6941 9.55275 20.9385 9.30838 21.24 9.30838C21.5415 9.30838 21.7859 9.55283 21.7859 9.85432V10.6523C21.7859 10.9538 21.5415 11.1982 21.24 11.1982C20.9385 11.1982 20.6941 10.9538 20.6941 10.6523ZM21.2399 25.2003C20.9384 25.2003 20.694 25.4447 20.694 25.7462V26.5441C20.694 26.8456 20.9384 27.09 21.2399 27.09C21.5414 27.09 21.7859 26.8456 21.7859 26.5441V25.7462C21.7859 25.4447 21.5415 25.2003 21.2399 25.2003ZM26.5755 13.4085C26.7149 13.4085 26.8543 13.3555 26.9609 13.2494L27.5267 12.6858C27.7403 12.473 27.741 12.1274 27.5282 11.9137C27.3155 11.7002 26.9698 11.6995 26.7561 11.9122L26.1902 12.4758C25.9766 12.6886 25.9759 13.0342 26.1888 13.2479C26.2954 13.3549 26.4355 13.4085 26.5755 13.4085ZM15.5154 23.1506L14.9518 23.7165C14.739 23.9302 14.7397 24.2758 14.9533 24.4886C15.0598 24.5947 15.1992 24.6478 15.3386 24.6478C15.4787 24.6478 15.6188 24.5942 15.7254 24.487L16.289 23.9212C16.5018 23.7075 16.5011 23.3619 16.2875 23.1491C16.0738 22.9365 15.7282 22.9371 15.5154 23.1506ZM13.6919 17.6544H12.894C12.5925 17.6544 12.348 17.8988 12.348 18.2003C12.348 18.5019 12.5925 18.7463 12.894 18.7463H13.6919C13.9934 18.7463 14.2378 18.5018 14.2378 18.2003C14.2378 17.8988 13.9934 17.6544 13.6919 17.6544ZM15.5162 13.2486C15.6228 13.3553 15.7625 13.4085 15.9022 13.4085C16.0419 13.4085 16.1816 13.3553 16.2882 13.2486C16.5014 13.0354 16.5014 12.6897 16.2882 12.4765L15.7246 11.9129C15.5114 11.6997 15.1658 11.6997 14.9526 11.9129C14.7394 12.1261 14.7394 12.4718 14.9526 12.685L15.5162 13.2486ZM23.3591 13.6293L22.2568 16.8542C22.6633 17.1628 22.9265 17.6513 22.9265 18.2003C22.9265 19.1303 22.1699 19.8868 21.2401 19.8868C20.309 19.8868 19.5514 19.1303 19.5514 18.2003C19.5514 17.276 20.298 16.5231 21.2198 16.5123L22.3259 13.2762C22.4235 12.991 22.7338 12.8386 23.0191 12.9362C23.3043 13.0336 23.4566 13.344 23.3591 13.6293ZM21.8345 18.2003C21.8345 17.8713 21.5678 17.6037 21.2399 17.6037C20.9109 17.6037 20.6431 17.8713 20.6431 18.2003C20.6431 18.5282 20.9109 18.7949 21.2399 18.7949C21.5678 18.7949 21.8345 18.5282 21.8345 18.2003ZM39.9609 23.1912C39.9609 23.6734 39.9213 24.157 39.8431 24.6287C39.7995 24.8921 39.5716 25.0854 39.3045 25.0854H38.0244C37.8716 25.6352 37.6535 26.1608 37.3727 26.6561L38.2781 27.5616C38.4669 27.7503 38.4915 28.0479 38.3363 28.2651C37.7747 29.051 37.0913 29.7352 36.3049 30.2988C36.0877 30.4545 35.7898 30.4302 35.6008 30.2412L34.6948 29.3353C34.1977 29.6167 33.6713 29.835 33.1223 29.9874V31.2674C33.1223 31.5343 32.9294 31.7621 32.6661 31.806C32.1966 31.8842 31.7128 31.9239 31.228 31.9239C30.7456 31.9239 30.262 31.8842 29.7905 31.806C29.527 31.7624 29.3338 31.5345 29.3338 31.2674V29.9875C29.068 29.9137 28.8076 29.8241 28.553 29.7197C26.3666 31.1105 23.8449 31.8444 21.2398 31.8444C16.0945 31.8444 11.606 28.9813 9.28211 24.7649H3.67938C3.37789 24.7649 3.13344 24.5204 3.13344 24.2189C3.13344 23.9174 3.37789 23.673 3.67938 23.673H8.74297C8.50078 23.1221 8.29352 22.5526 8.125 21.9667H2.83281C2.53133 21.9667 2.28688 21.7223 2.28688 21.4208C2.28688 21.1193 2.53133 20.8749 2.83281 20.8749H7.85984C7.74859 20.3174 7.67156 19.748 7.6307 19.1686H0.585C0.283516 19.1686 0.0390625 18.9242 0.0390625 18.6227C0.0390625 18.3212 0.283516 18.0767 0.585 18.0767H7.59758C7.60273 17.4996 7.64375 16.9309 7.71875 16.3728H2.83281C2.53133 16.3728 2.28688 16.1283 2.28688 15.8268C2.28688 15.5253 2.53133 15.2809 2.83281 15.2809H7.91141C8.03906 14.6974 8.20375 14.1278 8.40367 13.5746H3.67938C3.37789 13.5746 3.13344 13.3302 3.13344 13.0287C3.13344 12.7272 3.37789 12.4828 3.67938 12.4828H8.85328C9.66164 10.738 10.8277 9.19158 12.2571 7.93846L11.0096 6.22424L10.0105 6.95189C9.91352 7.02252 9.80102 7.05658 9.68961 7.05658C9.52102 7.05658 9.35469 6.97877 9.24781 6.83205C9.07031 6.5883 9.12398 6.24689 9.36773 6.06939L12.2477 3.97189C12.4915 3.79431 12.833 3.84799 13.0105 4.09174C13.188 4.33549 13.1343 4.67689 12.8905 4.85439L11.8923 5.5815L13.107 7.25072C14.8486 5.95338 16.9088 5.06119 19.1469 4.7151V3.44681H17.6925C17.391 3.44681 17.1466 3.20236 17.1466 2.90088V0.622048C17.1466 0.320486 17.391 0.0761108 17.6925 0.0761108H24.7852C25.0867 0.0761108 25.3312 0.320564 25.3312 0.622048V2.90088C25.3312 3.20244 25.0867 3.44681 24.7852 3.44681H23.333V4.71494C29.4326 5.65619 34.2385 10.6455 34.8239 16.9158L35.5987 16.1411C35.7875 15.9524 36.085 15.9278 36.3021 16.083C37.0916 16.6473 37.7759 17.331 38.3363 18.1149C38.4915 18.3321 38.4669 18.6297 38.2781 18.8185L37.3723 19.7243C37.6537 20.2215 37.872 20.7478 38.0245 21.2969H39.3045C39.5714 21.2969 39.7991 21.4899 39.843 21.7531C39.9212 22.2228 39.9609 22.7067 39.9609 23.1912ZM18.2384 2.35486H24.2394V1.16799H18.2384V2.35486ZM20.2387 4.59103C20.5694 4.56697 20.9032 4.55416 21.2399 4.55416C21.5766 4.55416 21.9104 4.5665 22.2412 4.59056V3.44681H20.2387V4.59103ZM21.2399 30.7524C22.7747 30.7524 24.2776 30.4749 25.6883 29.94C25.2313 29.5649 24.8148 29.1453 24.4426 28.6858C23.4081 29.001 22.3327 29.1611 21.2399 29.1611C15.1949 29.1611 10.277 24.2441 10.277 18.2003C10.277 12.1553 15.1949 7.23728 21.2399 7.23728C23.6061 7.23728 25.8593 7.97932 27.7559 9.38314C29.5088 10.6805 30.8138 12.4309 31.5491 14.4628C31.9207 14.4768 32.2951 14.5143 32.6662 14.5762C32.9294 14.62 33.1223 14.8478 33.1223 15.1147V16.3925C33.3141 16.4457 33.5028 16.5075 33.6887 16.5767C32.8895 10.3777 27.5886 5.64596 21.2399 5.64596C14.3187 5.64596 8.68781 11.2778 8.68781 18.2003C8.68781 25.1216 14.3188 30.7524 21.2399 30.7524ZM24.12 18.1149C24.6804 17.3309 25.3648 16.6472 26.1542 16.083C26.3713 15.9277 26.6689 15.9523 26.8577 16.1411L27.7613 17.0448C28.2585 16.7634 28.7848 16.545 29.3339 16.3926V15.1148C29.3339 14.8478 29.5271 14.6199 29.7905 14.5762C29.9912 14.5429 30.1925 14.5181 30.3934 14.4986C28.8946 10.7809 25.302 8.32924 21.2399 8.32924C15.797 8.32924 11.3688 12.7574 11.3688 18.2003C11.3688 23.642 15.797 28.0692 21.2399 28.0692C22.2197 28.0692 23.1834 27.9262 24.1104 27.6452C24.1301 27.6156 24.1522 27.5874 24.1781 27.5615L25.0837 26.656C24.8028 26.1607 24.5847 25.6351 24.432 25.0853H23.1518C22.8848 25.0853 22.6569 24.8921 22.6132 24.6286C22.535 24.157 22.4954 23.6733 22.4954 23.1911C22.4954 22.7066 22.5351 22.2228 22.6133 21.7531C22.6571 21.4899 22.8849 21.2968 23.1518 21.2968H24.4318C24.5842 20.7478 24.8026 20.2214 25.084 19.7243L24.1781 18.8184C23.9894 18.6297 23.9648 18.3321 24.12 18.1149ZM38.8691 23.1912C38.8691 22.9222 38.8552 22.6538 38.8276 22.3888H37.5959C37.3377 22.3888 37.1149 22.208 37.0617 21.9553C36.9103 21.2361 36.6291 20.558 36.2259 19.9398C36.0848 19.7235 36.1145 19.4381 36.297 19.2555L37.169 18.3835C36.832 17.9676 36.4522 17.5885 36.0337 17.2502L35.1638 18.1202C34.9812 18.3026 34.6958 18.3324 34.4795 18.1913C33.8612 17.7881 33.183 17.5069 32.4639 17.3555C32.2113 17.3023 32.0305 17.0794 32.0305 16.8213V15.5911C31.4945 15.5341 30.9655 15.5338 30.4258 15.5913V16.8213C30.4258 17.0794 30.2449 17.3023 29.9923 17.3555C29.2732 17.5069 28.595 17.7881 27.9767 18.1913C27.7604 18.3325 27.4749 18.3026 27.2924 18.1202L26.4225 17.2502C26.0041 17.5884 25.6242 17.9676 25.2873 18.3835L26.1592 19.2555C26.3418 19.4381 26.3715 19.7235 26.2305 19.9398C25.8273 20.558 25.546 21.2362 25.3946 21.9553C25.3414 22.208 25.1185 22.3888 24.8604 22.3888H23.6287C23.6012 22.6538 23.5873 22.9223 23.5873 23.1912C23.5873 23.4592 23.6013 23.7277 23.6289 23.9935H24.8604C25.1184 23.9935 25.3412 24.1742 25.3945 24.4267C25.5468 25.1479 25.8279 25.8253 26.23 26.4397C26.3716 26.656 26.342 26.942 26.1592 27.1247L25.2872 27.9967C25.625 28.4142 26.0048 28.794 26.4223 29.1318L27.2921 28.2604C27.4747 28.0775 27.7603 28.0476 27.9767 28.1888C28.2113 28.3419 28.4546 28.4771 28.7054 28.5945C28.7126 28.5974 28.7196 28.6008 28.7267 28.604C29.1306 28.7912 29.5538 28.9324 29.9923 29.0248C30.2449 29.078 30.4258 29.3009 30.4258 29.559V30.7905C30.9583 30.846 31.5016 30.8458 32.0305 30.7906V29.559C32.0305 29.3009 32.2113 29.078 32.4639 29.0248C33.183 28.8734 33.8613 28.5922 34.4795 28.1889C34.6959 28.0476 34.9812 28.0775 35.1638 28.2601L36.0354 29.1317C36.4524 28.7935 36.8318 28.4137 37.1691 27.9968L36.297 27.1248C36.1142 26.942 36.0847 26.6561 36.2262 26.4398C36.6284 25.8253 36.9095 25.148 37.0617 24.4267C37.115 24.1742 37.3378 23.9935 37.5959 23.9935H38.8273C38.8551 23.7276 38.8691 23.4592 38.8691 23.1912ZM35.715 23.1912C35.715 25.6653 33.7023 27.6781 31.2282 27.6781C28.7541 27.6781 26.7413 25.6653 26.7413 23.1912C26.7413 20.7171 28.7541 18.7043 31.2282 18.7043C33.7023 18.7043 35.715 20.7171 35.715 23.1912ZM34.6231 23.1912C34.6231 21.3192 33.1002 19.7962 31.2281 19.7962C29.3561 19.7962 27.8331 21.3192 27.8331 23.1912C27.8331 25.0632 29.3561 26.5862 31.2281 26.5862C33.1002 26.5861 34.6231 25.0631 34.6231 23.1912Z" fill="#126DFB"/>
</svg>
