<svg width="40" height="40" viewBox="0 0 40 40" fill="none" xmlns="http://www.w3.org/2000/svg">
<path d="M33.036 9.87343C30.8039 8.98983 29.0328 7.36327 28.0469 5.29374C27.9129 5.01625 27.7035 4.7821 27.4427 4.61809C27.1818 4.45408 26.88 4.36686 26.5719 4.36639H13.5828C13.275 4.36715 12.9735 4.45451 12.713 4.6185C12.4524 4.78249 12.2432 5.01649 12.1094 5.29374C11.125 7.36327 9.35393 8.98983 7.1219 9.87343C6.81734 9.99358 6.55621 10.203 6.37274 10.4741C6.18927 10.7453 6.09203 11.0656 6.09377 11.393V14.5531C6.09377 18.6937 7.30159 22.7859 9.58674 26.3851C11.8938 30.0195 15.2375 33.0562 19.2547 35.168L19.3203 35.2023C19.5552 35.326 19.8166 35.3906 20.0821 35.3906C20.3475 35.3906 20.6089 35.326 20.8438 35.2023L20.9094 35.168C24.9274 33.0586 28.2703 30.0195 30.5774 26.3851C32.8625 22.7859 34.0703 18.6945 34.0703 14.5531V11.393C34.0716 11.0648 33.9734 10.744 33.7888 10.4728C33.6041 10.2015 33.3417 9.99258 33.036 9.87343ZM31.875 15.1758C31.875 18.6812 30.8531 22.1445 28.9188 25.1906C26.9656 28.2664 24.1367 30.8367 20.736 32.6242L20.6805 32.6531C20.4816 32.7578 20.2603 32.8125 20.0356 32.8125C19.8108 32.8125 19.5895 32.7578 19.3906 32.6531L19.3352 32.6242C15.9352 30.8367 13.1055 28.2664 11.1524 25.1906C9.21877 22.1445 8.20315 18.6812 8.20315 15.1758V12.5C8.20172 12.2226 8.28423 11.9513 8.43984 11.7216C8.59544 11.492 8.81686 11.3148 9.07502 11.2133C10.9641 10.4656 12.4633 9.08905 13.2938 7.33671C13.4075 7.10208 13.5852 6.90431 13.8063 6.76612C14.0274 6.62792 14.283 6.55491 14.5438 6.55546H25.5367C25.7974 6.55509 26.053 6.62818 26.2741 6.76636C26.4952 6.90453 26.6728 7.1022 26.7867 7.33671C27.6203 9.08905 29.1196 10.4617 31.0055 11.2133C31.2632 11.3151 31.4841 11.4925 31.6393 11.7221C31.7945 11.9517 31.8766 12.2229 31.875 12.5V15.1758Z" fill="#93C0FC"/>
<path d="M20.0172 9.25549C21.0687 9.25591 22.0771 9.67358 22.8209 10.4168C23.5647 11.16 23.9832 12.1681 23.9844 13.2196V15.8531H25.1992C25.4573 15.8538 25.7046 15.9567 25.8869 16.1393C26.0692 16.3219 26.1717 16.5693 26.1719 16.8274V23.3227C26.1719 23.4507 26.1466 23.5776 26.0976 23.6959C26.0485 23.8142 25.9766 23.9216 25.886 24.0121C25.7954 24.1026 25.6878 24.1743 25.5694 24.2232C25.451 24.2721 25.3242 24.2971 25.1961 24.2969H14.8391C14.5809 24.2967 14.3333 24.1941 14.1507 24.0116C13.9681 23.8291 13.8653 23.5816 13.8649 23.3235V16.8274C13.8653 16.5691 13.9681 16.3216 14.1507 16.1389C14.3333 15.9563 14.5808 15.8536 14.8391 15.8531H16.0539V13.2196C16.055 12.1687 16.4728 11.1611 17.2158 10.418C17.9589 9.6748 18.9663 9.25673 20.0172 9.25549Z" fill="#93C0FC"/>
<path d="M20.0172 18.5219C19.776 18.5219 19.5419 18.604 19.3536 18.7548C19.1653 18.9056 19.034 19.116 18.9812 19.3514C18.9285 19.5868 18.9574 19.8331 19.0634 20.0499C19.1693 20.2666 19.3459 20.4408 19.5641 20.5437V21.8359C19.5689 21.9529 19.6188 22.0636 19.7034 22.1446C19.7879 22.2257 19.9005 22.271 20.0176 22.271C20.1347 22.271 20.2473 22.2257 20.3318 22.1446C20.4163 22.0636 20.4662 21.9529 20.4711 21.8359V20.5469C20.6893 20.4439 20.866 20.2696 20.9719 20.0528C21.0778 19.836 21.1067 19.5896 21.0539 19.3541C21.001 19.1187 20.8695 18.9083 20.6811 18.7576C20.4927 18.6068 20.2585 18.5248 20.0172 18.525V18.5219Z" fill="#126DFB"/>
<path d="M31.339 10.982C29.3859 10.2094 27.8359 8.78593 26.9742 6.97421C26.8571 6.73147 26.6741 6.52664 26.4459 6.3832C26.2178 6.23977 25.9538 6.16355 25.6843 6.16327H14.3156C14.0461 6.16355 13.7822 6.23977 13.554 6.3832C13.3259 6.52664 13.1428 6.73147 13.0258 6.97421C12.1664 8.78593 10.614 10.2094 8.66091 10.982C8.39441 11.0869 8.16578 11.2698 8.00492 11.5068C7.84406 11.7437 7.75847 12.0237 7.75934 12.3101V15.0781C7.75934 18.7023 8.81638 22.2828 10.8156 25.432C12.8343 28.6125 15.7601 31.2703 19.2758 33.118L19.3336 33.1484C19.539 33.2567 19.7677 33.3132 20 33.3132C20.2322 33.3132 20.4609 33.2567 20.6664 33.1484L20.7242 33.118C24.2398 31.2703 27.1656 28.6125 29.1843 25.432C31.1843 22.2828 32.2406 18.7023 32.2406 15.0781V12.3125C32.2419 12.0257 32.1566 11.7452 31.9957 11.5078C31.8348 11.2703 31.6059 11.0871 31.339 10.982ZM31.3336 15.0781C31.3336 18.5305 30.3258 21.9422 28.4187 24.9461C26.4843 27.993 23.6773 30.5406 20.3023 32.3156L20.2445 32.3453C20.1691 32.3849 20.0852 32.4056 20 32.4056C19.9148 32.4056 19.8309 32.3849 19.7554 32.3453L19.6984 32.3156C16.3226 30.5398 13.5156 27.9922 11.5812 24.9453C9.67419 21.9414 8.66638 18.5297 8.66638 15.0773V12.3125C8.66562 12.2077 8.69656 12.1052 8.75511 12.0183C8.81367 11.9315 8.89711 11.8644 8.9945 11.8258C11.1617 10.9664 12.8843 9.38358 13.8445 7.36405C13.8874 7.27623 13.954 7.2022 14.0369 7.15041C14.1198 7.09861 14.2155 7.07113 14.3133 7.07108H25.6843C25.7821 7.07122 25.8778 7.09874 25.9606 7.15053C26.0435 7.20231 26.1102 7.27628 26.1531 7.36405C27.1133 9.38358 28.8359 10.968 31.0031 11.8258C31.1005 11.8644 31.1839 11.9315 31.2425 12.0183C31.301 12.1052 31.332 12.2077 31.3312 12.3125L31.3336 15.0781Z" fill="#126DFB"/>
<path d="M33.6133 19.3828C33.5552 19.3697 33.4951 19.3681 33.4364 19.3782C33.3778 19.3882 33.3216 19.4098 33.2713 19.4416C33.2209 19.4733 33.1773 19.5147 33.143 19.5634C33.1086 19.612 33.0842 19.6669 33.0711 19.725C31.6899 25.8367 27.482 31.1375 21.5266 34.268L20.143 34.9953C20.0988 35.0181 20.0497 35.03 20 35.03C19.9503 35.03 19.9013 35.0181 19.857 34.9953L18.4735 34.268C12.5094 31.1328 8.29923 25.8227 6.92345 19.7C6.89335 19.5866 6.82051 19.4893 6.72021 19.4284C6.6199 19.3675 6.49992 19.3479 6.38544 19.3735C6.27095 19.3992 6.17085 19.4682 6.10613 19.5661C6.04141 19.6639 6.0171 19.7831 6.03829 19.8985C7.47267 26.2821 11.8508 31.8117 18.0516 35.0711L19.4352 35.7985C19.6094 35.8898 19.8033 35.9376 20 35.9376C20.1968 35.9376 20.3906 35.8898 20.5649 35.7985L21.9485 35.0703C28.1391 31.8172 32.5156 26.2961 33.9563 19.9219C33.9817 19.805 33.9599 19.6828 33.8957 19.5818C33.8315 19.4809 33.73 19.4093 33.6133 19.3828Z" fill="#126DFB"/>
<path d="M33.393 9.25313C30.9711 8.99766 29.0656 7.3 28.7609 5.11875C28.7204 4.82751 28.5765 4.56055 28.3555 4.36663C28.1345 4.17271 27.8511 4.06476 27.557 4.0625H12.443C12.1489 4.06476 11.8655 4.17271 11.6445 4.36663C11.4235 4.56055 11.2796 4.82751 11.2391 5.11875C10.9344 7.29766 9.0297 8.99766 6.60704 9.25313C6.3101 9.28523 6.03563 9.42636 5.83675 9.64919C5.63788 9.87202 5.52875 10.1607 5.53048 10.4594V15.3305C5.53058 16.041 5.56708 16.751 5.63985 17.4578C5.65149 17.5699 5.7044 17.6736 5.7883 17.7489C5.87219 17.8241 5.98107 17.8654 6.09376 17.8648C6.10938 17.8648 6.12501 17.8648 6.14063 17.8648C6.1999 17.8588 6.2574 17.8411 6.30983 17.8128C6.36226 17.7845 6.4086 17.7462 6.44618 17.6999C6.48377 17.6537 6.51188 17.6005 6.52889 17.5434C6.5459 17.4863 6.55148 17.4264 6.54532 17.3672C6.47643 16.6923 6.44175 16.0143 6.44141 15.3359V10.4594C6.44086 10.3858 6.46701 10.3146 6.51499 10.2588C6.56297 10.2031 6.62954 10.1666 6.70235 10.1562C9.53985 9.85703 11.775 7.8375 12.1375 5.24531C12.1466 5.17029 12.1825 5.10109 12.2387 5.05053C12.2948 4.99996 12.3674 4.97147 12.443 4.97031H27.557C27.6326 4.97147 27.7052 4.99996 27.7613 5.05053C27.8175 5.10109 27.8535 5.17029 27.8625 5.24531C28.225 7.8375 30.4602 9.85469 33.2977 10.1562C33.3712 10.166 33.4386 10.2022 33.4872 10.2582C33.5359 10.3142 33.5624 10.386 33.5617 10.4602V15.3313C33.5615 16.0036 33.5276 16.6756 33.4602 17.3445C33.4531 17.4615 33.4915 17.5766 33.5673 17.6659C33.6431 17.7552 33.7506 17.8117 33.8671 17.8236C33.9836 17.8355 34.1003 17.8019 34.1926 17.7298C34.2849 17.6577 34.3458 17.5527 34.3625 17.4367C34.4338 16.7359 34.4696 16.0318 34.4695 15.3273V10.4594C34.4713 10.1607 34.3621 9.87202 34.1633 9.64919C33.9644 9.42636 33.6899 9.28523 33.393 9.25313Z" fill="#126DFB"/>
<path d="M25.1961 15.3843H24.4531V13.2195C24.4609 12.6325 24.352 12.0498 24.1328 11.5052C23.9135 10.9606 23.5883 10.4649 23.1759 10.0471C22.7636 9.62919 22.2723 9.29739 21.7307 9.07092C21.189 8.84446 20.6078 8.72784 20.0207 8.72784C19.4336 8.72784 18.8524 8.84446 18.3108 9.07092C17.7691 9.29739 17.2779 9.62919 16.8655 10.0471C16.4531 10.4649 16.1279 10.9606 15.9086 11.5052C15.6894 12.0498 15.5805 12.6325 15.5883 13.2195V15.3843H14.8422C14.4597 15.385 14.093 15.5372 13.8226 15.8077C13.5521 16.0781 13.3999 16.4448 13.3992 16.8273V23.3226C13.3996 23.7047 13.5514 24.071 13.8212 24.3414C14.0911 24.6118 14.457 24.7644 14.8391 24.7656H25.1961C25.3857 24.7657 25.5735 24.7285 25.7487 24.656C25.9239 24.5835 26.0831 24.4773 26.2172 24.3433C26.3514 24.2093 26.4578 24.0502 26.5304 23.8751C26.6031 23.6999 26.6405 23.5122 26.6406 23.3226V16.8273C26.6402 16.4445 26.4878 16.0775 26.217 15.8069C25.9461 15.5363 25.5789 15.3843 25.1961 15.3843ZM16.4922 13.2195C16.4852 12.7521 16.5713 12.288 16.7453 11.8542C16.9194 11.4204 17.1779 11.0255 17.506 10.6925C17.8341 10.3596 18.225 10.0952 18.6562 9.91467C19.0874 9.73418 19.5502 9.64124 20.0176 9.64124C20.485 9.64124 20.9478 9.73418 21.379 9.91467C21.8101 10.0952 22.2011 10.3596 22.5292 10.6925C22.8572 11.0255 23.1158 11.4204 23.2898 11.8542C23.4639 12.288 23.5499 12.7521 23.543 13.2195V15.3843H16.4922V13.2195ZM25.7313 23.3226C25.7313 23.4646 25.6749 23.6007 25.5745 23.701C25.4742 23.8014 25.338 23.8578 25.1961 23.8578H14.8391C14.6971 23.8578 14.561 23.8014 14.4607 23.701C14.3603 23.6007 14.3039 23.4646 14.3039 23.3226V16.8273C14.3039 16.6854 14.3603 16.5493 14.4607 16.4489C14.561 16.3485 14.6971 16.2922 14.8391 16.2922H25.1961C25.338 16.2922 25.4742 16.3485 25.5745 16.4489C25.6749 16.5493 25.7313 16.6854 25.7313 16.8273V23.3226Z" fill="#126DFB"/>
</svg>
