<svg width="126" height="44" viewBox="0 0 126 44" fill="none" xmlns="http://www.w3.org/2000/svg">
<g clip-path="url(#clip0_517_519)">
<path d="M39.8134 23.6088C39.8134 31.303 33.5784 37.538 25.8841 37.538H8.93258L10.7858 31.7187L17.8024 9.67948H25.8841C27.7958 9.67948 29.6165 10.0648 31.2727 10.7598C32.9527 11.4656 34.4638 12.4896 35.7325 13.7582C38.2525 16.2782 39.8134 19.7616 39.8134 23.6066V23.6088Z" fill="#BE1E2D"/>
<path d="M15.5898 43.8056L17.5859 37.538H8.90227L6.90619 43.8056H15.5898Z" fill="#BE1E2D"/>
<path opacity="0.15" d="M24.2929 32.6821L31.2727 10.7598C29.6165 10.0627 27.7958 9.67948 25.8841 9.67948H17.8024L10.4783 32.6821H24.2929Z" fill="black"/>
<path d="M30.8808 0H13.9293C6.23722 0 0 6.23722 0 13.9293C0 21.6213 6.23722 27.8586 13.9293 27.8586H22.011L30.8808 0Z" fill="#122241"/>
<path d="M53.0326 22.1041C52.7403 22.6324 52.29 23.0589 51.6838 23.3836C51.0776 23.7084 50.3242 23.8707 49.4258 23.8707H47.7631V27.8239H45.0807V16.8108H49.4258C50.3047 16.8108 51.0473 16.9624 51.6535 17.2655C52.2597 17.5686 52.7143 17.9864 53.0174 18.5211C53.3205 19.0537 53.4721 19.6664 53.4721 20.357C53.4721 20.9957 53.3248 21.5781 53.0326 22.1063V22.1041ZM50.3654 21.3724C50.6165 21.1321 50.7421 20.7922 50.7421 20.3527C50.7421 19.9132 50.6165 19.5733 50.3654 19.333C50.1142 19.0927 49.7332 18.9715 49.2201 18.9715H47.7609V21.7318H49.2201C49.7332 21.7318 50.1142 21.6127 50.3654 21.3702V21.3724Z" fill="#BE1E2D"/>
<path d="M61.7248 25.8755H57.6136L56.9555 27.8218H54.1475L58.1332 16.8087H61.2399L65.2256 27.8218H62.3852L61.727 25.8755H61.7248ZM61.0342 23.8058L59.6703 19.7747L58.3215 23.8058H61.0364H61.0342Z" fill="#BE1E2D"/>
<path d="M68.25 27.5382C67.6113 27.2762 67.1026 26.8908 66.7215 26.3777C66.3405 25.8647 66.1392 25.2476 66.1175 24.5267H68.9731C69.0142 24.9337 69.1549 25.2455 69.3974 25.4598C69.6377 25.6741 69.9516 25.7824 70.3392 25.7824C70.7267 25.7824 71.0493 25.6915 71.2809 25.5074C71.5104 25.3256 71.6252 25.0701 71.6252 24.7475C71.6252 24.4748 71.5342 24.2518 71.3502 24.0721C71.1662 23.8945 70.9432 23.7473 70.6747 23.6326C70.4085 23.5178 70.0296 23.3879 69.5381 23.2407C68.8259 23.0221 68.2457 22.8012 67.7975 22.5826C67.3472 22.3639 66.9597 22.0392 66.6371 21.6105C66.3124 21.1819 66.15 20.6233 66.15 19.9327C66.15 18.9087 66.5202 18.1055 67.2628 17.5253C68.0054 16.9451 68.9731 16.655 70.166 16.655C71.3589 16.655 72.3569 16.9451 73.0995 17.5253C73.8421 18.1055 74.2382 18.913 74.2924 19.95H71.3892C71.3675 19.595 71.2376 19.3135 70.9973 19.11C70.757 18.9065 70.4474 18.8048 70.0707 18.8048C69.746 18.8048 69.484 18.8914 69.287 19.0645C69.0878 19.2377 68.9882 19.4867 68.9882 19.8093C68.9882 20.1643 69.1549 20.4415 69.4905 20.6406C69.8261 20.8398 70.3478 21.0541 71.0601 21.2836C71.7702 21.5239 72.3482 21.7534 72.7942 21.9742C73.238 22.1929 73.6234 22.5133 73.9481 22.9311C74.2729 23.349 74.4353 23.8881 74.4353 24.5462C74.4353 25.2043 74.275 25.7434 73.9568 26.2565C73.6364 26.7696 73.1753 27.1766 72.5691 27.4797C71.9629 27.7828 71.2463 27.9343 70.4193 27.9343C69.5923 27.9343 68.893 27.8044 68.2543 27.5425L68.25 27.5382Z" fill="#BE1E2D"/>
<path d="M77.8992 27.5382C77.2605 27.2762 76.7517 26.8908 76.3707 26.3777C75.9897 25.8647 75.7883 25.2476 75.7667 24.5267H78.6223C78.6634 24.9337 78.8041 25.2455 79.0466 25.4598C79.2869 25.6741 79.6008 25.7824 79.9883 25.7824C80.3759 25.7824 80.6984 25.6915 80.9301 25.5074C81.1596 25.3256 81.2743 25.0701 81.2743 24.7475C81.2743 24.4748 81.1834 24.2518 80.9994 24.0721C80.8154 23.8945 80.5924 23.7473 80.3239 23.6326C80.0576 23.5178 79.6788 23.3879 79.1873 23.2407C78.475 23.0221 77.8948 22.8012 77.4467 22.5826C76.9964 22.3639 76.6089 22.0392 76.2863 21.6105C75.9615 21.1819 75.7992 20.6233 75.7992 19.9327C75.7992 18.9087 76.1694 18.1055 76.912 17.5253C77.6545 16.9451 78.6223 16.655 79.8151 16.655C81.008 16.655 82.0061 16.9451 82.7487 17.5253C83.4912 18.1055 83.8874 18.913 83.9415 19.95H81.0383C81.0167 19.595 80.8868 19.3135 80.6465 19.11C80.4062 18.9065 80.0966 18.8048 79.7199 18.8048C79.3951 18.8048 79.1332 18.8914 78.9362 19.0645C78.737 19.2377 78.6374 19.4867 78.6374 19.8093C78.6374 20.1643 78.8041 20.4415 79.1397 20.6406C79.4752 20.8398 79.997 21.0541 80.7093 21.2836C81.4194 21.5239 81.9974 21.7534 82.4434 21.9742C82.8872 22.1929 83.2726 22.5133 83.5973 22.9311C83.9221 23.349 84.0844 23.8881 84.0844 24.5462C84.0844 25.2043 83.9242 25.7434 83.606 26.2565C83.2856 26.7696 82.8244 27.1766 82.2182 27.4797C81.6121 27.7828 80.8955 27.9343 80.0684 27.9343C79.2414 27.9343 78.5422 27.8044 77.9035 27.5425L77.8992 27.5382Z" fill="#BE1E2D"/>
<path d="M93.6817 22.1041C93.3894 22.6324 92.9391 23.0589 92.3329 23.3836C91.7267 23.7084 90.9733 23.8707 90.0749 23.8707H88.4122V27.8239H85.7298V16.8108H90.0749C90.9538 16.8108 91.6964 16.9624 92.3026 17.2655C92.9088 17.5686 93.3634 17.9864 93.6665 18.5211C93.9696 19.0537 94.1211 19.6664 94.1211 20.357C94.1211 20.9957 93.9739 21.5781 93.6817 22.1063V22.1041ZM91.0144 21.3724C91.2656 21.1321 91.3911 20.7922 91.3911 20.3527C91.3911 19.9132 91.2656 19.5733 91.0144 19.333C90.7633 19.0927 90.3823 18.9715 89.8692 18.9715H88.41V21.7318H89.8692C90.3823 21.7318 90.7633 21.6127 91.0144 21.3702V21.3724Z" fill="#BE1E2D"/>
<path d="M97.8773 27.2091C97.0135 26.7285 96.3294 26.0552 95.8228 25.1935C95.3162 24.3297 95.0607 23.3598 95.0607 22.2838C95.0607 21.2079 95.314 20.2401 95.8228 19.3806C96.3294 18.5233 97.0157 17.8543 97.8773 17.3716C98.7411 16.8909 99.6894 16.6506 100.724 16.6506C101.759 16.6506 102.709 16.8909 103.571 17.3716C104.435 17.8522 105.115 18.5211 105.611 19.3806C106.106 20.238 106.355 21.2057 106.355 22.2838C106.355 23.362 106.104 24.3319 105.602 25.1935C105.1 26.0573 104.42 26.7285 103.562 27.2091C102.705 27.6897 101.759 27.93 100.722 27.93C99.6851 27.93 98.7368 27.6897 97.8752 27.2091H97.8773ZM102.835 24.6047C103.363 24.0201 103.627 23.2451 103.627 22.2817C103.627 21.3183 103.363 20.5324 102.835 19.9522C102.307 19.372 101.603 19.0819 100.724 19.0819C99.8453 19.0819 99.1265 19.3698 98.5983 19.9457C98.07 20.5216 97.8059 21.3009 97.8059 22.2838C97.8059 23.2667 98.07 24.0331 98.5983 24.6133C99.1265 25.1935 99.8344 25.4836 100.724 25.4836C101.614 25.4836 102.307 25.1914 102.835 24.6047Z" fill="#BE1E2D"/>
<path d="M113.465 27.8218L111.174 23.6651H110.531V27.8218H107.849V16.8087H112.352C113.22 16.8087 113.961 16.9602 114.571 17.2633C115.184 17.5664 115.641 17.9821 115.944 18.5103C116.247 19.0386 116.398 19.6274 116.398 20.2748C116.398 21.0065 116.193 21.6603 115.779 22.2362C115.366 22.8121 114.757 23.2191 113.952 23.4594L116.494 27.8218H113.465ZM110.531 21.7664H112.194C112.686 21.7664 113.054 21.6473 113.3 21.4049C113.545 21.1646 113.668 20.8247 113.668 20.3852C113.668 19.9457 113.545 19.6383 113.3 19.3958C113.054 19.1555 112.686 19.0342 112.194 19.0342H110.531V21.7642V21.7664Z" fill="#BE1E2D"/>
<path d="M126 16.8087V18.9585H123.082V27.8218H120.399V18.9585H117.481V16.8087H126Z" fill="#BE1E2D"/>
<path d="M46.6049 34.059C46.3537 34.059 46.1307 34.0178 45.9402 33.9399C45.7475 33.8598 45.5981 33.7451 45.4899 33.5957C45.3817 33.4463 45.3275 33.2688 45.3275 33.0609C45.3275 32.8293 45.3838 32.6431 45.4964 32.5002C45.609 32.3573 45.7497 32.2599 45.9186 32.2036V32.1841C45.7713 32.1084 45.6501 32.0109 45.5505 31.8854C45.4509 31.762 45.4033 31.5996 45.4033 31.3982C45.4033 31.1969 45.4553 31.0151 45.5592 30.8743C45.6631 30.7336 45.8081 30.6232 45.9987 30.5496C46.187 30.476 46.4078 30.4392 46.659 30.4392C46.9101 30.4392 47.1244 30.4781 47.3128 30.5561C47.5011 30.634 47.6505 30.7444 47.7588 30.8895C47.867 31.0345 47.9211 31.2034 47.9211 31.3961V31.4675H47.5553V31.4221C47.5488 31.2662 47.5055 31.1385 47.4254 31.0432C47.3453 30.9479 47.2392 30.8743 47.105 30.8289C46.9707 30.7834 46.8192 30.7596 46.6481 30.7596C46.5421 30.7596 46.4382 30.7704 46.3342 30.7921C46.2303 30.8137 46.1372 30.8505 46.0528 30.8981C45.9705 30.9479 45.9034 31.0129 45.8536 31.0973C45.8038 31.1796 45.78 31.2813 45.78 31.4004C45.78 31.5498 45.8168 31.6754 45.8904 31.775C45.964 31.8745 46.0593 31.9481 46.1805 31.9936C46.3018 32.0391 46.4295 32.0629 46.5659 32.0629H46.8711V32.3681H46.5767C46.4295 32.3681 46.2909 32.3876 46.1589 32.4244C46.0268 32.4612 45.9186 32.5284 45.8341 32.6258C45.7497 32.7232 45.7086 32.8596 45.7086 33.0371C45.7086 33.2038 45.7475 33.338 45.8276 33.4398C45.9077 33.5415 46.0181 33.6173 46.161 33.665C46.3039 33.7126 46.4663 33.7364 46.6503 33.7364C46.8538 33.7364 47.0227 33.7104 47.1547 33.6606C47.2868 33.6087 47.3864 33.5329 47.4535 33.429C47.5206 33.3251 47.5531 33.1952 47.5531 33.0393V32.0651H48.339V32.3811H47.9211V33.0241C47.9211 33.2514 47.8713 33.442 47.7739 33.5957C47.6743 33.7494 47.5293 33.8641 47.3323 33.9421C47.1374 34.02 46.895 34.059 46.607 34.059H46.6049Z" fill="black"/>
<path d="M52.0021 33.9984L50.6814 30.502H51.1144L52.0475 33.009C52.067 33.0631 52.0908 33.1259 52.1146 33.1952C52.1385 33.2644 52.1623 33.3315 52.1861 33.3987C52.2099 33.4658 52.2294 33.5264 52.2467 33.5805H52.2813C52.2987 33.5286 52.3181 33.4701 52.342 33.4052C52.3658 33.338 52.3896 33.2709 52.4134 33.2017C52.4372 33.1324 52.4589 33.0696 52.4805 33.0155L53.4028 30.502H53.8249L52.5 33.9984H51.9999H52.0021Z" fill="black"/>
<path d="M54.8511 33.9984V30.502H55.2538V33.9984H54.8511Z" fill="black"/>
<path d="M57.96 34.059C57.7738 34.059 57.592 34.0417 57.4144 34.007C57.2369 33.9724 57.081 33.9161 56.9446 33.8338C56.8082 33.7515 56.7022 33.6455 56.6242 33.5134C56.5463 33.3813 56.5073 33.2168 56.5073 33.0198V32.9722C56.5073 32.957 56.5073 32.9419 56.5117 32.9245H56.9143C56.9143 32.9375 56.9143 32.957 56.9122 32.9808C56.91 33.0046 56.91 33.0241 56.91 33.0414C56.91 33.1908 56.9555 33.3164 57.0442 33.416C57.1352 33.5156 57.2564 33.5913 57.4101 33.6411C57.5638 33.6909 57.7392 33.7147 57.9319 33.7147C57.9968 33.7147 58.0726 33.7104 58.1635 33.7018C58.2544 33.6931 58.3454 33.6758 58.4385 33.6498C58.5315 33.6238 58.6181 33.5892 58.6961 33.5437C58.774 33.4982 58.8368 33.4376 58.8866 33.3662C58.9364 33.2926 58.9602 33.2016 58.9602 33.0934C58.9602 32.9678 58.9256 32.8639 58.8585 32.7816C58.7913 32.6994 58.7004 32.6323 58.59 32.5803C58.4796 32.5284 58.354 32.4807 58.2111 32.4396C58.0683 32.3985 57.9232 32.3595 57.7738 32.3227C57.6244 32.2859 57.4794 32.2426 57.3387 32.195C57.1979 32.1473 57.0724 32.0889 56.9598 32.0174C56.8472 31.946 56.7585 31.8572 56.6935 31.7511C56.6264 31.6451 56.5939 31.513 56.5939 31.3571C56.5939 31.2207 56.6221 31.0973 56.6762 30.9847C56.7303 30.8722 56.8126 30.7769 56.9252 30.6968C57.0377 30.6167 57.1806 30.5561 57.3538 30.5106C57.527 30.4673 57.7327 30.4435 57.9708 30.4435C58.1505 30.4435 58.3194 30.463 58.4753 30.4998C58.6311 30.5366 58.7697 30.5951 58.8888 30.6752C59.0078 30.7553 59.1009 30.8548 59.1659 30.9761C59.2308 31.0973 59.2655 31.2424 59.2655 31.4112V31.4719H58.8671V31.3853C58.8671 31.2597 58.8281 31.1536 58.7502 31.067C58.6723 30.9804 58.5684 30.9133 58.4363 30.8635C58.3064 30.8137 58.157 30.7899 57.9903 30.7899C57.763 30.7899 57.5746 30.8137 57.4296 30.8592C57.2824 30.9046 57.1741 30.9674 57.1027 31.0475C57.0312 31.1276 56.9966 31.2164 56.9966 31.316C56.9966 31.4307 57.0312 31.5281 57.0984 31.6039C57.1655 31.6797 57.2564 31.7425 57.369 31.7923C57.4815 31.8421 57.6071 31.8854 57.7478 31.9243C57.8886 31.9633 58.0336 32.0023 58.183 32.0391C58.3324 32.0759 58.4774 32.1192 58.6181 32.169C58.7589 32.2188 58.8866 32.2794 59.0013 32.353C59.1161 32.4266 59.2048 32.5175 59.272 32.6258C59.3391 32.734 59.3715 32.8682 59.3715 33.0285C59.3715 33.2688 59.3109 33.4658 59.1897 33.6195C59.0685 33.7732 58.9039 33.8836 58.6918 33.9551C58.4818 34.0265 58.2371 34.0611 57.9578 34.0611L57.96 34.059Z" fill="black"/>
<path d="M60.2137 33.9984L61.6058 30.502H62.147L63.5434 33.9984H63.1104L62.7445 33.0761H60.9909L60.6294 33.9984H60.2159H60.2137ZM61.1252 32.7275H62.6038L62.1448 31.5606C62.134 31.5325 62.1189 31.4935 62.0994 31.4372C62.0799 31.3831 62.0561 31.3203 62.0301 31.251C62.0041 31.1818 61.9781 31.1103 61.9543 31.0389C61.9284 30.9674 61.9045 30.9025 61.8807 30.8462H61.8461C61.8266 30.9111 61.7985 30.9869 61.7681 31.0757C61.7357 31.1644 61.7032 31.251 61.6707 31.3376C61.6382 31.4242 61.6101 31.4978 61.5863 31.5585L61.1273 32.7254L61.1252 32.7275Z" fill="black"/>
<path d="M66.1565 33.9984V30.502H68.8324V30.8484H66.5592V32.0304H68.6072V32.3811H66.5592V33.6498H68.8627V33.9962H66.1565V33.9984Z" fill="black"/>
<path d="M69.7243 33.9984L71.1359 32.169L69.8521 30.502H70.3457L71.3849 31.8637H71.4108L72.4305 30.502H72.9046L71.6468 32.1646L73.0584 33.9984H72.5647L71.3978 32.4699H71.3719L70.205 33.9984H69.7265H69.7243Z" fill="black"/>
<path d="M74.0867 33.9984V30.502H75.7992C76.0373 30.502 76.2322 30.5474 76.3881 30.6362C76.5418 30.7271 76.6587 30.8484 76.7344 31.0064C76.8102 31.1623 76.8492 31.342 76.8492 31.5411C76.8492 31.7403 76.8059 31.933 76.7171 32.0954C76.6284 32.2577 76.5071 32.3855 76.3491 32.4742C76.1932 32.5652 76.0135 32.6085 75.8078 32.6085H74.4872V33.994H74.0845L74.0867 33.9984ZM74.4894 32.2642H75.7797C75.9767 32.2642 76.1369 32.2014 76.2582 32.0737C76.3794 31.946 76.4422 31.7706 76.4422 31.5455C76.4422 31.4004 76.4184 31.2748 76.3686 31.1709C76.3188 31.067 76.2452 30.9869 76.1477 30.9306C76.0482 30.8743 75.9269 30.8462 75.7819 30.8462H74.4916V32.2621L74.4894 32.2642Z" fill="black"/>
<path d="M77.975 33.9984V30.502H80.6508V30.8484H78.3776V32.0304H80.4257V32.3811H78.3776V33.6498H80.6811V33.9962H77.975V33.9984Z" fill="black"/>
<path d="M81.9455 33.9984V30.502H83.2033C83.5778 30.502 83.8939 30.5626 84.1537 30.6838C84.4135 30.8051 84.6127 30.9934 84.7491 31.2489C84.8855 31.5065 84.9547 31.8399 84.9547 32.2512C84.9547 32.6626 84.8855 32.9873 84.7491 33.2449C84.6105 33.5026 84.4135 33.6931 84.1537 33.8165C83.8939 33.9399 83.5778 34.0005 83.2033 34.0005H81.9455V33.9984ZM82.3481 33.652H83.1881C83.396 33.652 83.5822 33.6281 83.7489 33.5784C83.9156 33.5286 84.0585 33.4506 84.1775 33.3445C84.2966 33.2385 84.3875 33.0999 84.4481 32.9289C84.5088 32.7578 84.5391 32.5543 84.5391 32.3119V32.2058C84.5391 31.9568 84.5088 31.749 84.4481 31.5758C84.3875 31.4047 84.2988 31.264 84.1819 31.1579C84.0649 31.0519 83.9221 30.9739 83.7554 30.9241C83.5887 30.8743 83.4003 30.8505 83.1903 30.8505H82.3503V33.6541L82.3481 33.652Z" fill="black"/>
<path d="M86.2104 33.9984V30.502H86.6131V33.9984H86.2104Z" fill="black"/>
<path d="M88.9015 33.9984V30.8527H87.6631V30.502H90.5533V30.8527H89.3041V33.9984H88.9015Z" fill="black"/>
<path d="M91.6076 33.9984V30.502H94.2835V30.8484H92.0103V32.0304H94.0584V32.3811H92.0103V33.6498H94.3138V33.9962H91.6076V33.9984Z" fill="black"/>
<path d="M98.4532 34.059C98.267 34.059 98.0852 34.0417 97.9076 34.007C97.7301 33.9724 97.5742 33.9161 97.4378 33.8338C97.3015 33.7515 97.1954 33.6455 97.1174 33.5134C97.0395 33.3813 97.0005 33.2168 97.0005 33.0198V32.9722C97.0005 32.957 97.0005 32.9419 97.0049 32.9245H97.4075C97.4075 32.9375 97.4075 32.957 97.4054 32.9808C97.4032 33.0046 97.4032 33.0241 97.4032 33.0414C97.4032 33.1908 97.4487 33.3164 97.5374 33.416C97.6284 33.5156 97.7496 33.5913 97.9033 33.6411C98.057 33.6909 98.2324 33.7147 98.4251 33.7147C98.49 33.7147 98.5658 33.7104 98.6567 33.7018C98.7476 33.6931 98.8386 33.6758 98.9317 33.6498C99.0247 33.6238 99.1113 33.5892 99.1893 33.5437C99.2672 33.4982 99.33 33.4376 99.3798 33.3662C99.4296 33.2926 99.4534 33.2016 99.4534 33.0934C99.4534 32.9678 99.4188 32.8639 99.3517 32.7816C99.2845 32.6994 99.1936 32.6323 99.0832 32.5803C98.9728 32.5284 98.8472 32.4807 98.7043 32.4396C98.5615 32.3985 98.4164 32.3595 98.267 32.3227C98.1176 32.2859 97.9726 32.2426 97.8319 32.195C97.6911 32.1473 97.5656 32.0889 97.453 32.0174C97.3404 31.946 97.2517 31.8572 97.1867 31.7511C97.1196 31.6451 97.0871 31.513 97.0871 31.3571C97.0871 31.2207 97.1153 31.0973 97.1694 30.9847C97.2235 30.8722 97.3058 30.7769 97.4184 30.6968C97.5309 30.6167 97.6738 30.5561 97.847 30.5106C98.0202 30.4673 98.2259 30.4435 98.464 30.4435C98.6437 30.4435 98.8126 30.463 98.9685 30.4998C99.1243 30.5366 99.2629 30.5951 99.382 30.6752C99.501 30.7553 99.5941 30.8548 99.6591 30.9761C99.724 31.0973 99.7587 31.2424 99.7587 31.4112V31.4719H99.3603V31.3853C99.3603 31.2597 99.3213 31.1536 99.2434 31.067C99.1655 30.9804 99.0616 30.9133 98.9295 30.8635C98.7996 30.8137 98.6502 30.7899 98.4835 30.7899C98.2562 30.7899 98.0678 30.8137 97.9228 30.8592C97.7756 30.9046 97.6673 30.9674 97.5959 31.0475C97.5244 31.1276 97.4898 31.2164 97.4898 31.316C97.4898 31.4307 97.5244 31.5281 97.5916 31.6039C97.6587 31.6797 97.7496 31.7425 97.8622 31.7923C97.9747 31.8421 98.1003 31.8854 98.241 31.9243C98.3818 31.9633 98.5268 32.0023 98.6762 32.0391C98.8256 32.0759 98.9706 32.1192 99.1113 32.169C99.2521 32.2188 99.3798 32.2794 99.4945 32.353C99.6093 32.4266 99.698 32.5175 99.7652 32.6258C99.8323 32.734 99.8647 32.8682 99.8647 33.0285C99.8647 33.2688 99.8041 33.4658 99.6829 33.6195C99.5617 33.7732 99.3971 33.8836 99.185 33.9551C98.975 34.0265 98.7303 34.0611 98.451 34.0611L98.4532 34.059Z" fill="black"/>
<path d="M101.129 33.9984V30.502H103.805V30.8484H101.532V32.0304H103.58V32.3811H101.532V33.6498H103.835V33.9962H101.129V33.9984Z" fill="black"/>
<path d="M105.1 33.9984V30.502H106.935C107.167 30.502 107.358 30.5453 107.509 30.6319C107.661 30.7185 107.773 30.8375 107.851 30.9869C107.929 31.1363 107.966 31.3052 107.966 31.4957C107.966 31.7446 107.91 31.9525 107.795 32.1257C107.68 32.2967 107.531 32.4179 107.345 32.4894L108.089 33.9984H107.646L106.946 32.5608H105.504V33.9984H105.102H105.1ZM105.502 32.2144H106.894C107.102 32.2144 107.265 32.1517 107.384 32.0239C107.503 31.8962 107.561 31.7208 107.561 31.4957C107.561 31.3593 107.535 31.2445 107.485 31.1493C107.436 31.054 107.36 30.9804 107.26 30.9285C107.161 30.8765 107.039 30.8505 106.894 30.8505H105.502V32.2166V32.2144Z" fill="black"/>
<path d="M110.196 33.9984L108.875 30.502H109.308L110.241 33.009C110.261 33.0631 110.285 33.1259 110.308 33.1952C110.332 33.2644 110.356 33.3315 110.38 33.3987C110.404 33.4658 110.423 33.5264 110.441 33.5805H110.475C110.492 33.5286 110.512 33.4701 110.536 33.4052C110.56 33.338 110.583 33.2709 110.607 33.2017C110.631 33.1324 110.653 33.0696 110.674 33.0155L111.597 30.502H112.019L110.694 33.9984H110.194H110.196Z" fill="black"/>
<path d="M113.045 33.9984V30.502H113.448V33.9984H113.045Z" fill="black"/>
<path d="M116.346 34.059C115.989 34.059 115.688 33.9919 115.442 33.8598C115.195 33.7277 115.009 33.5264 114.881 33.2579C114.753 32.9895 114.69 32.6539 114.69 32.2491C114.69 31.6451 114.838 31.1926 115.13 30.8916C115.422 30.5907 115.831 30.4413 116.357 30.4413C116.66 30.4413 116.927 30.489 117.154 30.5864C117.384 30.6838 117.563 30.8289 117.695 31.0194C117.825 31.2121 117.892 31.4545 117.892 31.7511H117.485C117.485 31.5303 117.44 31.3484 117.347 31.2077C117.254 31.067 117.126 30.9609 116.957 30.8916C116.788 30.8224 116.587 30.7877 116.353 30.7877C116.102 30.7877 115.883 30.8375 115.695 30.9349C115.509 31.0345 115.364 31.1882 115.262 31.3961C115.16 31.6061 115.108 31.8789 115.108 32.2144V32.3205C115.108 32.6496 115.16 32.9159 115.262 33.1215C115.364 33.325 115.509 33.4744 115.695 33.5697C115.881 33.6649 116.102 33.7126 116.357 33.7126C116.591 33.7126 116.795 33.6779 116.964 33.6087C117.132 33.5394 117.264 33.4333 117.355 33.2926C117.446 33.1519 117.494 32.97 117.494 32.7492H117.892C117.892 33.0479 117.825 33.2947 117.691 33.4874C117.557 33.6801 117.375 33.8252 117.143 33.9182C116.912 34.0113 116.647 34.059 116.349 34.059H116.346Z" fill="black"/>
<path d="M119.12 33.9984V30.502H121.796V30.8484H119.522V32.0304H121.571V32.3811H119.522V33.6498H121.826V33.9962H119.12V33.9984Z" fill="black"/>
<path d="M124.365 34.059C124.179 34.059 123.997 34.0417 123.82 34.007C123.642 33.9724 123.486 33.9161 123.35 33.8338C123.214 33.7515 123.108 33.6455 123.03 33.5134C122.952 33.3813 122.913 33.2168 122.913 33.0198V32.9722C122.913 32.957 122.913 32.9419 122.917 32.9245H123.32C123.32 32.9375 123.32 32.957 123.318 32.9808C123.315 33.0046 123.315 33.0241 123.315 33.0414C123.315 33.1908 123.361 33.3164 123.45 33.416C123.541 33.5156 123.662 33.5913 123.816 33.6411C123.969 33.6909 124.145 33.7147 124.337 33.7147C124.402 33.7147 124.478 33.7104 124.569 33.7018C124.66 33.6931 124.751 33.6758 124.844 33.6498C124.937 33.6238 125.024 33.5892 125.102 33.5437C125.179 33.4982 125.242 33.4376 125.292 33.3662C125.342 33.2926 125.366 33.2016 125.366 33.0934C125.366 32.9678 125.331 32.8639 125.264 32.7816C125.197 32.6994 125.106 32.6323 124.995 32.5803C124.885 32.5284 124.759 32.4807 124.617 32.4396C124.474 32.3985 124.329 32.3595 124.179 32.3227C124.03 32.2859 123.885 32.2426 123.744 32.195C123.603 32.1473 123.478 32.0889 123.365 32.0174C123.253 31.946 123.164 31.8572 123.099 31.7511C123.032 31.6451 122.999 31.513 122.999 31.3571C122.999 31.2207 123.028 31.0973 123.082 30.9847C123.136 30.8722 123.218 30.7769 123.331 30.6968C123.443 30.6167 123.586 30.5561 123.759 30.5106C123.932 30.4673 124.138 30.4435 124.376 30.4435C124.556 30.4435 124.725 30.463 124.881 30.4998C125.037 30.5366 125.175 30.5951 125.294 30.6752C125.413 30.7553 125.506 30.8548 125.571 30.9761C125.636 31.0973 125.671 31.2424 125.671 31.4112V31.4719H125.273V31.3853C125.273 31.2597 125.234 31.1536 125.156 31.067C125.078 30.9804 124.974 30.9133 124.842 30.8635C124.712 30.8137 124.562 30.7899 124.396 30.7899C124.168 30.7899 123.98 30.8137 123.835 30.8592C123.688 30.9046 123.58 30.9674 123.508 31.0475C123.437 31.1276 123.402 31.2164 123.402 31.316C123.402 31.4307 123.437 31.5281 123.504 31.6039C123.571 31.6797 123.662 31.7425 123.774 31.7923C123.887 31.8421 124.013 31.8854 124.153 31.9243C124.294 31.9633 124.439 32.0023 124.588 32.0391C124.738 32.0759 124.883 32.1192 125.024 32.169C125.164 32.2188 125.292 32.2794 125.407 32.353C125.522 32.4266 125.61 32.5175 125.677 32.6258C125.745 32.734 125.777 32.8682 125.777 33.0285C125.777 33.2688 125.716 33.4658 125.595 33.6195C125.474 33.7732 125.309 33.8836 125.097 33.9551C124.887 34.0265 124.643 34.0611 124.363 34.0611L124.365 34.059Z" fill="black"/>
<path d="M45.7973 5.70896C46.2758 4.84298 46.9426 4.16751 47.7977 3.68473C48.6529 3.20195 49.6228 2.95947 50.7074 2.95947C52.0345 2.95947 53.1733 3.31019 54.1194 4.01164C55.0655 4.71308 55.6976 5.66999 56.0159 6.88019H53.0196C52.7966 6.41257 52.4805 6.05751 52.0713 5.81287C51.6622 5.56824 51.1967 5.447 50.6771 5.447C49.8371 5.447 49.1573 5.73927 48.6377 6.3238C48.116 6.90834 47.8562 7.68988 47.8562 8.66628C47.8562 9.64267 48.116 10.4242 48.6377 11.0088C49.1573 11.5933 49.8393 11.8856 50.6771 11.8856C51.1989 11.8856 51.6622 11.7643 52.0713 11.5197C52.4805 11.275 52.7966 10.92 53.0196 10.4524H56.0159C55.6976 11.6647 55.0655 12.6173 54.1194 13.3144C53.1733 14.0115 52.0367 14.3579 50.7074 14.3579C49.6228 14.3579 48.6529 14.1155 47.7977 13.6327C46.9426 13.1499 46.2758 12.4766 45.7973 11.6171C45.3189 10.7555 45.0807 9.77257 45.0807 8.66844C45.0807 7.56432 45.3189 6.5771 45.7973 5.71112V5.70896Z" fill="#122241"/>
<path d="M68.1742 3.08721V14.2757H65.4486V9.66865H61.2096V14.2757H58.4839V3.08721H61.2096V7.47123H65.4486V3.08721H68.1742Z" fill="#122241"/>
<path d="M73.658 3.08721V14.2757H70.9324V3.08721H73.658Z" fill="#122241"/>
<path d="M76.6868 5.70896C77.1653 4.84298 77.8321 4.16751 78.6872 3.68473C79.5424 3.20195 80.5123 2.95947 81.5969 2.95947C82.924 2.95947 84.0628 3.31019 85.0089 4.01164C85.955 4.71308 86.5871 5.66999 86.9054 6.88019H83.9091C83.6861 6.41257 83.37 6.05751 82.9608 5.81287C82.5517 5.56824 82.0862 5.447 81.5666 5.447C80.7266 5.447 80.0468 5.73927 79.5272 6.3238C79.0055 6.90834 78.7457 7.68988 78.7457 8.66628C78.7457 9.64267 79.0055 10.4242 79.5272 11.0088C80.0468 11.5933 80.7288 11.8856 81.5666 11.8856C82.0884 11.8856 82.5517 11.7643 82.9608 11.5197C83.37 11.275 83.6861 10.92 83.9091 10.4524H86.9054C86.5871 11.6647 85.955 12.6173 85.0089 13.3144C84.0628 14.0115 82.9262 14.3579 81.5969 14.3579C80.5123 14.3579 79.5424 14.1155 78.6872 13.6327C77.8321 13.1499 77.1653 12.4766 76.6868 11.6171C76.2084 10.7555 75.9702 9.77257 75.9702 8.66844C75.9702 7.56432 76.2084 6.5771 76.6868 5.71112V5.70896Z" fill="#122241"/>
<path d="M96.3402 12.2991H92.164L91.495 14.2757H88.6416L92.6901 3.08721H95.8466L99.8951 14.2757H97.0092L96.3402 12.2991ZM95.6388 10.1969L94.251 6.10082L92.8806 10.1969H95.6388Z" fill="#122241"/>
<path d="M109.345 6.62473C109.144 6.25236 108.854 5.96875 108.477 5.77174C108.1 5.57473 107.656 5.47731 107.145 5.47731C106.264 5.47731 105.556 5.76741 105.026 6.34546C104.496 6.92566 104.229 7.69855 104.229 8.66412C104.229 9.69463 104.509 10.5 105.067 11.078C105.626 11.6582 106.392 11.9462 107.371 11.9462C108.04 11.9462 108.607 11.7773 109.068 11.4352C109.529 11.0954 109.867 10.6061 110.079 9.96958H106.619V7.96051H112.549V10.4957C112.348 11.1755 112.004 11.8076 111.521 12.3922C111.038 12.9767 110.423 13.4487 109.681 13.8102C108.936 14.1717 108.098 14.3514 107.163 14.3514C106.056 14.3514 105.071 14.109 104.205 13.6262C103.339 13.1434 102.664 12.4701 102.181 11.6106C101.698 10.749 101.456 9.76607 101.456 8.66195C101.456 7.55783 101.698 6.57061 102.181 5.70463C102.664 4.83865 103.337 4.16319 104.197 3.6804C105.058 3.19762 106.041 2.95515 107.145 2.95515C108.483 2.95515 109.614 3.27989 110.534 3.92721C111.452 4.57453 112.062 5.47298 112.359 6.6204H109.345V6.62473Z" fill="#122241"/>
<path d="M117.26 13.6543C116.383 13.165 115.688 12.4831 115.171 11.6063C114.656 10.7295 114.398 9.74442 114.398 8.64896C114.398 7.5535 114.656 6.57061 115.171 5.7003C115.686 4.82999 116.383 4.14803 117.26 3.66092C118.137 3.17164 119.1 2.927 120.152 2.927C121.205 2.927 122.168 3.17164 123.045 3.66092C123.922 4.1502 124.612 4.82999 125.117 5.7003C125.621 6.57061 125.874 7.55566 125.874 8.64896C125.874 9.74226 125.619 10.7295 125.11 11.6063C124.599 12.4831 123.909 13.165 123.038 13.6543C122.166 14.1436 121.205 14.3882 120.152 14.3882C119.1 14.3882 118.137 14.1436 117.26 13.6543ZM122.296 11.0088C122.833 10.4134 123.101 9.62752 123.101 8.64896C123.101 7.6704 122.833 6.87154 122.296 6.28267C121.759 5.69381 121.044 5.39721 120.152 5.39721C119.261 5.39721 118.529 5.68948 117.992 6.27401C117.455 6.85855 117.186 7.65092 117.186 8.64896C117.186 9.647 117.455 10.4264 117.992 11.0152C118.529 11.6041 119.248 11.9007 120.152 11.9007C121.057 11.9007 121.759 11.6041 122.296 11.0088Z" fill="#122241"/>
</g>
<defs>
<clipPath id="clip0_517_519">
<rect width="126" height="43.8056" fill="white"/>
</clipPath>
</defs>
</svg>
