<svg width="522" height="446" viewBox="0 0 522 446" fill="none" xmlns="http://www.w3.org/2000/svg">
    <path opacity="0.2"
        d="M268.005 241.518V229.685L250.808 219.817V207.983L233.611 198.105V186.281L216.424 176.413L142.115 216.69L161.416 227.709V239.543L178.613 249.401V261.245L195.81 271.103V282.947L271.142 391.129C345.74 378.615 402.687 340.869 426.717 292.086C429.496 286.447 431.97 280.766 434.138 275.045L268.005 241.518Z"
        fill="#2B416C"
        style="fill:#2B416C;fill:color(display-p3 0.1686 0.2549 0.4235);fill-opacity:1;" />
    <path opacity="0.15"
        d="M162.089 10.8155C111.81 39.585 71.0469 116.687 71.0469 183.068C71.0469 222.511 85.4453 249.295 107.719 258.502L116.915 253.227L207.34 201.356L216.769 195.947C238.878 161.376 253.17 118.27 253.17 78.9513C253.132 12.5897 212.378 -17.9252 162.089 10.8155Z"
        fill="#2B416C"
        style="fill:#2B416C;fill:color(display-p3 0.1686 0.2549 0.4235);fill-opacity:1;" />
    <path opacity="0.15"
        d="M162.091 30.0141C119.841 54.1804 85.5918 118.969 85.5918 174.753C85.5918 230.537 119.841 256.181 162.091 232.033C204.341 207.886 238.6 143.069 238.6 87.2845C238.6 31.5005 204.35 5.85727 162.091 30.0141Z"
        fill="#2B416C"
        style="fill:#2B416C;fill:color(display-p3 0.1686 0.2549 0.4235);fill-opacity:1;" />
    <path opacity="0.15"
        d="M162.089 43.5456C125.63 64.4706 96.0703 120.59 96.0703 168.894C96.0703 217.198 125.63 239.418 162.089 218.502C198.548 197.587 228.108 141.458 228.108 93.1442C228.108 44.8306 198.558 22.611 162.089 43.5456Z"
        fill="#2B416C"
        style="fill:#2B416C;fill:color(display-p3 0.1686 0.2549 0.4235);fill-opacity:1;" />
    <path
        d="M123.166 171.186C123.166 129.336 148.778 80.7159 180.364 62.5815C194.29 54.6028 207.038 53.8644 216.949 59.1196L204.104 51.7354C194.068 45.9815 180.943 46.461 166.622 54.6891C135.017 72.8235 109.414 121.444 109.414 163.294C109.414 186.204 117.086 202.334 129.217 209.277C131.292 210.457 139.002 214.897 142.148 216.7C130.462 209.498 123.166 193.579 123.166 171.186Z"
        fill="#2B416C"
        style="fill:#2B416C;fill:color(display-p3 0.1686 0.2549 0.4235);fill-opacity:1;" />
    <path opacity="0.3"
        d="M123.166 171.186C123.166 129.336 148.778 80.7159 180.364 62.5815C194.29 54.6028 207.038 53.8644 216.949 59.1196L204.104 51.7354C194.068 45.9815 180.943 46.461 166.622 54.6891C135.017 72.8235 109.414 121.444 109.414 163.294C109.414 186.204 117.086 202.334 129.217 209.277C131.292 210.457 139.002 214.897 142.148 216.7C130.462 209.498 123.166 193.579 123.166 171.186Z"
        fill="white" style="fill:white;fill-opacity:1;" />
    <path
        d="M202.837 71.3564C207.827 77.9734 210.5 88.5031 209.902 102.197C208.464 135.762 187.918 175.694 164.023 191.316C156.766 196.063 150.021 198.029 144.211 197.501C151.468 207.091 163.628 208.462 177.775 199.208C201.679 183.586 222.225 143.683 223.663 110.08C224.647 86.7002 216.136 72.536 202.837 71.3564Z"
        fill="#2B416C"
        style="fill:#2B416C;fill:color(display-p3 0.1686 0.2549 0.4235);fill-opacity:1;" />
    <path opacity="0.15"
        d="M202.837 71.3564C207.827 77.9734 210.5 88.5031 209.902 102.197C208.464 135.762 187.918 175.694 164.023 191.316C156.766 196.063 150.021 198.029 144.211 197.501C151.468 207.091 163.628 208.462 177.775 199.208C201.679 183.586 222.225 143.683 223.663 110.08C224.647 86.7002 216.136 72.536 202.837 71.3564Z"
        fill="#2B416C"
        style="fill:#2B416C;fill:color(display-p3 0.1686 0.2549 0.4235);fill-opacity:1;" />
    <path
        d="M137.732 81.6368L151.484 89.5292L152.584 88.062L138.833 80.1504C138.456 80.6587 138.099 81.1094 137.732 81.6368Z"
        fill="#2B416C"
        style="fill:#2B416C;fill:color(display-p3 0.1686 0.2549 0.4235);fill-opacity:1;" />
    <path
        d="M131.418 127.341L117.618 119.468C117.425 119.995 117.242 120.542 117.059 121.079L130.81 128.971C131.003 128.415 131.177 127.868 131.418 127.341Z"
        fill="#2B416C"
        style="fill:#2B416C;fill:color(display-p3 0.1686 0.2549 0.4235);fill-opacity:1;" />
    <path
        d="M194.146 48.2539L207.908 56.1751C208.468 56.271 209.027 56.3669 209.578 56.482L195.816 48.5895C195.266 48.4457 194.706 48.3402 194.146 48.2539Z"
        fill="#2B416C"
        style="fill:#2B416C;fill:color(display-p3 0.1686 0.2549 0.4235);fill-opacity:1;" />
    <path
        d="M125.097 150.52C125.204 149.925 125.319 149.321 125.435 148.726L111.683 140.834C111.558 141.429 111.442 142.023 111.336 142.627L125.097 150.52Z"
        fill="#2B416C"
        style="fill:#2B416C;fill:color(display-p3 0.1686 0.2549 0.4235);fill-opacity:1;" />
    <path
        d="M151.258 66.2929L165.01 74.1854C165.483 73.7347 165.975 73.2839 166.438 72.8524L152.657 64.96C152.204 65.3915 151.692 65.8422 151.258 66.2929Z"
        fill="#2B416C"
        style="fill:#2B416C;fill:color(display-p3 0.1686 0.2549 0.4235);fill-opacity:1;" />
    <path
        d="M125.171 189.973C125.046 189.445 124.93 188.908 124.814 188.371L124.708 188.131L111.023 180.277C111.149 180.891 111.274 181.495 111.419 182.09L125.171 189.973Z"
        fill="#2B416C"
        style="fill:#2B416C;fill:color(display-p3 0.1686 0.2549 0.4235);fill-opacity:1;" />
    <path
        d="M182.153 48.6084C181.574 48.7235 180.975 48.8769 180.387 49.0208L194.148 56.9132C194.747 56.7598 195.345 56.6255 195.934 56.5104L182.153 48.6084Z"
        fill="#2B416C"
        style="fill:#2B416C;fill:color(display-p3 0.1686 0.2549 0.4235);fill-opacity:1;" />
    <path
        d="M181.214 62.1215L167.462 54.2578C167.173 54.4208 166.893 54.5551 166.613 54.7181L165.773 55.2264L179.525 63.1188L180.355 62.6106L181.214 62.1215Z"
        fill="#2B416C"
        style="fill:#2B416C;fill:color(display-p3 0.1686 0.2549 0.4235);fill-opacity:1;" />
    <path
        d="M126.074 100.289L139.826 108.181L140.637 106.685L126.885 98.793C126.595 99.2725 126.335 99.7711 126.074 100.289Z"
        fill="#2B416C"
        style="fill:#2B416C;fill:color(display-p3 0.1686 0.2549 0.4235);fill-opacity:1;" />
    <path
        d="M131.003 205.029C130.694 204.502 130.405 203.974 130.106 203.428L116.363 195.545C116.653 196.092 116.962 196.619 117.27 197.146L131.003 205.029Z"
        fill="#2B416C"
        style="fill:#2B416C;fill:color(display-p3 0.1686 0.2549 0.4235);fill-opacity:1;" />
    <path
        d="M109.404 163.448L123.156 171.35V171.187C123.156 170.602 123.156 169.998 123.156 169.403L109.395 161.511C109.395 162.105 109.395 162.709 109.395 163.294L109.404 163.448Z"
        fill="#2B416C"
        style="fill:#2B416C;fill:color(display-p3 0.1686 0.2549 0.4235);fill-opacity:1;" />
    <path
        d="M180.358 62.5813C148.772 80.7156 123.16 129.336 123.16 171.186C123.16 213.036 148.772 232.283 180.358 214.158C211.944 196.033 237.576 147.413 237.576 105.553C237.576 63.6937 211.954 44.4565 180.358 62.5813ZM223.631 110.08C222.193 143.644 201.647 183.576 177.743 199.198C153.839 214.82 135.648 200.253 137.086 166.66C138.524 133.067 159.089 93.1632 182.974 77.5414C206.859 61.9196 225.079 76.4865 223.631 110.08Z"
        fill="#2B416C"
        style="fill:#2B416C;fill:color(display-p3 0.1686 0.2549 0.4235);fill-opacity:1;" />
    <g opacity="0.15">
        <path
            d="M168.644 90.1718C169.107 89.6635 169.561 89.1457 170.034 88.647L166.415 72.8525C165.932 73.2841 165.45 73.7252 164.986 74.1759L168.644 90.1718Z"
            fill="#2B416C"
            style="fill:#2B416C;fill:color(display-p3 0.1686 0.2549 0.4235);fill-opacity:1;" />
        <path
            d="M179.51 63.0809V80.0165C180.069 79.585 180.629 79.163 181.199 78.7603V62.1123L180.349 62.5822L179.51 63.0809Z"
            fill="#2B416C"
            style="fill:#2B416C;fill:color(display-p3 0.1686 0.2549 0.4235);fill-opacity:1;" />
        <path
            d="M191.135 73.2842C191.752 73.0444 192.37 72.8239 192.978 72.6321L195.873 56.502C195.284 56.617 194.686 56.7513 194.088 56.8951L191.135 73.2842Z"
            fill="#2B416C"
            style="fill:#2B416C;fill:color(display-p3 0.1686 0.2549 0.4235);fill-opacity:1;" />
        <path
            d="M144.507 131.561L145.115 129.969L131.411 127.332C131.218 127.869 131.025 128.406 130.842 128.943L144.507 131.561Z"
            fill="#2B416C"
            style="fill:#2B416C;fill:color(display-p3 0.1686 0.2549 0.4235);fill-opacity:1;" />
        <path d="M151.001 116.592L151.773 115.057L140.617 106.676L139.816 108.181L151.001 116.592Z"
            fill="#2B416C"
            style="fill:#2B416C;fill:color(display-p3 0.1686 0.2549 0.4235);fill-opacity:1;" />
        <path
            d="M235.224 85.4531L223.094 96.7595C223.19 97.4308 223.277 98.1117 223.354 98.8214L235.717 87.3136C235.533 86.6998 235.388 86.0669 235.224 85.4531Z"
            fill="#2B416C"
            style="fill:#2B416C;fill:color(display-p3 0.1686 0.2549 0.4235);fill-opacity:1;" />
        <path
            d="M137.493 161.185L123.172 169.393C123.172 169.998 123.172 170.592 123.172 171.187V171.35L137.319 163.237C137.348 162.556 137.426 161.865 137.493 161.185Z"
            fill="#2B416C"
            style="fill:#2B416C;fill:color(display-p3 0.1686 0.2549 0.4235);fill-opacity:1;" />
        <path
            d="M139.807 147.279C139.951 146.675 140.106 146.071 140.251 145.457L125.418 148.708C125.302 149.303 125.186 149.907 125.08 150.501L139.807 147.279Z"
            fill="#2B416C"
            style="fill:#2B416C;fill:color(display-p3 0.1686 0.2549 0.4235);fill-opacity:1;" />
        <path
            d="M202.543 71.3468C203.132 71.3948 203.701 71.4619 204.261 71.5578L209.588 56.4346C209.028 56.3196 208.468 56.2141 207.899 56.1182L202.543 71.3468Z"
            fill="#2B416C"
            style="fill:#2B416C;fill:color(display-p3 0.1686 0.2549 0.4235);fill-opacity:1;" />
        <path
            d="M219.369 83.9288C219.639 84.4946 219.9 85.0892 220.151 85.6933L230.091 72.3922C229.792 71.8552 229.473 71.3374 229.126 70.8291L219.369 83.9288Z"
            fill="#2B416C"
            style="fill:#2B416C;fill:color(display-p3 0.1686 0.2549 0.4235);fill-opacity:1;" />
        <path
            d="M212.336 75.0196C212.79 75.3649 213.233 75.7293 213.668 76.1225L221.156 61.872C220.703 61.5172 220.249 61.1815 219.776 60.8555L212.336 75.0196Z"
            fill="#2B416C"
            style="fill:#2B416C;fill:color(display-p3 0.1686 0.2549 0.4235);fill-opacity:1;" />
        <path d="M159.077 102.629L160.119 101.066L152.563 88.0527L151.463 89.5296L159.077 102.629Z"
            fill="#2B416C"
            style="fill:#2B416C;fill:color(display-p3 0.1686 0.2549 0.4235);fill-opacity:1;" />
        <path
            d="M192.36 186.243C191.907 186.771 191.395 187.279 190.98 187.778L194.599 203.62C195.082 203.188 195.564 202.718 196.028 202.268L192.36 186.243Z"
            fill="#2B416C"
            style="fill:#2B416C;fill:color(display-p3 0.1686 0.2549 0.4235);fill-opacity:1;" />
        <path
            d="M210.299 158.998C210.048 159.516 209.788 160.024 209.527 160.532L220.712 168.933L221.494 167.408L210.299 158.998Z"
            fill="#2B416C"
            style="fill:#2B416C;fill:color(display-p3 0.1686 0.2549 0.4235);fill-opacity:1;" />
        <path
            d="M202.136 173.363L201.094 174.936L208.669 187.978C209.036 187.489 209.412 187.019 209.77 186.511L202.136 173.363Z"
            fill="#2B416C"
            style="fill:#2B416C;fill:color(display-p3 0.1686 0.2549 0.4235);fill-opacity:1;" />
        <path
            d="M216.743 143.664C216.55 144.201 216.367 144.738 216.164 145.266L229.868 147.893C230.061 147.356 230.244 146.819 230.427 146.282L216.743 143.664Z"
            fill="#2B416C"
            style="fill:#2B416C;fill:color(display-p3 0.1686 0.2549 0.4235);fill-opacity:1;" />
        <path
            d="M221.269 127.754C221.143 128.358 221.018 128.962 220.873 129.557L235.638 126.344C235.744 125.74 235.841 125.145 235.947 124.551L221.269 127.754Z"
            fill="#2B416C"
            style="fill:#2B416C;fill:color(display-p3 0.1686 0.2549 0.4235);fill-opacity:1;" />
        <path
            d="M237.571 103.789L223.52 111.797C223.52 112.468 223.433 113.139 223.385 113.82L237.571 105.717V105.554C237.571 104.959 237.571 104.374 237.571 103.789Z"
            fill="#2B416C"
            style="fill:#2B416C;fill:color(display-p3 0.1686 0.2549 0.4235);fill-opacity:1;" />
        <path
            d="M181.199 213.651V196.734C180.639 197.166 180.069 197.588 179.51 197.991V214.639L180.349 214.159C180.629 213.996 180.919 213.814 181.199 213.651Z"
            fill="#2B416C"
            style="fill:#2B416C;fill:color(display-p3 0.1686 0.2549 0.4235);fill-opacity:1;" />
        <path
            d="M140.887 191.814C140.626 191.229 140.376 190.625 140.134 189.992L130.107 203.418C130.397 203.965 130.706 204.502 131.015 205.019L140.887 191.814Z"
            fill="#2B416C"
            style="fill:#2B416C;fill:color(display-p3 0.1686 0.2549 0.4235);fill-opacity:1;" />
        <path
            d="M147.76 201.26C147.316 200.896 146.882 200.512 146.457 200.1L138.93 214.408C139.374 214.772 139.827 215.117 140.29 215.453L147.76 201.26Z"
            fill="#2B416C"
            style="fill:#2B416C;fill:color(display-p3 0.1686 0.2549 0.4235);fill-opacity:1;" />
        <path
            d="M169.244 203.601C168.627 203.831 168.019 204.032 167.411 204.224L164.516 220.306C165.114 220.191 165.712 220.066 166.311 219.922L169.244 203.601Z"
            fill="#2B416C"
            style="fill:#2B416C;fill:color(display-p3 0.1686 0.2549 0.4235);fill-opacity:1;" />
        <path
            d="M157.618 205.355C157.039 205.297 156.479 205.211 155.92 205.105L150.65 220.162C151.21 220.296 151.77 220.401 152.33 220.497L157.618 205.355Z"
            fill="#2B416C"
            style="fill:#2B416C;fill:color(display-p3 0.1686 0.2549 0.4235);fill-opacity:1;" />
        <path
            d="M137.459 178.552C137.382 177.861 137.314 177.152 137.257 176.433L124.711 188.065C124.846 188.708 124.981 189.341 125.126 189.983L137.459 178.552Z"
            fill="#2B416C"
            style="fill:#2B416C;fill:color(display-p3 0.1686 0.2549 0.4235);fill-opacity:1;" />
    </g>
    <path
        d="M195.802 282.955L130.43 245.45V209.938L144.191 217.831L161.408 227.718V239.552L178.605 249.41V261.254L195.802 271.112V282.955Z"
        fill="#263238"
        style="fill:#263238;fill:color(display-p3 0.1490 0.1961 0.2196);fill-opacity:1;" />
    <path d="M144.211 217.851L216.435 176.413L233.622 186.281L161.408 227.719L144.211 217.851Z"
        fill="#455A64"
        style="fill:#455A64;fill:color(display-p3 0.2706 0.3529 0.3922);fill-opacity:1;" />
    <path d="M161.396 227.718V239.552L233.611 198.114V186.28L161.396 227.718Z" fill="#37474F"
        style="fill:#37474F;fill:color(display-p3 0.2157 0.2784 0.3098);fill-opacity:1;" />
    <path d="M161.396 239.552L233.611 198.114L250.808 207.982L178.594 249.41L161.396 239.552Z"
        fill="#455A64"
        style="fill:#455A64;fill:color(display-p3 0.2706 0.3529 0.3922);fill-opacity:1;" />
    <path d="M178.604 249.411V261.254L250.818 219.816V207.982L178.604 249.411Z" fill="#37474F"
        style="fill:#37474F;fill:color(display-p3 0.2157 0.2784 0.3098);fill-opacity:1;" />
    <path d="M178.604 261.254L250.818 219.816L268.015 229.684L195.801 271.112L178.604 261.254Z"
        fill="#455A64"
        style="fill:#455A64;fill:color(display-p3 0.2706 0.3529 0.3922);fill-opacity:1;" />
    <path d="M195.797 271.113V282.956L268.011 241.518V229.685L195.797 271.113Z" fill="#37474F"
        style="fill:#37474F;fill:color(display-p3 0.2157 0.2784 0.3098);fill-opacity:1;" />
    <path
        d="M216.482 106.042C215.044 139.607 194.489 179.539 170.594 195.17C161.716 200.972 153.629 202.612 147.028 200.646C140.273 194.518 136.412 182.78 137.088 166.679C138.535 133.114 159.091 93.1823 182.976 77.5604C191.864 71.749 199.97 70.1187 206.561 72.0942C213.355 78.2317 217.177 89.9313 216.482 106.042Z"
        fill="#2B416C"
        style="fill:#2B416C;fill:color(display-p3 0.1686 0.2549 0.4235);fill-opacity:1;" />
    <path opacity="0.9"
        d="M216.482 106.042C215.044 139.607 194.489 179.539 170.594 195.17C161.716 200.972 153.629 202.612 147.028 200.646C140.273 194.518 136.412 182.78 137.088 166.679C138.535 133.114 159.091 93.1823 182.976 77.5604C191.864 71.749 199.97 70.1187 206.561 72.0942C213.355 78.2317 217.177 89.9313 216.482 106.042Z"
        fill="white" style="fill:white;fill-opacity:1;" />
    <path opacity="0.1"
        d="M170.488 177.966C163.028 178.824 156.126 182.312 151.033 187.796C148.281 190.73 146.038 194.097 144.393 197.76C145.187 198.792 146.069 199.754 147.028 200.637C148.449 201.049 149.912 201.3 151.39 201.385C151.776 200.426 152.065 199.419 152.403 198.45C154.072 193.94 157.046 190.021 160.951 187.187C164.856 184.353 169.517 182.729 174.348 182.521C177.658 182.435 180.939 183.03 184.23 183.289C185.533 181.86 186.807 180.412 188.09 178.839C182.262 178.542 176.249 177.391 170.488 177.966ZM169.06 128.857C175.815 129.729 183.188 130.103 189.094 126.67C195.782 122.777 198.957 115.057 202.18 108.066C205.181 101.574 209.283 94.717 215.836 92.2044C214.475 83.1229 211.213 76.2853 206.552 72.0658C203.373 71.1566 200.021 71.0152 196.776 71.6534C193.506 75.3735 191.125 79.7794 189.808 84.5422C188.264 89.9125 187.724 95.6184 185.244 100.615C182.718 105.638 178.431 109.571 173.19 111.672C169.06 113.302 164.572 113.695 160.181 114.367C157.118 114.816 154.091 115.476 151.12 116.342C148.827 120.866 146.785 125.512 145.001 130.257C146.186 129.655 147.419 129.151 148.688 128.751C155.24 126.747 162.304 127.994 169.06 128.857ZM175.97 95.2923C178.131 91.5811 178.865 87.2561 180.052 83.1229C180.476 81.5789 181.017 80.0733 181.519 78.5677C179.974 79.6481 178.443 80.8245 176.925 82.0967C174.744 87.3616 172.621 92.6456 168.597 96.6157C166.545 98.6127 164.096 100.161 161.407 101.161C160.899 101.33 160.375 101.449 159.844 101.516C158.859 102.955 157.894 104.425 156.948 105.927C159.126 105.754 161.283 105.388 163.395 104.834C168.624 103.275 173.099 99.8716 175.979 95.2636L175.97 95.2923ZM216.501 101.113C214.614 102.085 212.904 103.366 211.445 104.901C207.855 108.814 205.925 113.887 203.724 118.72C200.655 125.606 196.65 132.616 189.982 136.183C185.543 138.552 180.332 139.147 175.342 139.281C165.837 139.54 156.186 138.322 146.893 140.345C144.89 140.78 142.932 141.4 141.045 142.196C140.401 144.491 139.838 146.777 139.356 149.053C141.52 147.915 143.809 147.03 146.179 146.416C159.911 142.963 175.13 150.539 188.283 145.457C197.934 141.707 203.811 132.184 208.549 123.036C210.48 119.305 212.554 115.364 215.884 112.89C216.141 110.607 216.321 108.344 216.424 106.1C216.55 104.326 216.569 102.686 216.54 101.085L216.501 101.113ZM182.242 157.013C174.811 157.281 167.39 156.591 159.959 156.485C156.152 156.279 152.336 156.668 148.649 157.636C145.422 158.72 142.387 160.303 139.655 162.325C138.815 162.92 138.005 163.534 137.204 164.157C137.146 165.01 137.088 165.854 137.049 166.689C136.634 176.422 137.879 184.545 140.417 190.817C142.058 189.402 143.516 187.791 144.76 186.022C149.865 179.165 154.787 171.579 162.526 167.907C170.835 163.965 180.631 165.375 189.664 163.572C193.615 162.77 197.411 161.342 200.906 159.343C202.335 156.683 203.682 153.973 204.95 151.211C204.564 151.441 204.168 151.661 203.772 151.882C197.239 155.44 189.702 156.715 182.281 156.984L182.242 157.013Z"
        fill="#2B416C"
        style="fill:#2B416C;fill:color(display-p3 0.1686 0.2549 0.4235);fill-opacity:1;" />
    <path
        d="M260.855 91.4229C260.855 94.6834 260.237 97.5795 256.223 98.2796C260.334 98.4522 260.623 101.157 260.855 104.935C260.99 101.185 261.347 98.4522 265.072 98.2796C261.231 97.6467 260.855 94.6834 260.855 91.4229Z"
        fill="#2B416C"
        style="fill:#2B416C;fill:color(display-p3 0.1686 0.2549 0.4235);fill-opacity:1;" />
    <path
        d="M167.189 265.008C167.189 268.268 166.571 271.164 162.557 271.865C166.668 272.037 166.957 274.741 167.189 278.52C167.324 274.761 167.681 272.037 171.406 271.865C167.546 271.222 167.189 268.268 167.189 265.008Z"
        fill="#2B416C"
        style="fill:#2B416C;fill:color(display-p3 0.1686 0.2549 0.4235);fill-opacity:1;" />
    <path
        d="M137.015 164.545C137.015 165.974 136.745 167.23 134.988 167.537C136.783 167.614 136.918 168.812 137.015 170.414C137.073 168.774 137.227 167.537 138.858 167.537C137.169 167.259 137.015 165.974 137.015 164.545Z"
        fill="#2B416C"
        style="fill:#2B416C;fill:color(display-p3 0.1686 0.2549 0.4235);fill-opacity:1;" />
    <path
        d="M129.121 170.155C129.121 173.406 128.493 176.302 124.488 177.002C128.599 177.175 128.889 179.879 129.121 183.667C129.246 179.908 129.603 177.185 133.338 177.002C129.478 176.417 129.121 173.406 129.121 170.155Z"
        fill="#E0E0E0"
        style="fill:#E0E0E0;fill:color(display-p3 0.8784 0.8784 0.8784);fill-opacity:1;" />
    <path
        d="M125.356 153.814C125.356 155.493 125.038 156.97 122.982 157.334C125.086 157.42 125.241 158.82 125.356 160.748C125.424 158.83 125.607 157.42 127.528 157.334C125.54 157.008 125.356 155.493 125.356 153.814Z"
        fill="#E0E0E0"
        style="fill:#E0E0E0;fill:color(display-p3 0.8784 0.8784 0.8784);fill-opacity:1;" />
    <path
        d="M249.718 81.6221C249.718 83.54 249.67 85.3621 246.9 85.7936C249.796 85.7936 249.603 87.5869 249.747 89.8885C249.824 87.5869 250.027 85.9375 252.314 85.832C249.95 85.4388 250.017 84.3552 249.718 81.6221Z"
        fill="#E0E0E0"
        style="fill:#E0E0E0;fill:color(display-p3 0.8784 0.8784 0.8784);fill-opacity:1;" />
    <path
        d="M273.781 170.376C273.579 173.972 273.289 175.526 270.018 175.957C273.347 176.139 273.627 178.336 273.82 181.395C273.926 178.336 274.196 176.111 277.236 175.957C274.109 175.459 274.032 174.02 273.781 170.376Z"
        fill="#E0E0E0"
        style="fill:#E0E0E0;fill:color(display-p3 0.8784 0.8784 0.8784);fill-opacity:1;" />
    <path
        d="M153.894 265.037C153.778 267.137 153.614 268.039 151.703 268.298C153.633 268.403 153.807 269.669 153.923 271.453C153.981 269.669 154.135 268.374 155.911 268.298C154.116 267.991 154.039 267.166 153.894 265.037Z"
        fill="#E0E0E0"
        style="fill:#E0E0E0;fill:color(display-p3 0.8784 0.8784 0.8784);fill-opacity:1;" />
    <path
        d="M266.946 88.0859C266.946 89.2463 266.946 90.3587 265.238 90.6177C267.014 90.6177 266.879 91.7013 266.966 93.0918C267.014 91.7013 267.13 90.704 268.51 90.6368C267.082 90.3971 267.12 89.745 266.946 88.0859Z"
        fill="#E0E0E0"
        style="fill:#E0E0E0;fill:color(display-p3 0.8784 0.8784 0.8784);fill-opacity:1;" />
    <path
        d="M270.587 180.829C270.587 181.98 270.587 183.092 268.879 183.351C270.645 183.351 270.51 184.444 270.597 185.835C270.645 184.444 270.77 183.438 272.15 183.38C270.722 183.131 270.761 182.479 270.587 180.829Z"
        fill="#E0E0E0"
        style="fill:#E0E0E0;fill:color(display-p3 0.8784 0.8784 0.8784);fill-opacity:1;" />
    <path
        d="M162.802 260.463C162.802 261.614 162.802 262.726 161.094 262.985C162.869 262.985 162.734 264.069 162.821 265.459C162.869 264.069 162.995 263.071 164.375 263.004C162.966 262.774 163.005 262.112 162.802 260.463Z"
        fill="#E0E0E0"
        style="fill:#E0E0E0;fill:color(display-p3 0.8784 0.8784 0.8784);fill-opacity:1;" />
    <path
        d="M405.527 235.215L435.916 217.781L481.795 244.096L503.807 231.466L457.939 205.151L472.839 196.597L448.713 182.74L433.813 191.294L407.216 176.056L385.194 188.695L411.761 203.972L355.104 236.424L372.831 246.589L515.832 284.737L518.611 283.145C519.975 277.698 521.104 272.139 521.998 266.469L405.527 235.215Z"
        fill="#263238"
        style="fill:#263238;fill:color(display-p3 0.1490 0.1961 0.2196);fill-opacity:1;" />
    <path
        d="M408.383 101.447L407.245 102.099V65.2552L393.483 57.3627L376.46 67.1252L390.501 14.6688L376.749 6.77637L353.077 20.3556L314.822 162.496V182.874L328.574 190.767L371.509 166.121V180.803L385.271 188.695L407.216 176.056V145.599L422.106 137.054V109.34L408.383 101.447ZM371.509 122.631L359.861 129.344L371.509 85.787V122.631Z"
        fill="#2B416C"
        style="fill:#2B416C;fill:color(display-p3 0.1686 0.2549 0.4235);fill-opacity:1;" />
    <path opacity="0.3"
        d="M408.383 101.447L407.245 102.099V65.2552L393.483 57.3627L376.46 67.1252L390.501 14.6688L376.749 6.77637L353.077 20.3556L314.822 162.496V182.874L328.574 190.767L371.509 166.121V180.803L385.271 188.695L407.216 176.056V145.599L422.106 137.054V109.34L408.383 101.447ZM371.509 122.631L359.861 129.344L371.509 85.787V122.631Z"
        fill="#2B416C"
        style="fill:#2B416C;fill:color(display-p3 0.1686 0.2549 0.4235);fill-opacity:1;" />
    <path
        d="M407.243 117.884V65.2553L385.23 77.8851V130.524L354.831 147.958L390.509 14.6689L366.836 28.2482L328.582 170.389V190.729L385.23 158.238V188.696L407.243 176.056V145.599L422.143 137.054V109.34L407.243 117.884Z"
        fill="#2B416C"
        style="fill:#2B416C;fill:color(display-p3 0.1686 0.2549 0.4235);fill-opacity:1;" />
    <path opacity="0.3"
        d="M407.243 117.884V65.2553L385.23 77.8851V130.524L354.831 147.958L390.509 14.6689L366.836 28.2482L328.582 170.389V190.729L385.23 158.238V188.696L407.243 176.056V145.599L422.143 137.054V109.34L407.243 117.884Z"
        fill="white" style="fill:white;fill-opacity:1;" />
    <path d="M390.503 14.6688L376.751 6.77637L353.078 20.3556L366.83 28.248L390.503 14.6688Z"
        fill="#2B416C"
        style="fill:#2B416C;fill:color(display-p3 0.1686 0.2549 0.4235);fill-opacity:1;" />
    <path opacity="0.5"
        d="M390.503 14.6688L376.751 6.77637L353.078 20.3556L366.83 28.248L390.503 14.6688Z"
        fill="white" style="fill:white;fill-opacity:1;" />
    <path
        d="M393.482 57.3623L407.234 65.2547L385.221 77.8845L375.127 72.0923L376.459 67.1248L393.482 57.3623Z"
        fill="#2B416C"
        style="fill:#2B416C;fill:color(display-p3 0.1686 0.2549 0.4235);fill-opacity:1;" />
    <path opacity="0.5"
        d="M393.482 57.3623L407.234 65.2547L385.221 77.8845L375.127 72.0923L376.459 67.1248L393.482 57.3623Z"
        fill="white" style="fill:white;fill-opacity:1;" />
    <path d="M385.219 130.523L371.458 122.631L359.81 129.315L354.82 147.958L385.219 130.523Z"
        fill="#2B416C"
        style="fill:#2B416C;fill:color(display-p3 0.1686 0.2549 0.4235);fill-opacity:1;" />
    <path opacity="0.5"
        d="M385.219 130.523L371.458 122.631L359.81 129.315L354.82 147.958L385.219 130.523Z"
        fill="white" style="fill:white;fill-opacity:1;" />
    <path d="M422.139 109.34L408.387 101.447L407.238 102.099V117.884L422.139 109.34Z" fill="#2B416C"
        style="fill:#2B416C;fill:color(display-p3 0.1686 0.2549 0.4235);fill-opacity:1;" />
    <path opacity="0.5" d="M407.238 117.884L422.139 109.34L408.387 101.447L407.238 102.099V117.884Z"
        fill="white" style="fill:white;fill-opacity:1;" />
    <path d="M328.574 170.388L314.822 162.496L353.077 20.3555L366.829 28.2479L328.574 170.388Z"
        fill="#2B416C"
        style="fill:#2B416C;fill:color(display-p3 0.1686 0.2549 0.4235);fill-opacity:1;" />
    <path opacity="0.15"
        d="M328.574 170.388L314.822 162.496L353.077 20.3555L366.829 28.2479L328.574 170.388Z"
        fill="#2B416C"
        style="fill:#2B416C;fill:color(display-p3 0.1686 0.2549 0.4235);fill-opacity:1;" />
    <path
        d="M158.019 357.546L133.864 343.689L118.973 352.234L92.4248 337.005L70.4025 349.635L96.9509 364.863L40.3027 397.363L58.0306 407.538L201.041 445.686L224.713 432.107L90.707 396.165L121.106 378.721L166.975 405.045L188.997 392.405L143.119 366.091L158.019 357.546Z"
        fill="#263238"
        style="fill:#263238;fill:color(display-p3 0.1490 0.1961 0.2196);fill-opacity:1;" />
    <path
        d="M93.5611 262.387L92.4224 263.049V226.166L78.6608 218.274L61.6374 228.084L75.6788 175.628L61.9269 167.735L38.2544 181.295L0 323.445V343.785L13.7905 351.678L56.6867 327.07V341.743L70.4386 349.635L92.461 337.005V306.539L107.352 297.994V270.279L93.5611 262.387ZM56.6482 283.571L45 290.284L56.6482 246.765V283.571Z"
        fill="#2B416C"
        style="fill:#2B416C;fill:color(display-p3 0.1686 0.2549 0.4235);fill-opacity:1;" />
    <path opacity="0.3"
        d="M93.5611 262.387L92.4224 263.049V226.166L78.6608 218.274L61.6374 228.084L75.6788 175.628L61.9269 167.735L38.2544 181.295L0 323.445V343.785L13.7905 351.678L56.6867 327.07V341.743L70.4386 349.635L92.461 337.005V306.539L107.352 297.994V270.279L93.5611 262.387ZM56.6482 283.571L45 290.284L56.6482 246.765V283.571Z"
        fill="#2B416C"
        style="fill:#2B416C;fill:color(display-p3 0.1686 0.2549 0.4235);fill-opacity:1;" />
    <path
        d="M92.4302 278.833V226.195L70.4079 238.825V291.463L40.009 308.897L75.6964 175.608L52.0238 189.188L13.7598 331.328V351.678L70.4079 319.178V349.635L92.4302 337.005V306.538L107.321 297.994V270.279L92.4302 278.833Z"
        fill="#2B416C"
        style="fill:#2B416C;fill:color(display-p3 0.1686 0.2549 0.4235);fill-opacity:1;" />
    <path opacity="0.3"
        d="M92.4302 278.833V226.195L70.4079 238.825V291.463L40.009 308.897L75.6964 175.608L52.0238 189.188L13.7598 331.328V351.678L70.4079 319.178V349.635L92.4302 337.005V306.538L107.321 297.994V270.279L92.4302 278.833Z"
        fill="white" style="fill:white;fill-opacity:1;" />
    <path d="M75.69 175.608L61.9284 167.716L38.2559 181.295L52.0174 189.187L75.69 175.608Z"
        fill="#2B416C"
        style="fill:#2B416C;fill:color(display-p3 0.1686 0.2549 0.4235);fill-opacity:1;" />
    <path opacity="0.5"
        d="M75.69 175.608L61.9284 167.716L38.2559 181.295L52.0174 189.187L75.69 175.608Z"
        fill="white" style="fill:white;fill-opacity:1;" />
    <path
        d="M78.6598 218.303L92.4214 226.195L70.3991 238.825L60.3047 233.042L61.6365 228.075L78.6598 218.303Z"
        fill="#2B416C"
        style="fill:#2B416C;fill:color(display-p3 0.1686 0.2549 0.4235);fill-opacity:1;" />
    <path opacity="0.5"
        d="M78.6598 218.303L92.4214 226.195L70.3991 238.825L60.3047 233.042L61.6365 228.075L78.6598 218.303Z"
        fill="white" style="fill:white;fill-opacity:1;" />
    <path d="M70.397 291.463L56.6451 283.57L44.997 290.254L39.998 308.897L70.397 291.463Z"
        fill="#2B416C"
        style="fill:#2B416C;fill:color(display-p3 0.1686 0.2549 0.4235);fill-opacity:1;" />
    <path opacity="0.5"
        d="M70.397 291.463L56.6451 283.57L44.997 290.254L39.998 308.897L70.397 291.463Z"
        fill="white" style="fill:white;fill-opacity:1;" />
    <path d="M107.314 270.279L93.5626 262.387L92.4238 263.048V278.833L107.314 270.279Z"
        fill="#2B416C"
        style="fill:#2B416C;fill:color(display-p3 0.1686 0.2549 0.4235);fill-opacity:1;" />
    <path opacity="0.5"
        d="M92.4238 278.833L107.314 270.279L93.5626 262.387L92.4238 263.048V278.833Z" fill="white"
        style="fill:white;fill-opacity:1;" />
    <path d="M13.7519 331.328L0 323.445L38.2544 181.295L52.0159 189.187L13.7519 331.328Z"
        fill="#2B416C"
        style="fill:#2B416C;fill:color(display-p3 0.1686 0.2549 0.4235);fill-opacity:1;" />
    <path opacity="0.15"
        d="M13.7519 331.328L0 323.445L38.2544 181.295L52.0159 189.187L13.7519 331.328Z"
        fill="#2B416C"
        style="fill:#2B416C;fill:color(display-p3 0.1686 0.2549 0.4235);fill-opacity:1;" />
    <path
        d="M325.666 336.203C321.817 334.458 317.745 333.248 313.564 332.607C311.006 332.185 308.394 332.208 305.844 332.674C304.028 333.043 302.269 333.649 300.613 334.477C294.939 337.277 294.118 340.394 293.935 343.031C293.752 345.668 295.218 349.197 299.909 352.458L380.403 408.491C395.055 400.734 408.671 391.185 420.935 380.067C385.962 363.917 328.889 337.574 325.666 336.203Z"
        fill="#263238"
        style="fill:#263238;fill:color(display-p3 0.1490 0.1961 0.2196);fill-opacity:1;" />
    <path
        d="M351.424 218.276C356.365 219.235 358.295 219.571 360.659 223.637C363.024 227.703 367.038 242.817 368.138 245.953C369.239 249.089 369.567 250.23 369.103 253.72C368.631 257.365 366.469 263.838 365.562 267.386C365.137 269.026 364.857 270.627 364.548 272.305C364.121 274.023 363.573 275.709 362.908 277.35C362.623 278.15 362.126 278.859 361.47 279.402C361.065 279.757 360.505 279.795 360.119 280.121C359.733 280.447 359.627 281.023 359.086 281.291C358.546 281.56 357.793 281.406 357.262 281.713C356.739 282.094 356.194 282.447 355.631 282.768C355.113 282.918 354.639 283.191 354.251 283.564C353.904 283.938 353.576 284.782 352.949 284.715C352.321 284.648 352.138 283.976 352.109 283.401C352.131 282.272 352.517 281.18 353.209 280.284C353.825 279.287 354.498 278.327 355.226 277.407C355.935 276.555 356.443 275.555 356.712 274.482C356.934 273.763 356.867 272.852 355.931 273.264C354.84 273.763 353.682 274.799 352.37 274.569C351.462 274.415 351.405 273.706 351.935 273.111C352.808 272.131 353.608 271.089 354.329 269.994C355.062 268.872 355.67 267.693 356.432 266.6C356.844 266.031 357.292 265.49 357.774 264.979C359.106 263.54 359.048 261.574 359.202 259.743C359.414 257.202 359.598 250.68 359.598 250.68L353.614 236.037L351.424 218.276Z"
        fill="#FFBDA7"
        style="fill:#FFBDA7;fill:color(display-p3 1.0000 0.7412 0.6549);fill-opacity:1;" />
    <path
        d="M359.211 259.743C359.269 256.722 359.394 253.702 359.51 250.681C357.58 246.02 355.515 240.89 353.623 236.037C355.708 240.89 357.734 245.764 359.703 250.662C359.548 253.692 359.413 256.722 359.211 259.743Z"
        fill="white" style="fill:white;fill-opacity:1;" />
    <path
        d="M318.069 332.003C319.767 331.409 321.032 331.351 321.012 332.186C320.782 333.214 320.416 334.207 319.922 335.139L318.571 336.99L317.924 338.812C317.924 338.812 317.133 339.771 317.085 339.867C317.036 339.963 316.776 336.463 316.776 336.463C316.776 336.463 315.82 332.435 318.069 332.003Z"
        fill="#263238"
        style="fill:#263238;fill:color(display-p3 0.1490 0.1961 0.2196);fill-opacity:1;" />
    <path
        d="M336.3 260.808C336.3 260.808 332.44 265.363 330.152 273.898C328.042 281.83 326.431 289.885 325.327 298.016C324.777 301.651 323.889 306.235 322.577 313.36C321.564 318.846 318.379 335.666 318.379 335.666C318.379 335.666 320.213 338.696 322.432 339.617C325.617 340.94 328.686 340.336 329.091 337.507C329.091 337.507 331.195 334.17 334.389 325.558C335.925 321.605 337.151 317.54 338.056 313.398C338.372 310.799 338.466 308.178 338.336 305.564L351.152 283.421C352.568 280.995 354.265 278.742 356.209 276.708C357.409 275.487 358.351 274.039 358.978 272.45C361.101 266.696 358.013 258.957 358.013 258.957L336.3 260.808Z"
        fill="#263238"
        style="fill:#263238;fill:color(display-p3 0.1490 0.1961 0.2196);fill-opacity:1;" />
    <path
        d="M325.376 298.007C323.311 310.617 320.947 323.18 318.428 335.704C320.647 323.123 323.021 310.57 325.376 298.007Z"
        fill="white" style="fill:white;fill-opacity:1;" />
    <path
        d="M320.38 345.4L319.695 345.266C319.744 345.007 324.878 318.75 328.468 307.721C332.058 296.693 341.467 274.79 341.563 274.569L342.21 274.847C342.113 275.058 332.723 296.952 329.143 307.942C325.563 318.932 320.438 345.141 320.38 345.4Z"
        fill="#2B416C"
        style="fill:#2B416C;fill:color(display-p3 0.1686 0.2549 0.4235);fill-opacity:1;" />
    <path
        d="M353.174 268.183H332.127C331.356 270.04 330.712 271.946 330.196 273.889C328.251 281.192 326.752 288.606 325.709 296.089C326.22 299.513 326.8 303.032 327.33 305.449C328.749 311.836 329.637 316.343 330.756 318.98C331.837 321.209 333.112 323.34 334.568 325.348C336.067 321.474 337.264 317.492 338.148 313.437C338.464 310.838 338.558 308.217 338.428 305.602L350.974 283.977L351.871 280.573C354.988 275.423 354.631 271.558 353.174 268.183Z"
        fill="#2B416C"
        style="fill:#2B416C;fill:color(display-p3 0.1686 0.2549 0.4235);fill-opacity:1;" />
    <path
        d="M300.809 340.509C300.433 340.337 299.969 341.804 299.931 342.331C299.892 342.859 300.896 345.007 303.53 346.589C306.165 348.171 310.691 349.054 312.389 349.581C314.088 350.109 315.449 351.499 317.688 352.583C319.676 353.542 322.677 354.05 323.989 353.465C324.243 353.315 324.46 353.112 324.627 352.87C324.793 352.629 324.905 352.354 324.954 352.065C325.311 350.981 325.282 350.732 325.147 350.694L300.809 340.509Z"
        fill="#37474F"
        style="fill:#37474F;fill:color(display-p3 0.2157 0.2784 0.3098);fill-opacity:1;" />
    <path
        d="M326.086 348.296C325.913 349.404 325.544 350.472 324.996 351.451C324.612 351.738 324.174 351.946 323.709 352.063C323.243 352.18 322.759 352.204 322.284 352.132C320.24 351.987 318.272 351.305 316.58 350.157C315.288 349.321 313.894 348.654 312.431 348.172C310.417 347.689 308.441 347.068 306.515 346.311C305.078 345.708 303.741 344.893 302.549 343.894C301.584 342.993 300.686 341.976 300.783 340.711C300.999 339.914 301.459 339.203 302.098 338.676C302.737 338.149 303.525 337.831 304.353 337.767C305.938 337.687 307.524 337.925 309.014 338.467C310.462 338.954 311.961 339.275 313.483 339.426C314.525 339.512 315.75 340.385 316.561 339.474C317.526 338.419 317.902 335.925 318.549 334.679C318.655 334.477 318.8 334.257 319.022 334.209C319.244 334.161 319.611 334.429 319.813 334.698C320.758 335.87 321.968 336.803 323.345 337.421C327.07 339.253 328.798 338.284 328.798 338.284L329.145 337.517C329.145 337.517 329.888 337.93 328.943 339.656C328.145 341.075 327.473 342.561 326.935 344.096C326.466 345.452 326.18 346.865 326.086 348.296Z"
        fill="#455A64"
        style="fill:#455A64;fill:color(display-p3 0.2706 0.3529 0.3922);fill-opacity:1;" />
    <path
        d="M300.803 340.711C301.97 336.414 306.873 337.565 310.038 338.649C311.16 339.042 312.322 339.309 313.503 339.445C312.309 339.392 311.128 339.182 309.99 338.822C306.863 337.863 302.163 336.635 300.803 340.74V340.711Z"
        fill="white" style="fill:white;fill-opacity:1;" />
    <path
        d="M309.704 338.659C308.112 338.802 307.678 341.363 307.678 341.363C309.104 342.124 310.657 342.624 312.262 342.84C313.378 343.032 314.525 342.803 315.48 342.198C316.435 341.593 317.129 340.656 317.425 339.57C318.1 337.431 317.483 334.439 317.357 333.471C317.284 333.138 317.344 332.79 317.524 332.5C317.704 332.21 317.99 332.001 318.322 331.917C318.049 331.942 317.784 332.023 317.544 332.155C317.303 332.286 317.093 332.466 316.925 332.682C316.758 332.898 316.637 333.145 316.57 333.41C316.503 333.674 316.492 333.95 316.537 334.219C316.585 335.369 316.537 337.642 316.045 338.4C315.553 339.157 313.092 339.493 309.704 338.659Z"
        fill="#455A64"
        style="fill:#455A64;fill:color(display-p3 0.2706 0.3529 0.3922);fill-opacity:1;" />
    <path
        d="M349.605 260.808C351.923 263.53 353.279 266.932 353.465 270.493C353.625 273.953 352.533 277.354 350.387 280.083C349.586 291.744 347.27 314.194 347.27 314.194C350.368 317.359 351.13 319.411 352.964 325.088C354.054 328.541 358.146 339.636 359.159 342.724C353.736 343.386 350.783 348.746 350.783 348.746C350.783 348.746 341.229 334.726 336.635 326.479C333.228 320.38 331.655 318.155 330.642 314.549C329.388 310.051 329.05 307.731 327.93 300.164C326.811 292.598 325.74 282.97 325.19 275.509C324.64 268.048 324.225 260.165 324.225 260.165L349.605 260.808Z"
        fill="#263238"
        style="fill:#263238;fill:color(display-p3 0.1490 0.1961 0.2196);fill-opacity:1;" />
    <path
        d="M350.823 348.718C345.255 340.567 339.793 332.32 335.006 323.689C333.432 321.172 332.079 318.525 330.963 315.777C330.07 312.954 329.386 310.069 328.917 307.146C326.454 291.566 324.894 275.857 324.246 260.099L325.057 271.894C325.79 283.699 327.267 295.447 329.158 307.108C329.843 310.944 330.558 314.905 332.314 318.434C337.947 328.849 344.125 338.964 350.823 348.737V348.718Z"
        fill="white" style="fill:white;fill-opacity:1;" />
    <path
        d="M337.316 317.829C334.508 310.714 331.14 271.98 331.314 258.593H330.609C330.551 263.071 330.889 270.369 331.468 278.377C329.181 277.226 327.704 275.116 327.704 264.51H327C327 275.174 328.399 277.753 331.526 279.182C332.703 295.044 334.807 313.389 336.66 318.098C339.41 325.06 353.761 348.584 353.896 348.785L354.504 348.421C354.359 348.21 340.047 324.743 337.316 317.829Z"
        fill="#2B416C"
        style="fill:#2B416C;fill:color(display-p3 0.1686 0.2549 0.4235);fill-opacity:1;" />
    <path
        d="M350.029 347.528C349.17 348.737 348.196 349.59 350.637 351.201C352.567 352.438 352.635 353.436 353.224 354.759C353.607 356.049 353.764 357.396 353.687 358.739C353.687 358.739 356.929 353.877 355.984 350.741C355.038 347.605 350.029 347.528 350.029 347.528Z"
        fill="#455A64"
        style="fill:#455A64;fill:color(display-p3 0.2706 0.3529 0.3922);fill-opacity:1;" />
    <path
        d="M360.426 344.748C361.339 345.705 362.413 346.497 363.601 347.087C364.421 347.596 365.27 348.046 365.531 349.005C365.531 349.111 365.048 349.686 365.058 349.792C365.1 350.249 365.083 350.71 365.009 351.163C364.826 352.745 363.958 353.915 363.765 355.488C363.701 356.116 363.588 356.738 363.427 357.349C363.288 358.092 363.227 358.847 363.243 359.602C363.195 360.389 363.137 361.175 363.099 361.961C363.055 362.296 363.055 362.634 363.099 362.968C363.166 363.304 357.781 365.999 355.61 367.034C355.481 367.096 355.349 367.151 355.214 367.197C353.889 367.556 352.478 367.419 351.248 366.814C346.925 365.251 347.195 363.697 347.195 363.697C347.217 363.054 347.421 362.429 347.785 361.897C348.149 361.364 348.657 360.944 349.25 360.686C349.514 360.534 349.792 360.408 350.08 360.312C351.156 359.915 352.329 359.858 353.439 360.149C353.658 359.51 353.759 358.838 353.738 358.164C353.826 357.156 353.842 356.143 353.786 355.133C353.594 353.992 353.149 352.908 352.483 351.959C351.566 350.703 350.553 349.082 349.945 348.2C349.337 347.318 349.173 345.189 352.773 342.628C356.228 340.183 358.756 340.71 359.248 341.717C359.522 342.769 359.917 343.786 360.426 344.748Z"
        fill="#455A64"
        style="fill:#455A64;fill:color(display-p3 0.2706 0.3529 0.3922);fill-opacity:1;" />
    <path
        d="M347.135 363.707C347.135 360.744 350.937 359.257 353.417 360.13C350.879 359.66 347.501 360.83 347.135 363.707Z"
        fill="white" style="fill:white;fill-opacity:1;" />
    <path opacity="0.1"
        d="M351.123 361.684C351.411 360.952 351.956 360.349 352.657 359.986C352.912 360.015 353.163 360.063 353.41 360.13C352.976 360.543 351.422 361.156 351.123 361.684Z"
        fill="#2B416C"
        style="fill:#2B416C;fill:color(display-p3 0.1686 0.2549 0.4235);fill-opacity:1;" />
    <path
        d="M366.024 349.936C366.989 350.339 366.188 351.854 365.059 354.204C364.038 355.94 363.631 357.965 363.901 359.958C364.132 362.039 363.64 363.055 362.733 363.793C361.826 364.532 355.09 367.457 355.09 367.457C356.692 365.447 357.62 362.988 357.744 360.427C358.11 355.844 358.554 352.899 360.851 350.895C361.565 350.321 362.412 349.933 363.315 349.765C364.218 349.598 365.149 349.656 366.024 349.936Z"
        fill="#2B416C"
        style="fill:#2B416C;fill:color(display-p3 0.1686 0.2549 0.4235);fill-opacity:1;" />
    <path
        d="M347.134 363.697C347.24 364.599 349.816 366.421 352.856 366.382C355.896 366.344 356.157 365.702 356.63 362.163C357.103 358.624 357.431 353.705 358.975 351.614C360.519 349.524 362.545 348.258 365.508 349.025C365.846 349.188 366.763 350.099 366.425 350.943C366.425 350.943 366.425 350.272 365.209 349.917C364.167 349.619 362.922 349.648 361.185 351.144C359.148 352.88 358.695 356.975 358.463 360.485C358.232 363.995 357.131 367.361 354.207 367.677C352.945 367.847 351.661 367.741 350.444 367.367C349.227 366.992 348.107 366.359 347.163 365.51C346.98 364.921 346.97 364.292 347.134 363.697Z"
        fill="#37474F"
        style="fill:#37474F;fill:color(display-p3 0.2157 0.2784 0.3098);fill-opacity:1;" />
    <path
        d="M329.708 196.258C329.314 195.707 329.072 195.064 329.004 194.391C328.936 193.719 329.046 193.04 329.322 192.422C329.814 191.176 330.837 189.862 333.819 188.328C337.371 186.505 347.118 185.201 351.943 191.54C352.638 192.499 343.045 210.384 343.518 214.095C341.028 211.497 332.816 202.357 332.816 202.357C330.885 201.533 329.689 200.833 329.274 199.011C329.124 198.071 329.276 197.108 329.708 196.258Z"
        fill="#263238"
        style="fill:#263238;fill:color(display-p3 0.1490 0.1961 0.2196);fill-opacity:1;" />
    <path
        d="M332.813 202.309C329.918 201.552 328.075 199.03 329.706 196.229C328.471 199.106 330.121 201.197 332.813 202.309Z"
        fill="white" style="fill:white;fill-opacity:1;" />
    <path
        d="M329.706 196.259C328.49 194.935 328.789 192.806 329.706 191.387C330.771 190.01 332.192 188.946 333.817 188.309C333.076 188.733 332.36 189.2 331.675 189.709C329.658 191.099 328.152 194.024 329.745 196.259H329.706Z"
        fill="white" style="fill:white;fill-opacity:1;" />
    <path
        d="M331.177 201.351C331.177 201.351 328.543 205.618 328.842 205.973C329.448 206.452 330.093 206.878 330.772 207.248L331.177 201.351Z"
        fill="#F0997A"
        style="fill:#F0997A;fill:color(display-p3 0.9412 0.6000 0.4784);fill-opacity:1;" />
    <path
        d="M331.168 201.351C330.512 202.722 329.721 204.017 329.074 205.378C328.987 205.599 328.804 205.858 328.93 206.011C329.095 206.201 329.291 206.363 329.509 206.491C329.248 206.347 328.814 206.232 328.756 205.887C329.287 204.246 330.104 202.711 331.168 201.351Z"
        fill="white" style="fill:white;fill-opacity:1;" />
    <path
        d="M334.44 193.545C332.674 194.379 331.15 195.722 330.58 199.567C330.435 200.574 331.227 201.946 330.87 203.279C329.335 209.033 331.159 213.828 332.279 214.834C333.031 215.544 336.988 215.861 339.034 215.285C341.63 214.566 347.275 212.034 349.968 207.997C353.133 203.202 353.828 196.873 350.344 194.312C345.432 190.706 336.322 192.663 334.44 193.545Z"
        fill="#FFBDA7"
        style="fill:#FFBDA7;fill:color(display-p3 1.0000 0.7412 0.6549);fill-opacity:1;" />
    <path
        d="M330.597 199.566C330.597 200.871 331.369 202.146 330.925 203.479C330.104 207.19 330.047 211.602 332.295 214.833C329.825 211.707 329.825 207.162 330.77 203.441C331.214 202.175 330.481 200.88 330.597 199.605V199.566Z"
        fill="white" style="fill:white;fill-opacity:1;" />
    <path
        d="M347.94 210.71L348.963 217.778C350.556 218.113 350.7 219.983 349.928 221.393L350.305 223.388L339.419 225.325L338.203 215.438L347.94 210.71Z"
        fill="#FFBDA7"
        style="fill:#FFBDA7;fill:color(display-p3 1.0000 0.7412 0.6549);fill-opacity:1;" />
    <path
        d="M332.508 214.978C333.473 215.486 335.451 215.86 338.211 215.476L338.047 214.076C337.172 214.403 336.271 214.659 335.355 214.843C334.418 215.028 333.458 215.073 332.508 214.978Z"
        fill="#F0997A"
        style="fill:#F0997A;fill:color(display-p3 0.9412 0.6000 0.4784);fill-opacity:1;" />
    <path
        d="M331.836 195.597C331.763 196.427 331.981 197.256 332.455 197.943C332.928 198.631 333.627 199.134 334.432 199.366C334.002 200.284 333.842 201.305 333.969 202.31C334.005 202.904 334.212 203.475 334.564 203.955C334.916 204.436 335.4 204.807 335.957 205.024C336.719 205.283 336.922 204.947 337.221 204.343C337.607 203.489 338.099 202.185 339.943 202.425C342.056 202.713 342.616 205.877 341.38 207.949C341.143 208.387 340.802 208.76 340.387 209.038C339.972 209.315 339.494 209.488 338.997 209.541C338.723 209.536 338.453 209.475 338.205 209.359C337.957 209.243 337.737 209.076 337.559 208.869C337.559 208.869 337.694 211.631 341.274 213.271C343.514 214.455 346.108 214.795 348.58 214.23C350.244 212.393 351.813 210.472 353.279 208.476C357.14 202.876 357.96 192.624 351.349 190.783C351.031 190.697 345.019 189.824 342.085 190.495C333.043 192.413 331.856 195.165 331.836 195.597Z"
        fill="#263238"
        style="fill:#263238;fill:color(display-p3 0.1490 0.1961 0.2196);fill-opacity:1;" />
    <path
        d="M348.149 190.063C347.349 190.636 346.8 191.49 346.614 192.451C346.532 192.931 346.577 193.423 346.747 193.879C346.916 194.335 347.203 194.739 347.579 195.05C349.509 196.556 352.52 194.801 352.877 192.576C353.283 189.948 350.098 188.625 348.149 190.063Z"
        fill="#2B416C"
        style="fill:#2B416C;fill:color(display-p3 0.1686 0.2549 0.4235);fill-opacity:1;" />
    <path
        d="M349.724 190.898C347.745 192.106 346.51 194.955 347.562 197.007C347.851 197.563 348.257 198.062 348.527 198.647C349.289 200.517 348.18 202.578 347.938 204.583C347.773 206.174 348.05 207.779 348.739 209.224C349.396 210.289 350.843 210.557 351.422 211.67C351.818 212.437 351.548 213.377 351.702 214.23C352.04 216.062 354.221 216.944 356.103 216.982C356.898 217.052 357.7 216.948 358.45 216.676C359.2 216.404 359.882 215.972 360.445 215.41C360.877 214.744 361.347 214.103 361.854 213.492C362.974 212.446 364.749 212.533 365.985 211.574C366.442 211.173 366.799 210.673 367.03 210.112C367.261 209.552 367.359 208.946 367.316 208.342C367.202 207.131 366.876 205.95 366.351 204.851C365.55 202.933 366.187 201.696 366.593 199.749C366.783 198.698 366.607 197.614 366.095 196.674C365.583 195.735 364.765 194.997 363.775 194.581C362.414 194.043 360.754 194.13 359.654 193.161C359.132 192.547 358.643 191.907 358.187 191.243C356.122 188.99 352.049 189.488 349.724 190.898Z"
        fill="#263238"
        style="fill:#263238;fill:color(display-p3 0.1490 0.1961 0.2196);fill-opacity:1;" />
    <path
        d="M357.492 223.56C357.058 222.388 356.371 221.324 355.479 220.445C354.587 219.565 353.512 218.89 352.329 218.468C351.364 218.18 348.961 217.777 348.961 217.777C349.511 219.024 348.584 219.849 346.954 220.223C344.859 220.712 341.665 220.76 339.494 219.331L338.606 218.784C336.236 219.363 333.898 220.061 331.6 220.875C331.127 221.095 328.512 221.968 324.4 231.146C322.644 235.068 323.165 239.048 326.398 241.877C326.581 244.36 324.97 249.951 324.97 249.951C324.15 254.617 323.962 259.371 324.41 264.087C324.41 264.087 326.34 269.169 341.646 269.112C353.487 269.112 359.441 263.358 359.441 263.358C359.296 260.481 354.741 250.383 355.195 246.988C355.9 242.04 360.464 233.169 357.492 223.56Z"
        fill="#2B416C"
        style="fill:#2B416C;fill:color(display-p3 0.1686 0.2549 0.4235);fill-opacity:1;" />
    <path
        d="M331.594 220.875C334.711 223.397 334.952 226.859 334.489 231.529C334.026 236.2 329.306 250.795 328.341 253.97C327.376 257.144 325.996 258.247 323.564 260.817C321.132 263.387 315.448 267.472 312.621 269.812C311.308 270.896 310.141 272.027 308.896 273.207C307.536 274.347 306.097 275.391 304.592 276.333C303.888 276.812 303.068 277.096 302.218 277.158C301.677 277.158 301.204 276.908 300.693 276.947C300.181 276.985 299.728 277.388 299.168 277.292C298.608 277.196 298.049 276.63 297.441 276.563C296.796 276.572 296.152 276.543 295.511 276.477C295.002 276.29 294.454 276.233 293.918 276.314C293.416 276.41 292.654 276.899 292.181 276.486C291.708 276.074 291.969 275.412 292.278 274.923C292.96 274.008 293.921 273.336 295.018 273.005C296.104 272.559 297.216 272.178 298.348 271.864C299.413 271.58 300.401 271.066 301.243 270.359C301.841 269.908 302.324 269.121 301.33 268.92C300.152 268.68 298.599 268.843 297.663 267.894C297.026 267.242 297.402 266.638 298.184 266.465C299.468 266.183 300.73 265.805 301.957 265.333C303.212 264.854 304.399 264.25 305.663 263.809C306.337 263.592 307.023 263.416 307.718 263.281C309.648 262.888 310.758 261.267 311.955 259.877C313.634 257.959 316.52 254.296 318.479 251.668L321.441 237.427C323.314 229.698 323.97 223.215 331.594 220.875Z"
        fill="#FFBDA7"
        style="fill:#FFBDA7;fill:color(display-p3 1.0000 0.7412 0.6549);fill-opacity:1;" />
    <path
        d="M334.468 231.53C333.715 235.749 332.681 239.914 331.371 243.996C331.274 244.332 331.168 244.658 331.071 244.955C329.884 248.954 328.736 252.56 328.311 253.96C327.443 256.837 326.217 258.026 324.181 260.136L323.534 260.807C320.996 263.483 315.418 267.463 312.591 269.812C311.288 270.896 310.111 272.018 308.875 273.197C307.512 274.34 306.071 275.388 304.562 276.333C303.857 276.808 303.037 277.09 302.188 277.148C301.647 277.196 301.174 276.899 300.663 276.937C300.151 276.976 299.698 277.379 299.138 277.283C298.578 277.187 298.019 276.621 297.411 276.563C296.766 276.569 296.121 276.537 295.481 276.468C294.971 276.285 294.424 276.229 293.888 276.304C293.734 276.304 293.55 276.41 293.357 276.477L293.116 276.554C293.007 276.594 292.894 276.62 292.778 276.631C292.67 276.652 292.559 276.649 292.452 276.623C292.345 276.596 292.246 276.547 292.161 276.477C291.63 276.017 291.939 275.413 292.248 274.924C292.93 274.008 293.891 273.335 294.988 273.006C296.074 272.557 297.186 272.172 298.318 271.855C299.383 271.571 300.371 271.057 301.213 270.349C301.811 269.898 302.294 269.122 301.3 268.911C300.122 268.671 298.569 268.834 297.642 267.894C296.996 267.233 297.372 266.628 298.154 266.456C299.439 266.175 300.7 265.797 301.927 265.324C303.182 264.845 304.378 264.24 305.633 263.809C306.305 263.586 306.992 263.41 307.688 263.281C309.618 262.888 310.728 261.258 311.925 259.877C313.604 257.959 316.49 254.286 318.458 251.659L321.411 237.418C323.283 229.65 323.969 223.167 331.564 220.837C332.348 221.468 333.003 222.243 333.494 223.119C334.787 225.382 334.816 228.135 334.468 231.53Z"
        fill="#FFBDA7"
        style="fill:#FFBDA7;fill:color(display-p3 1.0000 0.7412 0.6549);fill-opacity:1;" />
    <path
        d="M292.127 276.487C291.947 276.306 291.84 276.066 291.826 275.811C291.812 275.557 291.891 275.306 292.05 275.106C292.774 273.716 294.347 273.121 295.736 272.651C296.66 272.22 297.632 271.898 298.632 271.692C299.58 271.401 300.471 270.95 301.266 270.359C300.514 271.03 299.635 271.545 298.68 271.875C296.752 272.344 294.901 273.08 293.179 274.061C292.542 274.569 291.432 275.634 292.166 276.449L292.127 276.487Z"
        fill="white" style="fill:white;fill-opacity:1;" />
    <path
        d="M297.668 267.932C296.472 266.571 298.788 266.398 299.656 266.11C301.953 265.525 303.98 264.269 306.238 263.636C307.395 263.46 308.503 263.045 309.49 262.418C311.063 261.181 312.752 258.697 314.055 257.134L318.397 251.639C319.362 246.844 320.897 239.374 322.045 234.502C323.271 228.748 325.153 222.601 331.599 220.875C325.249 222.668 323.396 228.777 322.219 234.541C321.061 239.489 319.671 246.729 318.581 251.802L314.199 257.288C312.858 258.86 311.208 261.296 309.577 262.572C308.577 263.2 307.456 263.615 306.286 263.789C304.028 264.413 301.972 265.64 299.676 266.187C298.797 266.465 296.501 266.59 297.668 267.961V267.932Z"
        fill="white" style="fill:white;fill-opacity:1;" />
    <path opacity="0.3"
        d="M353.413 283.258C353.412 283.63 353.516 283.995 353.712 284.312C353.915 284.063 354.088 283.756 354.262 283.564C354.65 283.192 355.124 282.918 355.642 282.769C356.205 282.447 356.749 282.095 357.273 281.714C357.794 281.407 358.489 281.589 359.097 281.292C359.705 280.994 359.724 280.467 360.129 280.122C360.535 279.777 361.094 279.757 361.481 279.402C362.137 278.859 362.634 278.15 362.918 277.35C363.584 275.709 364.132 274.024 364.559 272.306C364.868 270.628 365.148 269.026 365.572 267.386C366.479 263.838 368.641 257.365 369.114 253.721C369.568 250.23 369.239 249.079 368.149 245.953C367.058 242.827 363.034 227.732 360.67 223.638C358.431 219.802 356.568 219.284 352.168 218.421L351.907 218.354L351.463 218.258L351.116 218.181L350.672 218.095L350.411 218.047L349.775 217.922L349.292 217.836H349.167H348.964L348.452 214.297H348.578C349.36 213.338 350.218 212.427 351.116 211.353C351.226 211.479 351.32 211.617 351.396 211.765C351.801 212.533 351.521 213.463 351.676 214.316C352.013 216.158 354.194 217.03 356.076 217.078C356.872 217.144 357.673 217.037 358.423 216.764C359.174 216.49 359.854 216.058 360.419 215.496C360.854 214.832 361.324 214.192 361.828 213.578C362.947 212.533 364.723 212.619 365.968 211.66C366.424 211.257 366.78 210.755 367.01 210.193C367.239 209.63 367.335 209.023 367.29 208.419C367.181 207.207 366.854 206.025 366.325 204.928C365.524 203.01 366.161 201.773 366.566 199.836C366.758 198.784 366.584 197.699 366.074 196.758C365.564 195.818 364.747 195.077 363.758 194.657C362.388 194.12 360.728 194.216 359.628 193.238C359.109 192.624 358.623 191.984 358.17 191.32C356.626 189.642 353.972 189.498 351.753 190.112C351.204 189.734 350.548 189.542 349.881 189.565C346.87 187.244 342.942 186.688 339.574 186.957C338.306 187.486 337.161 188.265 336.206 189.248C333.176 192.231 331.381 196.613 332.172 200.756C332.327 201.533 332.568 202.281 332.693 203.058C333.012 205.043 332.568 207.066 332.577 209.08C332.587 211.094 333.224 213.319 334.98 214.307C336.312 215.045 337.943 214.901 339.458 215.093C341.948 215.41 341.658 216.934 341.755 219.035C341.797 219.356 341.771 219.683 341.678 219.993C341.639 220.106 341.581 220.21 341.504 220.3C340.858 221.096 339.024 221.413 338.213 221.681C336.607 222.068 335.037 222.594 333.523 223.254C332.828 223.605 332.226 224.114 331.767 224.74C329.924 227.311 329.142 230.37 328.36 233.371C327.636 236.152 326.874 238.933 326.073 241.695C325.352 244.201 324.6 246.695 323.815 249.175C323.204 251.432 322.289 253.597 321.093 255.61C319.598 257.883 317.455 259.647 315.525 261.585C311.153 265.977 307.496 271.596 301.648 273.706C299.399 274.512 296.987 274.732 294.68 275.346C293.879 275.557 292.972 275.979 292.75 276.717C292.865 276.707 292.979 276.681 293.088 276.641L293.329 276.564C293.522 276.497 293.705 276.43 293.86 276.391C294.396 276.315 294.943 276.371 295.452 276.554C296.093 276.624 296.738 276.656 297.382 276.65C297.99 276.708 298.444 277.264 299.11 277.369C299.776 277.475 300.075 277.063 300.634 277.024C301.194 276.986 301.599 277.283 302.159 277.235C303.009 277.176 303.828 276.895 304.533 276.42C306.042 275.475 307.484 274.427 308.847 273.284C310.082 272.105 311.26 270.983 312.562 269.899C315.39 267.549 320.968 263.57 323.506 260.894L324.153 260.223C326.179 258.123 327.405 256.943 328.273 254.057C328.698 252.656 329.846 249.051 331.033 245.052L331.333 244.093C331.778 244.632 332.011 245.313 331.989 246.011C332.346 250.671 333.465 255.39 334.228 260.031C334.768 263.34 335.318 266.648 335.569 269.985C335.762 272.402 335.791 274.78 335.83 277.235L336.061 294.497C336.061 295.456 336.061 296.415 336.109 297.431C336.122 300.148 336.309 302.861 336.669 305.554C336.984 307.928 337.504 310.27 338.223 312.555C338.397 313.111 338.58 313.667 338.783 314.223C340.78 319.737 343.917 324.772 346.937 329.74C350.002 335.048 352.75 340.53 355.169 346.157C355.665 347.141 356.028 348.186 356.25 349.264C356.559 351.125 356.047 353.014 355.903 354.894C355.758 356.773 355.97 358.576 355.903 360.417C355.944 362.27 355.405 364.09 354.358 365.625C353.604 366.591 352.56 367.293 351.376 367.629C352.304 367.789 353.249 367.818 354.185 367.715C354.724 367.666 355.244 367.488 355.7 367.197C358.088 366.197 360.42 365.07 362.687 363.822C363.594 363.103 364.086 362.076 363.864 359.986C363.585 357.994 363.99 355.967 365.013 354.232C365.632 353.178 366.106 352.046 366.422 350.866C366.663 350.051 365.814 349.207 365.456 349.044C365.215 348.085 364.366 347.625 363.526 347.126C362.342 346.535 361.271 345.743 360.361 344.786C359.839 343.821 359.434 342.797 359.155 341.736C359.031 341.503 358.839 341.313 358.605 341.19C357.119 336.941 353.886 328.109 352.93 325.108C351.135 319.421 350.334 317.369 347.236 314.204C347.236 314.204 348.945 297.633 349.939 285.578L351.135 283.497C351.261 283.277 351.386 283.066 351.521 282.855C352.861 280.684 354.427 278.659 356.192 276.813C356.366 276.631 356.539 276.42 356.713 276.219C356.453 276.65 356.202 277.082 355.912 277.504C354.764 279.249 353.326 281.119 353.413 283.258ZM359.319 263.483L359.435 263.378C359.376 262.754 359.257 262.137 359.078 261.537C358.856 260.722 358.547 259.753 358.209 258.708C358.103 258.382 357.987 258.046 357.871 257.749C357.476 256.579 357.051 255.332 356.665 254.124C356.539 253.75 356.424 253.376 356.318 253.011C356.211 252.647 356.067 252.206 355.96 251.822C355.854 251.439 355.806 251.276 355.739 251.007C355.739 250.921 355.69 250.825 355.671 250.738C355.652 250.652 355.584 250.384 355.545 250.221C355.468 249.904 355.401 249.607 355.352 249.319L355.295 249.003C355.29 248.929 355.29 248.856 355.295 248.782C355.266 248.643 355.247 248.502 355.237 248.36V248.073C355.227 247.9 355.227 247.727 355.237 247.555C355.226 247.389 355.226 247.222 355.237 247.056C355.498 245.567 355.855 244.097 356.308 242.654C356.617 241.542 356.964 240.353 357.273 239.087C358.19 240.784 359.078 242.482 359.965 244.189C360.728 245.538 361.374 246.95 361.895 248.408C362.957 251.726 362.696 255.322 362.291 258.784C361.867 262.733 360.987 266.621 359.666 270.369C359.949 268.071 359.831 265.742 359.319 263.483Z"
        fill="#2B416C"
        style="fill:#2B416C;fill:color(display-p3 0.1686 0.2549 0.4235);fill-opacity:1;" />
</svg>
    