<svg width="48" height="57" viewBox="0 0 48 57" fill="none" xmlns="http://www.w3.org/2000/svg">
<path d="M24 56.3335L16 48.3335H0V0.333496H48V48.3335H32L24 56.3335ZM23.7333 40.3335C24.6667 40.3335 25.456 40.0108 26.1013 39.3655C26.7467 38.7202 27.0684 37.9317 27.0667 37.0002C27.0649 36.0686 26.7422 35.2793 26.0987 34.6322C25.4551 33.9851 24.6667 33.6633 23.7333 33.6668C22.8 33.6704 22.0107 33.9931 21.3653 34.6348C20.72 35.2766 20.3982 36.0651 20.4 37.0002C20.4018 37.9353 20.7244 38.7246 21.368 39.3682C22.0116 40.0117 22.8 40.3335 23.7333 40.3335ZM21.3333 30.0668H26.2667C26.2667 29.3113 26.3004 28.6668 26.368 28.1335C26.4356 27.6002 26.5796 27.0891 26.8 26.6002C27.0204 26.1113 27.2978 25.6562 27.632 25.2348C27.9662 24.8135 28.4444 24.2908 29.0667 23.6668C30.6222 22.1113 31.7227 20.8108 32.368 19.7655C33.0133 18.7202 33.3351 17.5317 33.3333 16.2002C33.3333 13.8446 32.5333 11.9451 30.9333 10.5015C29.3333 9.05794 27.1778 8.33527 24.4667 8.3335C22.0222 8.3335 19.9449 8.9335 18.2347 10.1335C16.5244 11.3335 15.3351 13.0002 14.6667 15.1335L19.0667 16.8668C19.3778 15.6668 20 14.7006 20.9333 13.9682C21.8667 13.2357 22.9556 12.8686 24.2 12.8668C25.4 12.8668 26.4 13.1895 27.2 13.8348C28 14.4802 28.4 15.3353 28.4 16.4002C28.4 17.1557 28.1556 17.9557 27.6667 18.8002C27.1778 19.6446 26.3556 20.5779 25.2 21.6002C24.4444 22.2224 23.8329 22.8339 23.3653 23.4348C22.8978 24.0357 22.5093 24.6686 22.2 25.3335C21.8907 25.9984 21.6684 26.6988 21.5333 27.4348C21.3982 28.1708 21.3316 29.0482 21.3333 30.0668Z" fill="white" style="fill:white;fill-opacity:1;"/>
</svg>
