<?xml version="1.0" encoding="utf-8"?>
<!-- Generator: Adobe Illustrator 16.0.4, SVG Export Plug-In . SVG Version: 6.00 Build 0)  -->
<!DOCTYPE svg PUBLIC "-//W3C//DTD SVG 1.1//EN" "http://www.w3.org/Graphics/SVG/1.1/DTD/svg11.dtd">


<svg version="1.1" xmlns="http://www.w3.org/2000/svg" xmlns:xlink="http://www.w3.org/1999/xlink" x="0px" y="0px" width="850.4px"
	 height="850.4px" viewBox="0 0 850.4 850.4" enable-background="new 0 0 850.4 850.4" xml:space="preserve">
<g id="Ebene_1">
</g>
<g id="Ebene_3">
</g>
<g id="Ebene_2">
	<linearGradient id="SVGID_1_" gradientUnits="userSpaceOnUse" x1="270.6313" y1="131.5303" x2="580.3306" y2="667.9451">
		<stop  offset="0" style="stop-color:#8F9096"/>
		<stop  offset="0.5" style="stop-color:#6C6B6F"/>
		<stop  offset="1" style="stop-color:#504D4F"/>
	</linearGradient>
	<circle fill="url(#SVGID_1_)" cx="425.5" cy="399.7" r="309.6"/>
	<g>
		<linearGradient id="SVGID_2_" gradientUnits="userSpaceOnUse" x1="327.7632" y1="230.4893" x2="523.1968" y2="568.9902">
			<stop  offset="0" style="stop-color:#0080A3"/>
			<stop  offset="0.1534" style="stop-color:#0094BC"/>
			<stop  offset="0.3664" style="stop-color:#10ACDB"/>
			<stop  offset="0.5002" style="stop-color:#22B6E7"/>
			<stop  offset="0.6268" style="stop-color:#16AFDF"/>
			<stop  offset="0.7938" style="stop-color:#009DC8"/>
			<stop  offset="0.9825" style="stop-color:#0083A6"/>
			<stop  offset="1" style="stop-color:#0080A3"/>
		</linearGradient>
		<path fill="url(#SVGID_2_)" d="M620.9,399.7c0,107.9-87.5,195.4-195.4,195.4c-107.9,0-195.4-87.5-195.4-195.4
			c0-107.9,87.5-195.4,195.4-195.4C533.4,204.3,620.9,291.8,620.9,399.7z"/>
	</g>
	<path id="P_x5F_Pfad_7_" fill="#FFFFFF" d="M455,306.5c17.4,0,30.1,3.6,38.1,10.8c8,7.2,12.1,18.6,12.1,34c0,15.7-4.1,27-12.2,33.9
		c-8.1,6.9-21.7,10.3-40.7,10.3h-60.9v-89.1H455z M344.5,537h46.9V436.8h64c16.9,0,30.1-1.2,39.7-3.4c9.6-2.3,17.9-6.1,25.1-11.3
		c10.5-7.8,18.5-17.6,23.9-29.4c5.5-11.8,8.2-25.2,8.2-40.1c0-18.1-3.3-33.7-10-46.7c-6.6-13-16.4-22.9-29.3-29.8
		c-6.6-3.7-14.1-6.3-22.5-8c-8.4-1.6-21.2-2.4-38.6-2.4H344.5V537z"/>
	<g>
		<path fill="#FFFFFF" d="M210.2,345l-44.9-12.5L162,344l-8.9-2.5l9.2-33.1l8.9,2.5l-3.2,11.5L213,335L210.2,345z"/>
		<path fill="#FFFFFF" d="M219.5,315l-49.9-25.1l8.4-16.7c2.5-5,5.4-8.1,8.5-9.3s7-0.6,11.7,1.7c3.2,1.6,5.5,3.5,6.8,5.6
			c1.3,2.1,1.5,4.4,0.6,6.9c3.4-3.8,8.3-4.2,14.7-1.3c0.3,0.1,0.5,0.2,0.6,0.3l6.7,3.1c1.9,0.9,3.5,1.4,4.9,1.6
			c1.3,0.2,2.6,0.1,3.8-0.3l-5.5,11c-1-0.2-2.1-0.5-3.3-0.9c-1.2-0.4-2.8-1.2-4.9-2.2l-5.3-2.5l-1.3-0.7c-2.9-1.5-5.2-1.8-6.9-1.2
			c-1.7,0.7-3.5,2.9-5.4,6.7l-1.6,3.2l21.9,11L219.5,315z M195.2,291.5l2.7-5.3c1.4-2.7,1.8-4.8,1.2-6.4c-0.6-1.6-2.2-3.1-5-4.5
			c-2.5-1.2-4.5-1.6-6.1-0.9c-1.6,0.6-3.1,2.5-4.6,5.5l-2.3,4.6L195.2,291.5z"/>
		<path fill="#FFFFFF" d="M197.8,239.3l6.5-8.1l29.3,23.6c3.4,2.7,6,4.1,7.8,4.3c1.9,0.1,3.6-0.8,5.3-2.9c1.7-2.1,2.2-4,1.7-5.8
			c-0.6-1.8-2.5-4-6-6.8l-29.2-23.5l6.4-8l30.1,24.2c2.9,2.3,4.9,4.2,6,5.6c1.1,1.4,1.8,2.9,2.2,4.5c0.6,2.4,0.5,4.9-0.3,7.4
			s-2.2,5.1-4.4,7.8c-4,5-7.9,7.6-11.7,7.9c-3.8,0.3-8.4-1.7-13.8-6L197.8,239.3z"/>
		<path fill="#FFFFFF" d="M259.2,223.6l8-6.6l2.3,2.8c2.2,2.7,4,4.2,5.5,4.6s3,0,4.6-1.4c1.7-1.4,2.6-2.9,2.8-4.5
			c0.2-1.6-0.4-3.2-1.8-4.9c-1.1-1.3-2.3-2.1-3.7-2.6c-1.4-0.4-3.7-0.5-6.9-0.3l-6.5,0.5c-5.6,0.5-9.5,0.3-11.8-0.5
			c-2.3-0.8-4.4-2.4-6.4-4.9c-3-3.6-4.2-7.3-3.8-11.2c0.5-3.8,2.6-7.3,6.3-10.4c4-3.3,8-4.7,11.9-4.3c3.9,0.4,7.6,2.7,10.9,6.8
			c0.3,0.4,0.6,0.7,0.8,1c0.2,0.2,0.3,0.4,0.4,0.6l-7.6,6.3l-0.9-1.1c-1.9-2.3-3.7-3.7-5.3-4.1c-1.6-0.4-3.3,0.2-5,1.6
			c-1.3,1.1-2,2.3-2.1,3.6c-0.1,1.4,0.4,2.7,1.5,4.1c1.5,1.8,4.8,2.5,9.9,1.9l0.1,0l6.9-0.6c4.9-0.5,8.6-0.3,11.3,0.6
			c2.6,0.9,5.2,2.8,7.5,5.7c3.2,3.9,4.6,7.9,4.1,11.8c-0.5,4-2.8,7.7-7,11.1c-4.3,3.6-8.5,5.1-12.4,4.6c-4-0.5-7.8-3-11.6-7.6
			c-0.4-0.5-1-1.3-1.9-2.5L259.2,223.6z"/>
		<path fill="#FFFFFF" d="M314.5,207.3l-22.4-40.9l-10.5,5.7l-4.4-8.1l30.1-16.5l4.4,8.1l-10.5,5.7l22.4,40.9L314.5,207.3z"/>
		<path fill="#FFFFFF" d="M342.7,193.2l-17.6-53l27.2-9l2.9,8.8l-17.4,5.8L342,158l16.2-5.4l2.8,8.4l-16.2,5.4l4.8,14.6l17.8-5.9
			l3,9L342.7,193.2z"/>
		<path fill="#FFFFFF" d="M381.3,181.4l-6.8-55.4l16.6-2c3.4-0.4,6.1-0.5,8.2-0.1c2.1,0.3,3.8,1.1,5.3,2.2c2.2,1.7,3.8,3.9,5,6.7
			s2.1,7.2,2.9,13.3c1,7.9,1.4,13.5,1.2,16.8c-0.2,3.3-0.8,6.2-1.8,8.6c-1,2.4-2.6,4.2-4.7,5.4c-2.2,1.2-6,2.1-11.6,2.8L381.3,181.4
			z M390.4,172l4.6-0.6c2.3-0.3,3.9-0.7,4.8-1.1c0.9-0.5,1.6-1.1,2-2c0.8-1.6,1.2-3.6,1.3-6.2c0.1-2.6-0.2-6.6-0.9-12.1
			c-0.7-5.4-1.4-9.3-2.2-11.6c-0.8-2.4-1.8-4.1-3.1-5.2c-0.7-0.5-1.5-0.9-2.5-1c-1-0.1-2.5-0.1-4.5,0.2l-4.4,0.5L390.4,172z"/>
		<path fill="#FFFFFF" d="M451.4,178.6l10.3-54.9l17.8,3.3c5.4,1,9.1,3,11,5.8c1.9,2.9,2.4,7.1,1.3,12.6c-1,5.4-3,9.2-6.1,11.4
			c-3,2.2-7.1,2.8-12.3,1.8l-7.5-1.4l-4.4,23.3L451.4,178.6z M467,149.6l4.3,0.8c3.2,0.6,5.5,0.4,7.1-0.6c1.5-1,2.6-3,3.1-6
			c0.6-3,0.4-5.3-0.6-6.7c-1-1.4-3.1-2.4-6.4-3l-4.4-0.8L467,149.6z"/>
		<path fill="#FFFFFF" d="M494.3,187.9l21.2-51.7l17.2,7.1c5.2,2.1,8.5,4.7,10,7.8c1.4,3.1,1.2,7-0.8,11.8c-1.4,3.4-3.1,5.7-5.1,7.2
			c-2,1.4-4.3,1.8-6.8,1.2c4.1,3.1,4.9,7.9,2.4,14.5c-0.1,0.3-0.2,0.5-0.3,0.7l-2.5,7c-0.7,2-1.1,3.6-1.2,5
			c-0.1,1.3,0.1,2.6,0.6,3.8l-11.4-4.7c0.1-1,0.3-2.1,0.7-3.3c0.3-1.2,0.9-2.9,1.8-5.1l2.1-5.5l0.6-1.4c1.2-3,1.4-5.3,0.6-7
			c-0.8-1.6-3.2-3.3-7.1-4.9l-3.3-1.3l-9.3,22.7L494.3,187.9z M515.9,161.9l5.5,2.3c2.8,1.1,5,1.4,6.5,0.7c1.5-0.7,2.9-2.5,4.1-5.3
			c1.1-2.6,1.2-4.6,0.4-6.1c-0.8-1.5-2.7-2.9-5.8-4.2l-4.7-1.9L515.9,161.9z"/>
		<path fill="#FFFFFF" d="M536.8,207.5l29.2-47.6l8.9,5.4l-29.2,47.6L536.8,207.5z"/>
		<path fill="#FFFFFF" d="M563.8,225.9l26.5-50.7l8.5,7.2l-22.5,39.4l34.5-29.2l8.4,7.1l-45.1,35L563.8,225.9z"/>
		<path fill="#FFFFFF" d="M587.4,246.5l51.6-24.8l8.7,10.9l-35.9,44.7l-7-8.8l9.3-10.9l-7.4-9.4l-12.7,6.6L587.4,246.5z
			 M614.2,244.3l5.5,6.9l15.6-18.1L614.2,244.3z"/>
		<path fill="#FFFFFF" d="M644.1,295.7l4.6,9c-0.2,0.1-0.5,0.3-0.9,0.5c-0.4,0.2-0.7,0.4-1,0.5c-5.8,2.9-10.6,3.9-14.7,2.9
			c-4-1-7.3-4-9.9-9c-1.2-2.4-1.9-4.6-2.2-6.6c-0.3-2,0-4,0.6-5.9c0.9-2.6,2.6-5,5.3-7.2c2.7-2.2,7.7-5.3,15.2-9.1
			c5.1-2.6,9.3-4.5,12.5-5.6c3.2-1.1,5.8-1.7,7.7-1.5c3,0.2,5.5,1,7.5,2.4c2,1.5,3.8,3.7,5.4,6.8c2.6,5,3.1,9.4,1.7,13
			c-1.5,3.6-5.1,6.9-10.9,9.9l-4.6-9l1.2-0.6c2.7-1.4,4.5-2.8,5.4-4.4c0.9-1.5,0.9-3.2,0-5c-1.1-2.2-2.8-3.3-5.1-3.1
			c-2.2,0.1-7.5,2.3-15.8,6.5c-9,4.6-14.2,7.8-15.7,9.5c-1.5,1.8-1.7,3.8-0.6,6c1.1,2.1,2.5,3.1,4.5,3.2c1.9,0,4.9-1,9-3.1
			L644.1,295.7z"/>
		<path fill="#FFFFFF" d="M638,335.1l22.8-6.4l27.1-22.8l3.1,11.1l-18,13.8l22.5,2.4l3,10.8l-34.9-5.2l-22.8,6.4L638,335.1z"/>
	</g>
	<g>
		<path fill="#FFFFFF" d="M204,566.2l4.2-3.2c-2,0.6-3.9,0.6-5.6-0.1c-1.7-0.6-3.2-1.8-4.4-3.5c-2.4-3.4-2.8-6.8-1.2-10.2
			c1.5-3.5,5.2-7.2,10.8-11.2c5.6-4,10.3-6,14-6.2c3.7-0.1,6.9,1.6,9.4,5.3c2,2.8,2.7,5.6,2.1,8.4c-0.6,2.8-2.4,5.2-5.4,7.4
			l-2.4-3.4c2.1-1.6,3.3-3.3,3.8-5.1c0.5-1.8,0.1-3.6-1.2-5.4c-1.7-2.4-4-3.4-6.8-2.9c-2.8,0.5-6.8,2.5-12,6.2
			c-4.2,2.9-6.9,5.6-8.1,8.1c-1.2,2.5-1.1,4.9,0.5,7.1c1.4,2,3.3,3,5.6,3c2.3,0,5-1.1,7.9-3.2c0.4-0.3,0.6-0.5,0.8-0.6
			s0.4-0.3,0.5-0.4l-5-7l3.2-2.2l7.3,10.4l-16.2,11.4L204,566.2z"/>
		<path fill="#FFFFFF" d="M230.3,582.4l2.6,2.9c-2.5,2.2-4.9,3.4-7.3,3.5c-2.3,0.1-4.4-0.9-6.3-3c-2.1-2.3-2.7-4.7-1.9-7.4
			c0.8-2.7,3-5.7,6.8-9.1c3.9-3.6,7.3-5.6,10.1-6.2c2.8-0.6,5.3,0.3,7.4,2.6c2,2.2,2.7,4.5,2.1,7s-2.5,5.1-5.6,8
			c-0.5,0.5-0.9,0.8-1.1,1c-0.3,0.2-0.5,0.4-0.7,0.6l-9.2-10.1l-0.9,0.8c-2.6,2.4-4.3,4.4-4.9,6.1c-0.7,1.7-0.4,3.2,0.8,4.6
			c0.9,1,2.1,1.4,3.6,1.2c1.5-0.2,3-1,4.5-2.4L230.3,582.4z M229.5,570.1l6.5,7.2l0.6-0.5c1.9-1.8,3.1-3.4,3.6-4.8
			c0.5-1.5,0.2-2.8-0.8-3.9c-1.1-1.3-2.5-1.7-4.1-1.4C233.5,567,231.6,568.1,229.5,570.1z"/>
		<path fill="#FFFFFF" d="M228.1,607.6l25.3-28.4l2.9,2.6l-2.4,2.7c1-0.7,2.3-1,3.6-0.9c1.4,0.2,2.6,0.7,3.7,1.7
			c2.2,2,3.1,4.4,2.6,7.3c-0.5,2.9-2.4,6.1-5.7,9.8c-3.4,3.8-6.4,6.2-9.1,7c-2.6,0.9-5.1,0.3-7.3-1.7c-1-0.9-1.7-1.9-2.1-3.1
			s-0.4-2.4-0.1-3.7l-8.4,9.4L228.1,607.6z M246.9,592.3c-2.6,2.9-4.2,5.4-4.7,7.4c-0.6,2-0.1,3.7,1.3,4.9c1.3,1.2,2.9,1.4,4.7,0.5
			c1.8-0.8,4-2.7,6.7-5.8c2.6-2.9,4.2-5.3,4.8-7.2c0.6-1.9,0.1-3.4-1.2-4.6c-1.5-1.3-3.1-1.6-4.9-0.9
			C251.8,587.4,249.6,589.3,246.9,592.3z"/>
		<path fill="#FFFFFF" d="M258,620.3l16.8-22.9l3,2.2l-2.8,3.7c1.5-1,2.9-1.5,4.4-1.6c1.5-0.1,2.8,0.3,4,1.2
			c0.4,0.3,0.6,0.5,0.8,0.6c0.2,0.2,0.4,0.3,0.5,0.5l-2.5,3.4c-0.1-0.2-0.2-0.4-0.4-0.6c-0.2-0.2-0.4-0.4-0.6-0.6
			c-1.6-1.2-3.3-1.6-5-1.2c-1.7,0.4-3.3,1.6-4.7,3.5l-10.3,14L258,620.3z"/>
		<path fill="#FFFFFF" d="M287.3,639.7l1.9-3.2c-1.2,0.9-2.6,1.4-4,1.5c-1.5,0-2.9-0.4-4.4-1.3c-2-1.2-3.2-2.6-3.5-4.2
			c-0.3-1.6,0.2-3.4,1.5-5.6l11.3-18.7l3.6,2.1l-11.3,18.8c-0.6,1-0.8,1.9-0.6,2.8c0.2,0.9,0.7,1.5,1.6,2.1c1.6,1,3.2,1.2,4.7,0.8
			c1.5-0.5,2.8-1.6,3.9-3.5l9.7-16.2l3.5,2.1l-14.6,24.4L287.3,639.7z M294.4,606.3l2.2-3.6l3.3,2l-2.2,3.6L294.4,606.3z
			 M301.4,610.4l2.2-3.6l3.3,2l-2.2,3.6L301.4,610.4z"/>
		<path fill="#FFFFFF" d="M302.8,648l11-22.7l-3.6-1.7l1.4-2.9l3.6,1.7l1.7-3.5c0.9-1.9,2-3,3.4-3.4s3.1-0.1,5.2,0.9
			c0.2,0.1,0.4,0.2,0.6,0.4c0.2,0.1,0.5,0.3,0.8,0.6l-1.6,3.2c-0.2-0.2-0.5-0.3-0.7-0.5c-0.2-0.1-0.5-0.3-0.7-0.4
			c-0.9-0.4-1.6-0.5-2.1-0.4c-0.5,0.2-1,0.7-1.4,1.5l-1.6,3.3l3.9,1.9l-1.4,2.9l-3.9-1.9l-11,22.7L302.8,648z"/>
		<path fill="#FFFFFF" d="M327.6,652.5c-0.4,1.1-0.5,1.9-0.3,2.4c0.3,0.5,1.1,1,2.6,1.6c0.2,0.1,0.4,0.1,0.5,0.2
			c0.1,0,0.2,0.1,0.3,0.1l-1.3,3.2c-0.2-0.1-0.5-0.2-0.9-0.3c-1-0.3-1.6-0.5-1.8-0.6c-1.7-0.7-2.9-1.5-3.5-2.6c-0.6-1-0.6-2.3,0-3.7
			l7.8-19.7l-3.7-1.4l1.2-3.1l3.7,1.4l2.8-7.1l3.6,1.4l-2.8,7.1l4.3,1.7l-1.2,3.1l-4.3-1.7L327.6,652.5z"/>
		<path fill="#FFFFFF" d="M354.1,657.4l3.7,1.1c-1,3.2-2.5,5.5-4.4,6.7c-2,1.3-4.3,1.5-6.9,0.7c-2.9-0.9-4.8-2.7-5.5-5.4
			c-0.7-2.7-0.4-6.5,1.1-11.3c1.5-5.1,3.3-8.6,5.4-10.5c2.1-1.9,4.6-2.5,7.6-1.6c2.8,0.8,4.6,2.5,5.4,4.9c0.8,2.4,0.6,5.7-0.7,9.8
			c-0.2,0.6-0.3,1.1-0.4,1.5c-0.1,0.3-0.2,0.6-0.3,0.9l-13.1-3.9l-0.4,1.2c-1,3.4-1.4,6-1,7.8c0.3,1.8,1.3,3,3.1,3.5
			c1.3,0.4,2.6,0.1,3.7-0.8s2-2.4,2.6-4.4L354.1,657.4z M347,647.3l9.3,2.8l0.2-0.7c0.7-2.5,0.9-4.5,0.6-6c-0.4-1.5-1.3-2.5-2.7-2.9
			c-1.6-0.5-3.1-0.2-4.3,1C348.8,642.5,347.8,644.5,347,647.3z"/>
		<path fill="#FFFFFF" d="M366.8,670.4l5.6-27.9l3.6,0.7l-0.9,4.6c0.9-1.5,2-2.6,3.3-3.3c1.3-0.7,2.7-0.9,4.2-0.6
			c0.4,0.1,0.8,0.2,1,0.2c0.2,0.1,0.4,0.1,0.7,0.2l-0.8,4.2c-0.2-0.2-0.4-0.3-0.6-0.4s-0.5-0.2-0.8-0.3c-2-0.4-3.7-0.1-5.1,1
			c-1.4,1.1-2.3,2.8-2.8,5.2l-3.4,17.1L366.8,670.4z"/>
		<path fill="#FFFFFF" d="M407,676.3l0.9-38l10.8,0.3c4.3,0.1,7.5,1.6,9.4,4.6c2,2.9,2.9,7.4,2.7,13.5c-0.1,4.3-0.5,7.8-1.3,10.6
			c-0.8,2.8-1.9,4.9-3.5,6.5c-1,1.1-2.2,1.9-3.5,2.3c-1.3,0.4-3.2,0.6-5.7,0.6L407,676.3z M411.3,672.8l5.5,0.1
			c1.8,0,3.2-0.1,4.2-0.4c1-0.3,1.8-0.9,2.4-1.7c0.9-1.3,1.6-2.9,2-4.8c0.4-1.9,0.7-4.7,0.8-8.2c0.2-6.1-0.4-10.3-1.6-12.3
			s-3.6-3.2-7.1-3.3l-5.4-0.1L411.3,672.8z"/>
		<path fill="#FFFFFF" d="M461.6,674.5c-0.5,0.1-0.9,0.2-1.3,0.3c-0.4,0.1-0.7,0.1-1,0.2c-1.1,0.1-2-0.2-2.7-0.8
			c-0.7-0.6-1.1-1.6-1.3-2.9c-0.5,1.5-1.2,2.7-2.3,3.6c-1.1,0.9-2.4,1.4-4,1.5c-2,0.2-3.7-0.3-5-1.6s-2-3.1-2.3-5.6
			c-0.2-2.4,0.1-4.4,1.1-5.7c0.9-1.4,3.1-2.8,6.5-4.3l0.1,0c2.8-1.2,4.1-2.5,4-3.8l-0.2-2.6c-0.1-1.2-0.5-2-1.2-2.5
			c-0.7-0.5-1.8-0.6-3.3-0.5c-1.4,0.1-2.4,0.6-3,1.4c-0.6,0.8-0.9,2-0.7,3.5l0,0.5l-3.7,0.4c-0.2-2.9,0.3-5.1,1.5-6.5
			c1.2-1.5,3.2-2.3,6.1-2.6c2.7-0.3,4.7,0.2,6.1,1.3c1.4,1.1,2.2,3,2.4,5.6l1.6,16.5c0.1,0.7,0.3,1.3,0.5,1.5
			c0.3,0.3,0.7,0.4,1.3,0.4c0.1,0,0.3-0.1,0.5-0.1c0,0,0.1,0,0.1,0L461.6,674.5z M453.9,659.8c-0.6,0.7-1.9,1.6-3.9,2.6
			c-0.2,0.1-0.3,0.1-0.4,0.2c-1.8,0.8-2.9,1.7-3.4,2.5c-0.5,0.9-0.6,2.1-0.5,3.6c0.1,1.4,0.5,2.5,1.2,3.2c0.7,0.7,1.6,1,2.7,0.9
			c1.6-0.2,2.9-0.9,3.7-2.2c0.9-1.3,1.2-3.1,1-5.2L453.9,659.8z"/>
		<path fill="#FFFFFF" d="M475.2,666.1c0.2,1.2,0.6,1.9,1.1,2.2c0.5,0.3,1.5,0.3,3.1,0c0.2,0,0.4-0.1,0.5-0.1c0.1,0,0.3-0.1,0.3-0.1
			l0.7,3.4c-0.2,0.1-0.6,0.1-1,0.2c-1,0.2-1.6,0.4-1.9,0.4c-1.8,0.4-3.3,0.3-4.3-0.3c-1-0.6-1.7-1.6-2-3.1l-4-20.8l-3.9,0.8
			l-0.6-3.2l3.9-0.8l-1.4-7.4l3.8-0.7l1.4,7.4l4.5-0.9l0.6,3.2l-4.5,0.9L475.2,666.1z"/>
		<path fill="#FFFFFF" d="M500.5,656.3l3.8-1c0.8,3.3,0.8,5.9-0.2,8s-2.8,3.5-5.5,4.3c-3,0.8-5.4,0.2-7.5-1.7c-2-1.9-3.7-5.3-5-10.1
			c-1.4-5.1-1.7-9.1-0.9-11.8c0.8-2.8,2.7-4.5,5.7-5.4c2.8-0.8,5.2-0.3,7.2,1.3c1.9,1.6,3.5,4.5,4.6,8.7c0.2,0.7,0.3,1.1,0.4,1.5
			s0.2,0.6,0.2,0.9l-13.2,3.6l0.3,1.2c0.9,3.4,2,5.8,3.2,7.2c1.2,1.4,2.7,1.8,4.4,1.3c1.4-0.4,2.3-1.2,2.7-2.6s0.4-3.1-0.1-5.1
			L500.5,656.3z M489.1,651.5l9.3-2.5l-0.2-0.7c-0.7-2.5-1.6-4.3-2.7-5.4c-1.1-1.1-2.4-1.4-3.8-1c-1.7,0.4-2.7,1.5-3.1,3.1
			C488.2,646.4,488.4,648.6,489.1,651.5z"/>
		<path fill="#FFFFFF" d="M518.5,660.7l-10.4-26.5l3.5-1.4l1.3,3.3c0.1-1.5,0.6-2.8,1.5-3.9c0.9-1.1,2.1-1.9,3.6-2.5
			c2.3-0.9,4.2-1,5.7-0.2c1.5,0.8,2.7,2.6,3.9,5.5l7.5,19.2l-3.7,1.5l-7.6-19.5c-0.6-1.4-1.3-2.4-2.2-2.9c-0.9-0.5-2-0.5-3.2,0
			c-1.7,0.6-2.8,1.7-3.3,3.1c-0.6,1.4-0.5,3,0.2,4.8l7,17.9L518.5,660.7z"/>
		<path fill="#FFFFFF" d="M542.2,641.6l3.5-1.8c0,0,0,0.1,0,0.1c0.1,0.3,0.2,0.6,0.3,0.8c0.7,1.4,1.7,2.2,2.8,2.5
			c1.2,0.3,2.5,0.1,4-0.7c1.4-0.7,2.2-1.6,2.6-2.8c0.4-1.1,0.3-2.3-0.4-3.6c-1-2-3.4-2.7-7-2.2l-0.1,0c-3.6,0.5-6.2,0.5-7.6-0.1
			s-2.7-1.9-3.8-3.9c-1.2-2.2-1.4-4.3-0.8-6.2c0.6-1.9,2.1-3.5,4.4-4.7c2.5-1.3,4.6-1.7,6.5-1.1c1.9,0.5,3.4,1.9,4.6,4.3l0.2,0.4
			l-3.3,1.8c-0.9-1.5-1.8-2.4-2.8-2.8s-2.1-0.2-3.4,0.5c-1.4,0.7-2.2,1.6-2.6,2.6c-0.4,1-0.2,2.2,0.5,3.4c0.3,0.6,0.7,1,1.1,1.4
			c0.4,0.4,0.9,0.6,1.4,0.7c0.9,0.2,2.5,0.1,4.7-0.3c1.2-0.2,2.1-0.4,2.8-0.4c2.1-0.2,3.8,0,5.1,0.6c1.3,0.6,2.4,1.8,3.3,3.5
			c1.3,2.5,1.6,4.8,0.9,7c-0.7,2.1-2.4,3.9-5.1,5.3c-2.5,1.3-4.7,1.6-6.6,1c-1.9-0.6-3.6-2.2-4.9-4.8L542.2,641.6z"/>
		<path fill="#FFFFFF" d="M578.5,618.5l3.2-2.2c1.9,2.9,2.7,5.5,2.5,7.9c-0.3,2.4-1.6,4.5-4,6.1c-2.6,1.8-5.3,2-7.9,0.8
			c-2.7-1.2-5.4-4-8.3-8.2c-2.8-4.1-4.2-7.6-4.2-10.5c-0.1-2.9,1.3-5.3,3.9-7.1c2.2-1.5,4.4-2,6.6-1.5s4.1,1.9,5.6,4.2l0.3,0.5
			l-3.2,2.2c-1.2-1.6-2.4-2.6-3.6-3.1s-2.4-0.2-3.6,0.5c-1.6,1.1-2.3,2.6-2,4.5c0.3,1.9,1.6,4.6,3.9,8c2.3,3.5,4.3,5.7,6,6.7
			c1.7,1,3.3,0.9,4.9-0.2c1.2-0.8,1.8-2,1.8-3.5C580.4,622.2,579.8,620.5,578.5,618.5z"/>
		<path fill="#FFFFFF" d="M597.4,617l-24.6-29l3.1-2.6l8.2,9.7c-0.2-1.4-0.1-2.7,0.3-3.9c0.5-1.2,1.3-2.3,2.5-3.3
			c1.7-1.4,3.3-2.1,5-2c1.7,0.1,3.1,0.9,4.5,2.4l14.6,17.3l-3.1,2.6l-13.4-15.8c-1.1-1.3-2.1-2-3.1-2.2c-1-0.2-2,0.2-3.1,1.1
			c-1.3,1.1-2.1,2.5-2.1,4c-0.1,1.5,0.5,3,1.7,4.5l12.4,14.7L597.4,617z"/>
		<path fill="#FFFFFF" d="M629.9,586.5l-2.7-2.5c0.7,1.4,0.8,2.8,0.6,4.2c-0.3,1.4-1,2.8-2.2,4c-1.6,1.7-3.2,2.6-4.8,2.6
			c-1.6,0-3.3-0.9-5.2-2.7l-15.9-15l2.9-3l16,15.1c0.9,0.8,1.7,1.2,2.6,1.2c0.9,0,1.7-0.4,2.4-1.1c1.3-1.4,1.9-2.9,1.8-4.5
			c-0.1-1.6-1-3.1-2.5-4.6l-13.7-13l2.8-2.9l20.7,19.5L629.9,586.5z"/>
		<path fill="#FFFFFF" d="M638.9,566.8c0.9,0.7,1.7,1,2.2,0.9c0.6-0.1,1.3-0.8,2.3-2.1c0.1-0.2,0.2-0.3,0.3-0.4
			c0.1-0.1,0.1-0.2,0.2-0.3l2.7,2.1c-0.1,0.2-0.3,0.5-0.6,0.8c-0.6,0.8-1,1.4-1.2,1.6c-1.2,1.5-2.3,2.3-3.5,2.6
			c-1.2,0.3-2.3-0.1-3.5-1l-16.6-13.1l-2.5,3.1l-2.6-2l2.5-3.1l-6-4.7l2.4-3l6,4.7l2.9-3.6l2.6,2l-2.9,3.6L638.9,566.8z"/>
		<path fill="#FFFFFF" d="M651,560.6l-3-2l-10.9-21.9l-6.5,9.7l-3-2l9.1-13.7l2.7,1.8l10.9,22.3l7-10.6l3.2,2.1L651,560.6z"/>
	</g>
	<g>
		<path fill="#62626C" d="M192.3,772.8v0.2c0,5.1,1.2,9.1,3.7,12.1c2.4,3,5.7,4.5,9.8,4.5c3.3,0,6-0.9,8.2-2.6s3.5-4.2,4-7.2h4.8
			c-0.5,4.2-2.3,7.6-5.5,10.1s-7.1,3.8-11.8,3.8c-5.7,0-10.1-1.9-13.3-5.7s-4.8-9.1-4.8-15.9c0-6.9,1.6-12.3,4.8-16.2
			c3.2-3.9,7.7-5.8,13.4-5.8c5.6,0,9.9,1.9,13,5.6c3.1,3.7,4.7,8.9,4.7,15.6v1.6H192.3z M192.4,768.9l26,0
			c-0.2-4.6-1.5-8.2-3.7-10.8c-2.3-2.6-5.3-3.9-9.1-3.9c-3.8,0-6.9,1.3-9.3,4S192.6,764.5,192.4,768.9z"/>
		<path fill="#069AD1" d="M236.7,792.6v-57.5h21.2c3.4,0,6.1,0.2,7.9,0.5c1.8,0.3,3.4,0.9,4.8,1.7c2.3,1.3,4.1,3.2,5.4,5.7
			s1.9,5.4,1.9,8.8c0,3.2-0.6,6-1.9,8.5c-1.2,2.4-3.1,4.4-5.5,5.9c-1.4,0.8-3,1.4-4.9,1.8c-1.9,0.4-4.9,0.5-9.2,0.5h-11.9v24.3
			H236.7z M244.5,761.4h13.1c4.6,0,7.7-0.7,9.6-2.2c1.8-1.5,2.7-4,2.7-7.5c0-3.4-0.9-5.9-2.7-7.3s-4.8-2.2-9-2.2h-13.7V761.4z"/>
		<path fill="#069AD1" d="M286.3,792.6v-41.8h6.8v7.5c1.1-2.8,2.6-4.9,4.6-6.3c1.9-1.4,4.3-2.1,7.1-2.1c0.5,0,0.9,0,1.1,0
			c0.2,0,0.5,0,0.7,0.1v7.4c-0.2,0-0.4,0-0.6-0.1c-0.2,0-0.6,0-1.1,0c-3.8,0-6.6,1-8.6,3.1c-2,2-2.9,5-2.9,8.9v23.3H286.3z"/>
		<path fill="#069AD1" d="M316.9,743.1v-8h7v8H316.9z M316.9,792.6v-41.8h7v41.8H316.9z"/>
		<path fill="#069AD1" d="M348.8,792.6l-15.4-41.8h7.5l11.7,33.5l11.4-33.5h7.5l-15.3,41.8H348.8z"/>
		<path fill="#069AD1" d="M407,787.1c-2.2,2.3-4.5,4-7,5.2s-5.1,1.7-7.8,1.7c-4.3,0-7.6-1.1-10-3.3c-2.4-2.2-3.6-5.3-3.6-9.2
			c0-3.8,1.2-6.8,3.5-8.9c2.4-2.2,5.9-3.6,10.8-4.2c1.2-0.1,2.9-0.3,5-0.5c3.6-0.4,5.8-0.7,6.6-1.1c0.8-0.3,1.3-0.7,1.6-1.2
			c0.3-0.5,0.4-1.6,0.4-3.3c0-2.1-0.8-3.7-2.3-4.8c-1.6-1.1-3.9-1.6-7.1-1.6c-3.3,0-5.7,0.7-7.4,2c-1.7,1.3-2.5,3.2-2.5,5.8h-6.6
			v-0.3c0-4.2,1.5-7.6,4.5-10c3-2.4,7.1-3.7,12.3-3.7c5.6,0,9.7,1,12.4,3.1c2.6,2.1,4,5.4,4,9.8v20.9c0,1.8,0.2,3,0.6,3.5
			c0.4,0.5,1.1,0.8,2.1,0.8c0.2,0,0.5,0,0.8-0.1c0.3,0,0.7-0.1,1.1-0.2v5.4c-0.9,0.2-1.6,0.4-2.2,0.5c-0.6,0.1-1.2,0.1-1.8,0.1
			c-2.3,0-4.1-0.5-5.3-1.5s-1.8-2.6-1.8-4.6V787.1z M406.3,771.4c-1.9,1-5.1,1.8-9.6,2.4c-1.6,0.2-2.8,0.4-3.6,0.5
			c-2.6,0.4-4.4,1.2-5.5,2.3c-1.1,1.1-1.7,2.7-1.7,4.8c0,2.1,0.7,3.7,2,4.8c1.3,1.1,3.2,1.7,5.6,1.7c3.8,0,6.9-1,9.3-2.9
			c2.4-1.9,3.6-4.3,3.6-7.3V771.4z"/>
		<path fill="#069AD1" d="M456.3,764.7c-0.2-2.9-1.2-5.1-3.1-6.6c-1.9-1.5-4.4-2.3-7.6-2.3c-3.8,0-6.7,1.4-8.8,4.1
			s-3.1,6.6-3.1,11.7c0,5.1,1,9,3,11.8c2,2.8,4.8,4.1,8.5,4.1c3.3,0,5.9-0.8,7.9-2.5c2-1.7,3.2-4.2,3.7-7.4h6.7
			c-0.4,5.1-2.2,9.1-5.4,12c-3.3,2.9-7.6,4.3-13.1,4.3c-5.7,0-10.2-2-13.5-5.9c-3.3-3.9-4.9-9.3-4.9-16.2c0-7,1.7-12.5,5.1-16.5
			c3.4-4,8.1-6,14.1-6c5.3,0,9.5,1.4,12.6,4.1c3.2,2.7,4.8,6.5,5.1,11.2H456.3z"/>
		<path fill="#069AD1" d="M501,750.8h7.9l-17.6,48.3c-1.7,4.6-3.3,7.5-5,8.9c-1.7,1.4-4.1,2.1-7.3,2.1c-0.7,0-1.4-0.1-2.1-0.2
			c-0.7-0.1-1.4-0.3-2.1-0.5v-6.7c0.7,0.2,1.4,0.4,2.1,0.5c0.7,0.1,1.4,0.2,2,0.2c1.4,0,2.4-0.3,3.3-0.8c0.8-0.5,1.5-1.4,1.9-2.6
			l1.8-5L470,750.8h7.9l11.6,33.8L501,750.8z"/>
		<path fill="#62626C" d="M517.3,779.7h4.8c0.1,2.9,1.2,5.2,3.3,7c2,1.8,4.7,2.7,7.9,2.7c3.5,0,6.2-0.7,8.2-2.1s3-3.2,3-5.6
			c0-3.4-3.7-5.9-11.1-7.7l-0.2,0c-5.9-1.4-9.9-3-11.9-4.7c-2-1.7-3-4.1-3-7.2c0-3.6,1.3-6.5,4-8.7c2.6-2.2,6.1-3.3,10.3-3.3
			c4.7,0,8.4,1.2,11.1,3.5c2.8,2.3,4.3,5.6,4.6,9.7h-4.9c-0.2-2.8-1.3-5-3.2-6.6c-1.9-1.6-4.5-2.4-7.7-2.4c-2.8,0-5.1,0.7-6.8,2
			c-1.7,1.3-2.5,3-2.5,5.2c0,3.7,3.8,6.4,11.3,8.2c1,0.2,1.7,0.4,2.2,0.5c4.7,1.2,8,2.7,9.9,4.4c1.8,1.7,2.8,4.2,2.8,7.3
			c0,3.5-1.5,6.4-4.4,8.6c-2.9,2.2-6.7,3.3-11.5,3.3c-4.8,0-8.7-1.3-11.6-3.8C519,787.4,517.5,784,517.3,779.7z"/>
		<path fill="#62626C" d="M565.2,772.8v0.2c0,5.1,1.2,9.1,3.7,12.1c2.4,3,5.7,4.5,9.8,4.5c3.3,0,6-0.9,8.2-2.6s3.5-4.2,4-7.2h4.8
			c-0.5,4.2-2.3,7.6-5.5,10.1s-7.1,3.8-11.8,3.8c-5.7,0-10.1-1.9-13.3-5.7s-4.8-9.1-4.8-15.9c0-6.9,1.6-12.3,4.8-16.2
			c3.2-3.9,7.7-5.8,13.4-5.8c5.6,0,9.9,1.9,13,5.6c3.1,3.7,4.7,8.9,4.7,15.6v1.6H565.2z M565.3,768.9l26,0
			c-0.2-4.6-1.5-8.2-3.7-10.8c-2.3-2.6-5.3-3.9-9.1-3.9c-3.8,0-6.9,1.3-9.3,4S565.5,764.5,565.3,768.9z"/>
		<path fill="#62626C" d="M635.8,786.6c-2.2,2.4-4.6,4.1-7.1,5.3c-2.6,1.2-5.3,1.8-8.2,1.8c-4.2,0-7.5-1.1-10-3.3
			c-2.5-2.2-3.7-5.1-3.7-8.8c0-2.4,0.6-4.4,1.7-6.2c1.1-1.8,2.8-3.2,4.9-4.2c2.5-1.1,6.6-1.9,12.4-2.3c1.1-0.1,2-0.2,2.5-0.2
			c0.3-0.1,0.8-0.2,1.4-0.3c4-0.8,5.9-2.5,5.9-5.1c0-3.2-0.8-5.5-2.4-6.9c-1.6-1.4-4.2-2.1-7.9-2.1c-3.7,0-6.6,0.8-8.6,2.3
			c-2,1.5-3,3.8-3.2,6.9l-4.7,0c0.1-4.1,1.6-7.4,4.6-9.8c2.9-2.4,6.9-3.6,11.9-3.6c5,0,8.8,1.1,11.3,3.2c2.6,2.1,3.9,5.3,3.9,9.4
			v22.7c0,1.7,0.2,2.8,0.6,3.2c0.4,0.4,1.2,0.6,2.3,0.6c0.4,0,0.7,0,0.9,0c0.3,0,0.5,0,0.8-0.1v3.6c-0.6,0.1-1.2,0.2-1.8,0.3
			c-0.6,0.1-1.1,0.1-1.6,0.1c-2,0-3.5-0.5-4.5-1.4c-1-1-1.5-2.4-1.5-4.3V786.6z M635.5,770.9c-1.3,0.5-2.9,0.8-4.9,1.1
			c-2,0.3-5.2,0.5-9.6,0.8c-3.1,0.8-5.4,2-7,3.4s-2.3,3.3-2.3,5.4c0,2.4,0.8,4.3,2.5,5.7s4,2.1,6.9,2.1c4.4,0,7.9-1.1,10.5-3.4
			c2.6-2.3,3.9-5.4,3.9-9.3V770.9z"/>
		<path fill="#62626C" d="M656.2,792.6v-57.5h4.8v57.5H656.2z"/>
	</g>
</g>
</svg>
